Bitter Pro-Black Italic.ufo
<glyph name="percent" format="2">
	<advance width="859"/>
	<unicode hex="0025"/>
	<outline>
		<contour>
			<point x="73" y="-16" type="line"/>
			<point x="231" y="-16" type="line"/>
			<point x="807" y="724" type="line"/>
			<point x="650" y="724" type="line"/>
		</contour>
		<contour>
			<point x="216" y="346" type="curve" smooth="yes"/>
			<point x="340" y="346"/>
			<point x="427" y="441"/>
			<point x="427" y="566" type="curve" smooth="yes"/>
			<point x="427" y="669"/>
			<point x="367" y="725"/>
			<point x="272" y="725" type="curve" smooth="yes"/>
			<point x="148" y="725"/>
			<point x="61" y="631"/>
			<point x="61" y="506" type="curve" smooth="yes"/>
			<point x="61" y="403"/>
			<point x="120" y="346"/>
		</contour>
		<contour>
			<point x="228" y="451" type="curve" smooth="yes"/>
			<point x="205" y="451"/>
			<point x="196" y="467"/>
			<point x="196" y="503" type="curve" smooth="yes"/>
			<point x="196" y="558"/>
			<point x="217" y="620"/>
			<point x="262" y="620" type="curve" smooth="yes"/>
			<point x="285" y="620"/>
			<point x="292" y="604"/>
			<point x="292" y="569" type="curve" smooth="yes"/>
			<point x="292" y="507"/>
			<point x="270" y="451"/>
		</contour>
		<contour>
			<point x="614" y="-15" type="curve" smooth="yes"/>
			<point x="738" y="-15"/>
			<point x="825" y="80"/>
			<point x="825" y="205" type="curve" smooth="yes"/>
			<point x="825" y="308"/>
			<point x="765" y="364"/>
			<point x="670" y="364" type="curve" smooth="yes"/>
			<point x="546" y="364"/>
			<point x="459" y="270"/>
			<point x="459" y="145" type="curve" smooth="yes"/>
			<point x="459" y="42"/>
			<point x="518" y="-15"/>
		</contour>
		<contour>
			<point x="626" y="90" type="curve" smooth="yes"/>
			<point x="603" y="90"/>
			<point x="594" y="106"/>
			<point x="594" y="142" type="curve" smooth="yes"/>
			<point x="594" y="197"/>
			<point x="615" y="259"/>
			<point x="660" y="259" type="curve" smooth="yes"/>
			<point x="683" y="259"/>
			<point x="690" y="243"/>
			<point x="690" y="208" type="curve" smooth="yes"/>
			<point x="690" y="146"/>
			<point x="668" y="90"/>
		</contour>
	</outline>
</glyph>
<glyph name="ampersand" format="2">
	<advance width="663"/>
	<unicode hex="0026"/>
	<guideline x="286" y="492" angle="90"/>
	<guideline x="429" y="492" angle="90"/>
	<outline>
		<contour>
			<point x="251" y="-15" type="curve" smooth="yes"/>
			<point x="406" y="-15"/>
			<point x="552" y="68"/>
			<point x="576" y="222" type="curve" smooth="yes"/>
			<point x="594" y="338" type="line"/>
			<point x="571" y="305" type="line"/>
			<point x="651" y="333" type="line"/>
			<point x="667" y="438" type="line"/>
			<point x="365" y="438" type="line" smooth="yes"/>
			<point x="321" y="438"/>
			<point x="295" y="461"/>
			<point x="295" y="504" type="curve" smooth="yes"/>
			<point x="295" y="553"/>
			<point x="328" y="578"/>
			<point x="379" y="578" type="curve" smooth="yes"/>
			<point x="404" y="578"/>
			<point x="433" y="572"/>
			<point x="464" y="561" type="curve"/>
			<point x="432" y="585" type="line"/>
			<point x="443" y="508" type="line"/>
			<point x="565" y="508" type="line"/>
			<point x="602" y="682" type="line"/>
			<point x="534" y="711"/>
			<point x="460" y="725"/>
			<point x="391" y="725" type="curve" smooth="yes"/>
			<point x="220" y="725"/>
			<point x="97" y="641"/>
			<point x="97" y="515" type="curve" smooth="yes"/>
			<point x="97" y="429"/>
			<point x="154" y="371"/>
			<point x="255" y="360" type="curve"/>
			<point x="252" y="384" type="line"/>
			<point x="113" y="373"/>
			<point x="24" y="293"/>
			<point x="24" y="171" type="curve" smooth="yes"/>
			<point x="24" y="53"/>
			<point x="108" y="-15"/>
		</contour>
		<contour>
			<point x="299" y="141" type="curve" smooth="yes"/>
			<point x="260" y="141"/>
			<point x="233" y="163"/>
			<point x="233" y="206" type="curve" smooth="yes"/>
			<point x="233" y="253"/>
			<point x="266" y="296"/>
			<point x="323" y="296" type="curve" smooth="yes"/>
			<point x="428" y="296" type="line"/>
			<point x="399" y="320" type="line"/>
			<point x="384" y="223" type="line" smooth="yes"/>
			<point x="375" y="164"/>
			<point x="340" y="141"/>
		</contour>
	</outline>
</glyph>
<glyph name="comma" format="2">
	<advance width="300"/>
	<unicode hex="002C"/>
	<guideline x="174" y="-207" angle="0"/>
	<outline>
		<contour>
			<point x="23" y="76" type="curve" smooth="yes"/>
			<point x="23" y="28"/>
			<point x="44" y="9"/>
			<point x="44" y="-20" type="curve" smooth="yes"/>
			<point x="44" y="-46"/>
			<point x="28" y="-71"/>
			<point x="-40" y="-154" type="curve"/>
			<point x="25" y="-207" type="line"/>
			<point x="134" y="-109"/>
			<point x="227" y="-7"/>
			<point x="227" y="97" type="curve" smooth="yes"/>
			<point x="227" y="165"/>
			<point x="183" y="193"/>
			<point x="135" y="193" type="curve" smooth="yes"/>
			<point x="80" y="193"/>
			<point x="23" y="154"/>
		</contour>
	</outline>
</glyph>
<glyph name="slash" format="2">
	<advance width="356"/>
	<unicode hex="002F"/>
	<outline>
		<contour>
			<point x="457" y="813" type="line"/>
			<point x="321" y="813" type="line"/>
			<point x="-72" y="-90" type="line"/>
			<point x="62" y="-90" type="line"/>
		</contour>
	</outline>
</glyph>
<glyph name="zero" format="2">
	<advance width="623"/>
	<unicode hex="0030"/>
	<outline>
		<contour>
			<point x="263" y="-15" type="curve" smooth="yes"/>
			<point x="555" y="-15"/>
			<point x="613" y="271"/>
			<point x="613" y="449" type="curve" smooth="yes"/>
			<point x="613" y="649"/>
			<point x="539" y="725"/>
			<point x="388" y="725" type="curve" smooth="yes"/>
			<point x="89" y="725"/>
			<point x="36" y="426"/>
			<point x="36" y="261" type="curve" smooth="yes"/>
			<point x="36" y="58"/>
			<point x="116" y="-15"/>
		</contour>
		<contour>
			<point x="288" y="138" type="curve" smooth="yes"/>
			<point x="257" y="138"/>
			<point x="233" y="161"/>
			<point x="233" y="243" type="curve" smooth="yes"/>
			<point x="233" y="316"/>
			<point x="252" y="572"/>
			<point x="361" y="572" type="curve" smooth="yes"/>
			<point x="396" y="572"/>
			<point x="416" y="546"/>
			<point x="416" y="476" type="curve" smooth="yes"/>
			<point x="416" y="406"/>
			<point x="396" y="138"/>
		</contour>
	</outline>
</glyph>
<glyph name="eight" format="2">
	<advance width="591"/>
	<unicode hex="0038"/>
	<outline>
		<contour>
			<point x="245" y="-15" type="curve" smooth="yes"/>
			<point x="404" y="-15"/>
			<point x="561" y="75"/>
			<point x="561" y="233" type="curve" smooth="yes"/>
			<point x="561" y="447"/>
			<point x="271" y="402"/>
			<point x="271" y="516" type="curve" smooth="yes"/>
			<point x="271" y="558"/>
			<point x="311" y="582"/>
			<point x="347" y="582" type="curve" smooth="yes"/>
			<point x="376" y="582"/>
			<point x="402" y="567"/>
			<point x="402" y="532" type="curve" smooth="yes"/>
			<point x="402" y="478"/>
			<point x="343" y="432"/>
			<point x="279" y="430" type="curve"/>
			<point x="418" y="370" type="line"/>
			<point x="519" y="394"/>
			<point x="590" y="458"/>
			<point x="590" y="554" type="curve" smooth="yes"/>
			<point x="590" y="671"/>
			<point x="483" y="725"/>
			<point x="367" y="725" type="curve" smooth="yes"/>
			<point x="231" y="725"/>
			<point x="82" y="650"/>
			<point x="82" y="497" type="curve" smooth="yes"/>
			<point x="82" y="283"/>
			<point x="371" y="326"/>
			<point x="371" y="211" type="curve" smooth="yes"/>
			<point x="371" y="165"/>
			<point x="324" y="128"/>
			<point x="270" y="128" type="curve" smooth="yes"/>
			<point x="232" y="128"/>
			<point x="198" y="146"/>
			<point x="198" y="191" type="curve" smooth="yes"/>
			<point x="198" y="243"/>
			<point x="243" y="293"/>
			<point x="315" y="309" type="curve"/>
			<point x="205" y="368" type="line"/>
			<point x="67" y="342"/>
			<point x="7" y="247"/>
			<point x="7" y="160" type="curve" smooth="yes"/>
			<point x="7" y="42"/>
			<point x="120" y="-15"/>
		</contour>
	</outline>
</glyph>
<glyph name="at" format="2">
	<advance width="878"/>
	<unicode hex="0040"/>
	<outline>
		<contour>
			<point x="333" y="-116" type="curve" smooth="yes"/>
			<point x="393" y="-116"/>
			<point x="461" y="-104"/>
			<point x="530" y="-78" type="curve"/>
			<point x="499" y="37" type="line"/>
			<point x="448" y="19"/>
			<point x="398" y="9"/>
			<point x="352" y="9" type="curve" smooth="yes"/>
			<point x="237" y="9"/>
			<point x="181" y="70"/>
			<point x="181" y="201" type="curve" smooth="yes"/>
			<point x="181" y="375"/>
			<point x="281" y="548"/>
			<point x="500" y="548" type="curve" smooth="yes"/>
			<point x="666" y="548"/>
			<point x="705" y="449"/>
			<point x="705" y="346" type="curve" smooth="yes"/>
			<point x="705" y="252"/>
			<point x="671" y="170"/>
			<point x="628" y="170" type="curve" smooth="yes"/>
			<point x="605" y="170"/>
			<point x="604" y="192"/>
			<point x="606" y="204" type="curve" smooth="yes"/>
			<point x="650" y="469" type="line"/>
			<point x="579" y="474" type="line"/>
			<point x="556" y="450" type="line"/>
			<point x="618" y="436" type="line"/>
			<point x="573" y="471"/>
			<point x="524" y="486"/>
			<point x="478" y="486" type="curve" smooth="yes"/>
			<point x="348" y="486"/>
			<point x="245" y="369"/>
			<point x="245" y="222" type="curve" smooth="yes"/>
			<point x="245" y="116"/>
			<point x="298" y="73"/>
			<point x="356" y="73" type="curve" smooth="yes"/>
			<point x="431" y="73"/>
			<point x="511" y="143"/>
			<point x="526" y="266" type="curve"/>
			<point x="482" y="170" type="line"/>
			<point x="494" y="105"/>
			<point x="539" y="60"/>
			<point x="624" y="60" type="curve" smooth="yes"/>
			<point x="760" y="60"/>
			<point x="855" y="177"/>
			<point x="855" y="350" type="curve" smooth="yes"/>
			<point x="855" y="569"/>
			<point x="703" y="673"/>
			<point x="504" y="673" type="curve" smooth="yes"/>
			<point x="225" y="673"/>
			<point x="31" y="468"/>
			<point x="31" y="202" type="curve" smooth="yes"/>
			<point x="31" y="-13"/>
			<point x="157" y="-116"/>
		</contour>
		<contour>
			<point x="419" y="188" type="curve" smooth="yes"/>
			<point x="399" y="188"/>
			<point x="390" y="207"/>
			<point x="390" y="238" type="curve" smooth="yes"/>
			<point x="390" y="309"/>
			<point x="426" y="381"/>
			<point x="475" y="381" type="curve" smooth="yes"/>
			<point x="491" y="381"/>
			<point x="508" y="374"/>
			<point x="526" y="357" type="curve"/>
			<point x="500" y="401" type="line"/>
			<point x="484" y="303" type="line" smooth="yes"/>
			<point x="479" y="273"/>
			<point x="465" y="188"/>
		</contour>
	</outline>
</glyph>
<glyph name="C" format="2">
	<advance width="607"/>
	<unicode hex="0043"/>
	<anchor x="290" y="0" name="bottom"/>
	<anchor x="430" y="710" name="top"/>
	<outline>
		<contour>
			<point x="37" y="84"/>
			<point x="158" y="-15"/>
			<point x="304" y="-15" type="curve" smooth="yes"/>
			<point x="387" y="-15"/>
			<point x="477" y="17"/>
			<point x="559" y="82" type="curve"/>
			<point x="497" y="205" type="line"/>
			<point x="447" y="169"/>
			<point x="396" y="148"/>
			<point x="352" y="148" type="curve" smooth="yes"/>
			<point x="290" y="148"/>
			<point x="245" y="189"/>
			<point x="245" y="302" type="curve" smooth="yes"/>
			<point x="245" y="421"/>
			<point x="295" y="570"/>
			<point x="413" y="570" type="curve" smooth="yes"/>
			<point x="435" y="570"/>
			<point x="463" y="565"/>
			<point x="498" y="551" type="curve"/>
			<point x="465" y="579" type="line"/>
			<point x="479" y="472" type="line"/>
			<point x="594" y="472" type="line"/>
			<point x="634" y="669" type="line"/>
			<point x="555" y="705"/>
			<point x="486" y="725"/>
			<point x="413" y="725" type="curve" smooth="yes"/>
			<point x="181" y="725"/>
			<point x="37" y="522"/>
			<point x="37" y="293" type="curve" smooth="yes"/>
		</contour>
	</outline>
</glyph>
<glyph name="E" format="2">
	<advance width="585"/>
	<unicode hex="0045"/>
	<guideline x="369" y="726" angle="261"/>
	<anchor x="254" y="0" name="bottom"/>
	<anchor x="503" y="0" name="ogonek"/>
	<anchor x="366" y="710" name="top"/>
	<anchor x="86" y="710" name="topleft"/>
	<outline>
		<contour>
			<point x="422" y="211" type="line"/>
			<point x="385" y="115" type="line"/>
			<point x="427" y="145" type="line"/>
			<point x="238" y="145" type="line"/>
			<point x="257" y="105" type="line"/>
			<point x="292" y="325" type="line"/>
			<point x="258" y="290" type="line"/>
			<point x="459" y="290" type="line"/>
			<point x="482" y="430" type="line"/>
			<point x="283" y="430" type="line"/>
			<point x="304" y="400" type="line"/>
			<point x="335" y="595" type="line"/>
			<point x="301" y="565" type="line"/>
			<point x="479" y="565" type="line"/>
			<point x="450" y="591" type="line"/>
			<point x="460" y="508" type="line"/>
			<point x="574" y="508" type="line"/>
			<point x="606" y="710" type="line"/>
			<point x="350" y="710" type="line"/>
			<point x="100" y="705" type="line"/>
			<point x="84" y="605" type="line"/>
			<point x="158" y="571" type="line"/>
			<point x="139" y="600" type="line"/>
			<point x="60" y="106" type="line"/>
			<point x="84" y="131" type="line"/>
			<point x="4" y="100" type="line"/>
			<point x="-12" y="0" type="line"/>
			<point x="503" y="0" type="line"/>
			<point x="538" y="211" type="line"/>
		</contour>
	</outline>
</glyph>
<glyph name="Y" format="2">
	<advance width="649"/>
	<unicode hex="0059"/>
	<anchor x="286" y="0" name="bottom"/>
	<anchor x="411" y="710" name="top"/>
	<outline>
		<contour>
			<point x="126" y="0" type="line"/>
			<point x="447" y="0" type="line"/>
			<point x="463" y="100" type="line"/>
			<point x="389" y="132" type="line"/>
			<point x="399" y="105" type="line"/>
			<point x="427" y="281" type="line"/>
			<point x="403" y="216" type="line"/>
			<point x="671" y="609" type="line"/>
			<point x="634" y="584" type="line"/>
			<point x="697" y="610" type="line"/>
			<point x="712" y="710" type="line"/>
			<point x="458" y="705" type="line"/>
			<point x="443" y="605" type="line"/>
			<point x="508" y="571" type="line"/>
			<point x="497" y="605" type="line"/>
			<point x="334" y="348" type="line"/>
			<point x="373" y="348" type="line"/>
			<point x="289" y="614" type="line"/>
			<point x="275" y="580" type="line"/>
			<point x="348" y="610" type="line"/>
			<point x="364" y="710" type="line"/>
			<point x="74" y="705" type="line"/>
			<point x="60" y="605" type="line"/>
			<point x="118" y="577" type="line"/>
			<point x="93" y="603" type="line"/>
			<point x="241" y="216" type="line"/>
			<point x="230" y="281" type="line"/>
			<point x="202" y="105" type="line"/>
			<point x="226" y="131" type="line"/>
			<point x="141" y="100" type="line"/>
		</contour>
	</outline>
</glyph>
<glyph name="bracketleft" format="2">
	<advance width="345"/>
	<unicode hex="005B"/>
	<guideline x="641" y="872" angle="0"/>
	<guideline x="-519" y="-118" angle="0"/>
	<outline>
		<contour>
			<point x="-3" y="-118" type="line"/>
			<point x="275" y="-113" type="line"/>
			<point x="294" y="7" type="line"/>
			<point x="182" y="17" type="line"/>
			<point x="296" y="737" type="line"/>
			<point x="411" y="747" type="line"/>
			<point x="430" y="867" type="line"/>
			<point x="154" y="872" type="line"/>
		</contour>
	</outline>
</glyph>
<glyph name="asciicircum" format="2">
	<advance width="500"/>
	<unicode hex="005E"/>
	<outline>
		<contour>
			<point x="-1" y="540" type="line"/>
			<point x="173" y="540" type="line"/>
			<point x="352" y="828" type="line"/>
			<point x="259" y="828" type="line"/>
			<point x="346" y="540" type="line"/>
			<point x="519" y="540" type="line"/>
			<point x="385" y="900" type="line"/>
			<point x="245" y="900" type="line"/>
		</contour>
	</outline>
</glyph>
<glyph name="b" format="2">
	<advance width="580"/>
	<unicode hex="0062"/>
	<guideline x="83" y="472" angle="261"/>
	<guideline x="275" y="472" angle="261"/>
	<guideline x="16" y="472" angle="261"/>
	<guideline x="83" y="472" angle="261"/>
	<anchor x="253" y="0" name="bottom"/>
	<anchor x="339" y="540" name="top"/>
	<outline>
		<contour>
			<point x="10" y="13" type="line"/>
			<point x="76" y="-5"/>
			<point x="139" y="-14"/>
			<point x="196" y="-14" type="curve" smooth="yes"/>
			<point x="420" y="-14"/>
			<point x="569" y="119"/>
			<point x="569" y="344" type="curve" smooth="yes"/>
			<point x="569" y="500"/>
			<point x="498" y="557"/>
			<point x="419" y="557" type="curve" smooth="yes"/>
			<point x="316" y="557"/>
			<point x="209" y="460"/>
			<point x="187" y="289" type="curve"/>
			<point x="259" y="421" type="line"/>
			<point x="325" y="785" type="line"/>
			<point x="65" y="777" type="line"/>
			<point x="49" y="677" type="line"/>
			<point x="195" y="622" type="line"/>
			<point x="126" y="745" type="line"/>
		</contour>
		<contour>
			<point x="216" y="103" type="line"/>
			<point x="238" y="239" type="line" smooth="yes"/>
			<point x="254" y="337"/>
			<point x="293" y="402"/>
			<point x="335" y="402" type="curve" smooth="yes"/>
			<point x="360" y="402"/>
			<point x="373" y="379"/>
			<point x="373" y="323" type="curve" smooth="yes"/>
			<point x="373" y="216"/>
			<point x="326" y="133"/>
			<point x="246" y="133" type="curve" smooth="yes"/>
			<point x="226" y="133"/>
			<point x="203" y="138"/>
			<point x="179" y="150" type="curve"/>
		</contour>
	</outline>
</glyph>
<glyph name="m" format="2">
	<advance width="901"/>
	<unicode hex="006D"/>
	<anchor x="409" y="0" name="bottom"/>
	<anchor x="551" y="540" name="top"/>
	<outline>
		<contour>
			<point x="598" y="-6" type="line"/>
			<point x="857" y="0" type="line"/>
			<point x="873" y="103" type="line"/>
			<point x="723" y="160" type="line"/>
			<point x="807" y="99" type="line"/>
			<point x="848" y="362" type="line" smooth="yes"/>
			<point x="865" y="472"/>
			<point x="818" y="555"/>
			<point x="724" y="555" type="curve" smooth="yes"/>
			<point x="631" y="555"/>
			<point x="516" y="471"/>
			<point x="485" y="288" type="curve"/>
			<point x="558" y="364" type="line"/>
			<point x="560" y="379" type="line" smooth="yes"/>
			<point x="573" y="479"/>
			<point x="528" y="555"/>
			<point x="438" y="555" type="curve" smooth="yes"/>
			<point x="345" y="555"/>
			<point x="227" y="471"/>
			<point x="196" y="288" type="curve"/>
			<point x="256" y="399" type="line"/>
			<point x="293" y="544" type="line"/>
			<point x="47" y="536" type="line"/>
			<point x="31" y="436" type="line"/>
			<point x="175" y="381" type="line"/>
			<point x="95" y="436" type="line"/>
			<point x="26" y="0" type="line"/>
			<point x="219" y="0" type="line"/>
			<point x="257" y="246" type="line" smooth="yes"/>
			<point x="273" y="350"/>
			<point x="312" y="403"/>
			<point x="346" y="403" type="curve" smooth="yes"/>
			<point x="378" y="403"/>
			<point x="370" y="360"/>
			<point x="363" y="315" type="curve" smooth="yes"/>
			<point x="312" y="0" type="line"/>
			<point x="505" y="0" type="line"/>
			<point x="543" y="246" type="line" smooth="yes"/>
			<point x="559" y="350"/>
			<point x="598" y="403"/>
			<point x="632" y="403" type="curve" smooth="yes"/>
			<point x="664" y="403"/>
			<point x="656" y="360"/>
			<point x="649" y="315" type="curve" smooth="yes"/>
		</contour>
	</outline>
</glyph>
<glyph name="y" format="2">
	<advance width="569"/>
	<unicode hex="0079"/>
	<anchor x="440" y="0" name="bottom"/>
	<anchor x="309" y="540" name="top"/>
	<outline>
		<contour>
			<point x="-59" y="-236" type="line"/>
			<point x="-31" y="-242"/>
			<point x="-3" y="-245"/>
			<point x="24" y="-245" type="curve" smooth="yes"/>
			<point x="233" y="-245"/>
			<point x="327" y="-67"/>
			<point x="361" y="5" type="curve" smooth="yes"/>
			<point x="567" y="437" type="line"/>
			<point x="542" y="422" type="line"/>
			<point x="598" y="445" type="line"/>
			<point x="613" y="545" type="line"/>
			<point x="363" y="535" type="line"/>
			<point x="348" y="435" type="line"/>
			<point x="394" y="417" type="line"/>
			<point x="389" y="435" type="line"/>
			<point x="262" y="125" type="line"/>
			<point x="314" y="114" type="line"/>
			<point x="240" y="545" type="line"/>
			<point x="40" y="535" type="line"/>
			<point x="25" y="435" type="line"/>
			<point x="70" y="418" type="line"/>
			<point x="58" y="433" type="line"/>
			<point x="186" y="-35" type="line"/>
			<point x="195" y="29" type="line"/>
			<point x="141" y="-68"/>
			<point x="102" y="-101"/>
			<point x="24" y="-101" type="curve" smooth="yes"/>
			<point x="7" y="-101"/>
			<point x="-12" y="-99"/>
			<point x="-34" y="-96" type="curve"/>
		</contour>
	</outline>
</glyph>
<glyph name="braceleft" format="2">
	<advance width="374"/>
	<unicode hex="007B"/>
	<guideline x="625" y="872" angle="0"/>
	<guideline x="-521" y="-118" angle="0"/>
	<guideline x="-4" y="231" angle="261"/>
	<outline>
		<contour>
			<point x="223" y="-118" type="curve" smooth="yes"/>
			<point x="299" y="-118" type="line"/>
			<point x="318" y="2" type="line"/>
			<point x="228" y="2"/>
			<point x="216" y="21"/>
			<point x="229" y="101" type="curve" smooth="yes"/>
			<point x="248" y="220" type="line" smooth="yes"/>
			<point x="266" y="334"/>
			<point x="194" y="386"/>
			<point x="84" y="386" type="curve"/>
			<point x="92" y="368" type="line"/>
			<point x="206" y="368"/>
			<point x="279" y="412"/>
			<point x="296" y="522" type="curve" smooth="yes"/>
			<point x="314" y="641" type="line" smooth="yes"/>
			<point x="326" y="721"/>
			<point x="351" y="752"/>
			<point x="437" y="752" type="curve"/>
			<point x="456" y="872" type="line"/>
			<point x="378" y="872" type="line" smooth="yes"/>
			<point x="232" y="872"/>
			<point x="170" y="791"/>
			<point x="150" y="663" type="curve" smooth="yes"/>
			<point x="133" y="553" type="line" smooth="yes"/>
			<point x="124" y="494"/>
			<point x="102" y="442"/>
			<point x="29" y="442" type="curve"/>
			<point x="9" y="312" type="line"/>
			<point x="79" y="312"/>
			<point x="90" y="278"/>
			<point x="79" y="213" type="curve" smooth="yes"/>
			<point x="61" y="103" type="line" smooth="yes"/>
			<point x="38" y="-37"/>
			<point x="89" y="-118"/>
		</contour>
	</outline>
</glyph>
<glyph name="asciitilde" format="2">
	<advance width="569"/>
	<unicode hex="007E"/>
	<outline>
		<contour>
			<point x="384" y="257" type="curve" smooth="yes"/>
			<point x="436" y="257"/>
			<point x="488" y="285"/>
			<point x="553" y="389" type="curve"/>
			<point x="483" y="452" type="line"/>
			<point x="452" y="418"/>
			<point x="424" y="401"/>
			<point x="394" y="401" type="curve" smooth="yes"/>
			<point x="339" y="401"/>
			<point x="289" y="461"/>
			<point x="212" y="461" type="curve" smooth="yes"/>
			<point x="160" y="461"/>
			<point x="107" y="433"/>
			<point x="41" y="327" type="curve"/>
			<point x="112" y="266" type="line"/>
			<point x="145" y="301"/>
			<point x="174" y="317"/>
			<point x="203" y="317" type="curve" smooth="yes"/>
			<point x="258" y="317"/>
			<point x="306" y="257"/>
		</contour>
	</outline>
</glyph>
<glyph name="currency" format="2">
	<advance width="636"/>
	<unicode hex="00A4"/>
	<outline>
		<contour>
			<point x="582" y="113" type="line"/>
			<point x="479" y="228" type="line"/>
			<point x="471" y="143" type="line"/>
			<point x="520" y="187"/>
			<point x="550" y="253"/>
			<point x="550" y="324" type="curve" smooth="yes"/>
			<point x="550" y="374"/>
			<point x="535" y="418"/>
			<point x="507" y="450" type="curve"/>
			<point x="507" y="378" type="line"/>
			<point x="635" y="489" type="line"/>
			<point x="565" y="580" type="line"/>
			<point x="437" y="470" type="line"/>
			<point x="495" y="461" type="line"/>
			<point x="465" y="488"/>
			<point x="419" y="511"/>
			<point x="350" y="511" type="curve" smooth="yes"/>
			<point x="295" y="511"/>
			<point x="245" y="496"/>
			<point x="199" y="466" type="curve"/>
			<point x="266" y="472" type="line"/>
			<point x="167" y="584" type="line"/>
			<point x="61" y="482" type="line"/>
			<point x="156" y="377" type="line"/>
			<point x="177" y="449" type="line"/>
			<point x="127" y="398"/>
			<point x="97" y="333"/>
			<point x="97" y="264" type="curve" smooth="yes"/>
			<point x="97" y="217"/>
			<point x="111" y="175"/>
			<point x="135" y="146" type="curve"/>
			<point x="143" y="221" type="line"/>
			<point x="9" y="106" type="line"/>
			<point x="80" y="15" type="line"/>
			<point x="219" y="135" type="line"/>
			<point x="144" y="136" type="line"/>
			<point x="175" y="98"/>
			<point x="225" y="72"/>
			<point x="297" y="72" type="curve" smooth="yes"/>
			<point x="354" y="72"/>
			<point x="406" y="88"/>
			<point x="452" y="122" type="curve"/>
			<point x="380" y="122" type="line"/>
			<point x="478" y="12" type="line"/>
		</contour>
		<contour>
			<point x="305" y="188" type="curve" smooth="yes"/>
			<point x="265" y="188"/>
			<point x="248" y="212"/>
			<point x="248" y="262" type="curve" smooth="yes"/>
			<point x="248" y="323"/>
			<point x="274" y="395"/>
			<point x="343" y="395" type="curve" smooth="yes"/>
			<point x="382" y="395"/>
			<point x="398" y="372"/>
			<point x="398" y="322" type="curve" smooth="yes"/>
			<point x="398" y="260"/>
			<point x="373" y="188"/>
		</contour>
	</outline>
</glyph>
<glyph name="brokenbar" format="2">
	<advance width="288"/>
	<unicode hex="00A6"/>
	<outline>
		<contour>
			<point x="98" y="435" type="line"/>
			<point x="242" y="435" type="line"/>
			<point x="303" y="819" type="line"/>
			<point x="159" y="819" type="line"/>
		</contour>
		<contour>
			<point x="11" y="-115" type="line"/>
			<point x="155" y="-115" type="line"/>
			<point x="216" y="269" type="line"/>
			<point x="72" y="269" type="line"/>
		</contour>
	</outline>
</glyph>
<glyph name="section" format="2">
	<advance width="531"/>
	<unicode hex="00A7"/>
	<guideline x="-496" y="-170" angle="0"/>
	<outline>
		<contour>
			<point x="173" y="-185" type="curve" smooth="yes"/>
			<point x="316" y="-185"/>
			<point x="429" y="-117"/>
			<point x="429" y="2" type="curve" smooth="yes"/>
			<point x="429" y="169"/>
			<point x="206" y="183"/>
			<point x="206" y="286" type="curve" smooth="yes"/>
			<point x="206" y="332"/>
			<point x="251" y="371"/>
			<point x="303" y="371" type="curve"/>
			<point x="284" y="431" type="line"/>
			<point x="146" y="431"/>
			<point x="40" y="372"/>
			<point x="40" y="255" type="curve" smooth="yes"/>
			<point x="40" y="90"/>
			<point x="251" y="84"/>
			<point x="251" y="-2" type="curve" smooth="yes"/>
			<point x="251" y="-37"/>
			<point x="216" y="-63"/>
			<point x="170" y="-63" type="curve" smooth="yes"/>
			<point x="152" y="-63"/>
			<point x="135" y="-59"/>
			<point x="120" y="-52" type="curve"/>
			<point x="136" y="-74" type="line"/>
			<point x="134" y="0" type="line"/>
			<point x="19" y="0" type="line"/>
			<point x="-7" y="-156" type="line"/>
			<point x="53" y="-173"/>
			<point x="113" y="-185"/>
		</contour>
		<contour>
			<point x="224" y="107" type="line"/>
			<point x="370" y="107"/>
			<point x="498" y="163"/>
			<point x="498" y="283" type="curve" smooth="yes"/>
			<point x="498" y="440"/>
			<point x="281" y="456"/>
			<point x="281" y="546" type="curve" smooth="yes"/>
			<point x="281" y="582"/>
			<point x="315" y="601"/>
			<point x="358" y="601" type="curve" smooth="yes"/>
			<point x="373" y="601"/>
			<point x="389" y="599"/>
			<point x="405" y="594" type="curve"/>
			<point x="380" y="621" type="line"/>
			<point x="388" y="549" type="line"/>
			<point x="502" y="549" type="line"/>
			<point x="527" y="694" type="line"/>
			<point x="461" y="714"/>
			<point x="397" y="724"/>
			<point x="342" y="724" type="curve" smooth="yes"/>
			<point x="206" y="724"/>
			<point x="108" y="663"/>
			<point x="108" y="545" type="curve" smooth="yes"/>
			<point x="108" y="368"/>
			<point x="327" y="357"/>
			<point x="327" y="265" type="curve" smooth="yes"/>
			<point x="327" y="217"/>
			<point x="267" y="167"/>
			<point x="219" y="167" type="curve"/>
		</contour>
	</outline>
</glyph>
<glyph name="plusminus" format="2">
	<advance width="552"/>
	<unicode hex="00B1"/>
	<guideline x="-144" y="54" angle="0"/>
	<guideline x="512" y="648" angle="0"/>
	<guideline x="80" y="472" angle="261"/>
	<guideline x="236" y="472" angle="261"/>
	<guideline x="380" y="472" angle="261"/>
	<guideline x="535" y="472" angle="261"/>
	<outline>
		<contour>
			<point x="273" y="513" type="line"/>
			<point x="86" y="513" type="line"/>
			<point x="65" y="373" type="line"/>
			<point x="248" y="373" type="line"/>
			<point x="225" y="403" type="line"/>
			<point x="196" y="220" type="line"/>
			<point x="340" y="220" type="line"/>
			<point x="369" y="403" type="line"/>
			<point x="334" y="373" type="line"/>
			<point x="519" y="373" type="line"/>
			<point x="542" y="513" type="line"/>
			<point x="359" y="513" type="line"/>
			<point x="382" y="483" type="line"/>
			<point x="411" y="666" type="line"/>
			<point x="266" y="666" type="line"/>
			<point x="238" y="483" type="line"/>
		</contour>
		<contour>
			<point x="487" y="169" type="line"/>
			<point x="32" y="169" type="line"/>
			<point x="10" y="29" type="line"/>
			<point x="465" y="29" type="line"/>
		</contour>
	</outline>
</glyph>
<glyph name="Eth" format="2">
	<advance width="695"/>
	<unicode hex="00D0"/>
	<guideline x="-290" y="241" angle="90"/>
	<guideline x="25" y="233" angle="261"/>
	<guideline x="378" y="231" angle="261"/>
	<guideline x="490" y="430" angle="0"/>
	<anchor x="272" y="0" name="bottom"/>
	<anchor x="213" y="356" name="center"/>
	<anchor x="364" y="710" name="top"/>
	<outline>
		<contour>
			<point x="412" y="710" type="curve" smooth="yes"/>
			<point x="354" y="710" type="line"/>
			<point x="100" y="705" type="line"/>
			<point x="84" y="605" type="line"/>
			<point x="158" y="571" type="line"/>
			<point x="139" y="600" type="line"/>
			<point x="60" y="105" type="line"/>
			<point x="84" y="131" type="line"/>
			<point x="4" y="100" type="line"/>
			<point x="-12" y="0" type="line"/>
			<point x="277" y="0" type="line" smooth="yes"/>
			<point x="548" y="0"/>
			<point x="686" y="195"/>
			<point x="686" y="430" type="curve" smooth="yes"/>
			<point x="686" y="617"/>
			<point x="598" y="710"/>
		</contour>
		<contour>
			<point x="313" y="145" type="curve" smooth="yes"/>
			<point x="238" y="145" type="line"/>
			<point x="257" y="105" type="line"/>
			<point x="336" y="600" type="line"/>
			<point x="301" y="565" type="line"/>
			<point x="383" y="565" type="line" smooth="yes"/>
			<point x="463" y="565"/>
			<point x="478" y="515"/>
			<point x="478" y="448" type="curve" smooth="yes"/>
			<point x="478" y="360"/>
			<point x="452" y="145"/>
		</contour>
		<contour>
			<point x="35" y="294" type="line"/>
			<point x="367" y="294" type="line"/>
			<point x="387" y="426" type="line"/>
			<point x="55" y="426" type="line"/>
		</contour>
	</outline>
</glyph>
<glyph name="Thorn" format="2">
	<advance width="599"/>
	<unicode hex="00DE"/>
	<guideline x="183" y="231" angle="261"/>
	<anchor x="146" y="0" name="bottom"/>
	<anchor x="259" y="710" name="top"/>
	<outline>
		<contour>
			<point x="-12" y="0" type="line"/>
			<point x="314" y="0" type="line"/>
			<point x="330" y="100" type="line"/>
			<point x="247" y="132" type="line"/>
			<point x="257" y="105" type="line"/>
			<point x="268" y="178" type="line"/>
			<point x="250" y="156" type="line"/>
			<point x="289" y="156" type="line" smooth="yes"/>
			<point x="480" y="156"/>
			<point x="600" y="246"/>
			<point x="600" y="399" type="curve" smooth="yes"/>
			<point x="600" y="497"/>
			<point x="550" y="559"/>
			<point x="398" y="559" type="curve" smooth="yes"/>
			<point x="318" y="559" type="line"/>
			<point x="327" y="544" type="line"/>
			<point x="336" y="603" type="line"/>
			<point x="314" y="572" type="line"/>
			<point x="397" y="610" type="line"/>
			<point x="413" y="710" type="line"/>
			<point x="100" y="705" type="line"/>
			<point x="84" y="605" type="line"/>
			<point x="158" y="571" type="line"/>
			<point x="139" y="600" type="line"/>
			<point x="60" y="105" type="line"/>
			<point x="84" y="131" type="line"/>
			<point x="4" y="100" type="line"/>
		</contour>
		<contour>
			<point x="285" y="283" type="line"/>
			<point x="309" y="434" type="line"/>
			<point x="292" y="419" type="line"/>
			<point x="340" y="419" type="line" smooth="yes"/>
			<point x="393" y="419"/>
			<point x="403" y="399"/>
			<point x="403" y="372" type="curve" smooth="yes"/>
			<point x="403" y="324"/>
			<point x="373" y="296"/>
			<point x="294" y="296" type="curve" smooth="yes"/>
			<point x="273" y="296" type="line"/>
		</contour>
	</outline>
</glyph>
<glyph name="dcroat" format="2">
	<advance width="598"/>
	<unicode hex="0111"/>
	<guideline x="602" y="316" angle="261"/>
	<outline>
		<contour>
			<point x="162" y="-15" type="curve" smooth="yes"/>
			<point x="262" y="-15"/>
			<point x="379" y="82"/>
			<point x="401" y="253" type="curve"/>
			<point x="343" y="145" type="line"/>
			<point x="315" y="-7" type="line"/>
			<point x="552" y="0" type="line"/>
			<point x="568" y="103" type="line"/>
			<point x="424" y="160" type="line"/>
			<point x="491" y="33" type="line"/>
			<point x="610" y="785" type="line"/>
			<point x="361" y="774" type="line"/>
			<point x="345" y="681" type="line"/>
			<point x="481" y="629" type="line"/>
			<point x="412" y="745" type="line"/>
			<point x="378" y="531" type="line"/>
			<point x="522" y="487" type="line"/>
			<point x="459" y="535"/>
			<point x="392" y="556"/>
			<point x="328" y="556" type="curve" smooth="yes"/>
			<point x="148" y="556"/>
			<point x="10" y="393"/>
			<point x="10" y="191" type="curve" smooth="yes"/>
			<point x="10" y="46"/>
			<point x="81" y="-15"/>
		</contour>
		<contour>
			<point x="244" y="140" type="curve" smooth="yes"/>
			<point x="219" y="140"/>
			<point x="206" y="164"/>
			<point x="206" y="214" type="curve" smooth="yes"/>
			<point x="206" y="311"/>
			<point x="255" y="411"/>
			<point x="324" y="411" type="curve" smooth="yes"/>
			<point x="346" y="411"/>
			<point x="369" y="401"/>
			<point x="394" y="378" type="curve"/>
			<point x="362" y="432" type="line"/>
			<point x="341" y="303" type="line" smooth="yes"/>
			<point x="325" y="205"/>
			<point x="286" y="140"/>
		</contour>
		<contour>
			<point x="214" y="556" type="line"/>
			<point x="622" y="556" type="line"/>
			<point x="638" y="661" type="line"/>
			<point x="230" y="661" type="line"/>
		</contour>
	</outline>
</glyph>
<glyph name="hbar" format="2">
	<advance width="610"/>
	<unicode hex="0127"/>
	<guideline x="556" y="535" angle="0"/>
	<guideline x="556" y="385" angle="0"/>
	<guideline x="84" y="472" angle="261"/>
	<guideline x="20" y="472" angle="261"/>
	<outline>
		<contour>
			<point x="308" y="-6" type="line"/>
			<point x="566" y="0" type="line"/>
			<point x="583" y="103" type="line"/>
			<point x="433" y="160" type="line"/>
			<point x="517" y="99" type="line"/>
			<point x="559" y="362" type="line" smooth="yes"/>
			<point x="577" y="472"/>
			<point x="527" y="555"/>
			<point x="427" y="555" type="curve" smooth="yes"/>
			<point x="326" y="555"/>
			<point x="208" y="471"/>
			<point x="177" y="288" type="curve"/>
			<point x="252" y="399" type="line"/>
			<point x="324" y="785" type="line"/>
			<point x="68" y="776" type="line"/>
			<point x="52" y="672" type="line"/>
			<point x="138" y="646" type="line"/>
			<point x="116" y="676" type="line"/>
			<point x="9" y="0" type="line"/>
			<point x="202" y="0" type="line"/>
			<point x="240" y="246" type="line" smooth="yes"/>
			<point x="256" y="350"/>
			<point x="295" y="403"/>
			<point x="336" y="403" type="curve" smooth="yes"/>
			<point x="373" y="403"/>
			<point x="367" y="359"/>
			<point x="360" y="315" type="curve" smooth="yes"/>
		</contour>
		<contour>
			<point x="34" y="556" type="line"/>
			<point x="436" y="556" type="line"/>
			<point x="453" y="661" type="line"/>
			<point x="50" y="661" type="line"/>
		</contour>
	</outline>
</glyph>
<glyph name="kgreenlandic" format="2">
	<advance width="612"/>
	<unicode hex="0138"/>
	<guideline x="543" y="357" angle="0"/>
	<outline>
		<contour>
			<point x="26" y="0" type="line"/>
			<point x="218" y="0" type="line"/>
			<point x="257" y="245" type="line"/>
			<point x="224" y="222" type="line"/>
			<point x="322" y="222" type="line"/>
			<point x="298" y="242" type="line"/>
			<point x="363" y="0" type="line"/>
			<point x="558" y="0" type="line"/>
			<point x="574" y="100" type="line"/>
			<point x="507" y="123" type="line"/>
			<point x="528" y="99" type="line"/>
			<point x="455" y="330" type="line"/>
			<point x="443" y="283" type="line"/>
			<point x="588" y="453" type="line"/>
			<point x="534" y="424" type="line"/>
			<point x="611" y="445" type="line"/>
			<point x="627" y="545" type="line"/>
			<point x="369" y="535" type="line"/>
			<point x="353" y="435" type="line"/>
			<point x="406" y="420" type="line"/>
			<point x="396" y="439" type="line"/>
			<point x="306" y="332" type="line"/>
			<point x="358" y="352" type="line"/>
			<point x="245" y="352" type="line"/>
			<point x="270" y="328" type="line"/>
			<point x="305" y="545" type="line"/>
			<point x="47" y="537" type="line"/>
			<point x="31" y="437" type="line"/>
			<point x="175" y="382" type="line"/>
			<point x="106" y="505" type="line"/>
		</contour>
	</outline>
</glyph>
<glyph name="Lslash" format="2">
	<advance width="589"/>
	<unicode hex="0141"/>
	<guideline x="62" y="542" angle="359.2052"/>
	<guideline x="89" y="484" angle="261"/>
	<outline>
		<contour>
			<point x="19" y="321" type="line"/>
			<point x="52" y="223" type="line"/>
			<point x="490" y="417" type="line"/>
			<point x="457" y="515" type="line"/>
		</contour>
		<contour>
			<point x="449" y="245" type="line"/>
			<point x="400" y="114" type="line"/>
			<point x="431" y="145" type="line"/>
			<point x="269" y="145" type="line"/>
			<point x="288" y="105" type="line"/>
			<point x="367" y="600" type="line"/>
			<point x="345" y="572" type="line"/>
			<point x="428" y="610" type="line"/>
			<point x="444" y="710" type="line"/>
			<point x="127" y="705" type="line"/>
			<point x="111" y="605" type="line"/>
			<point x="189" y="571" type="line"/>
			<point x="170" y="600" type="line"/>
			<point x="91" y="105" type="line"/>
			<point x="115" y="131" type="line"/>
			<point x="31" y="100" type="line"/>
			<point x="15" y="0" type="line"/>
			<point x="523" y="0" type="line"/>
			<point x="565" y="245" type="line"/>
		</contour>
	</outline>
</glyph>
<glyph name="OE" format="2">
	<advance width="927"/>
	<unicode hex="0152"/>
	<guideline x="742" y="565" angle="0"/>
	<guideline x="395" y="145" angle="0"/>
	<guideline x="619" y="231" angle="261"/>
	<guideline x="521" y="231" angle="261"/>
	<anchor x="485" y="0" name="bottom"/>
	<anchor x="598" y="710" name="top"/>
	<outline>
		<contour>
			<point x="316" y="-7" type="curve" smooth="yes"/>
			<point x="365" y="-7"/>
			<point x="474" y="0"/>
			<point x="523" y="0" type="curve" smooth="yes"/>
			<point x="845" y="0" type="line"/>
			<point x="880" y="211" type="line"/>
			<point x="764" y="211" type="line"/>
			<point x="727" y="115" type="line"/>
			<point x="768" y="145" type="line"/>
			<point x="580" y="145" type="line"/>
			<point x="599" y="106" type="line"/>
			<point x="634" y="325" type="line"/>
			<point x="599" y="290" type="line"/>
			<point x="801" y="290" type="line"/>
			<point x="824" y="430" type="line"/>
			<point x="625" y="430" type="line"/>
			<point x="646" y="401" type="line"/>
			<point x="677" y="595" type="line"/>
			<point x="643" y="565" type="line"/>
			<point x="812" y="565" type="line"/>
			<point x="792" y="591" type="line"/>
			<point x="802" y="508" type="line"/>
			<point x="916" y="508" type="line"/>
			<point x="948" y="710" type="line"/>
			<point x="688" y="710" type="line" smooth="yes"/>
			<point x="654" y="710"/>
			<point x="503" y="716"/>
			<point x="450" y="716" type="curve" smooth="yes"/>
			<point x="162" y="716"/>
			<point x="39" y="531"/>
			<point x="39" y="298" type="curve" smooth="yes"/>
			<point x="39" y="88"/>
			<point x="133" y="-7"/>
		</contour>
		<contour>
			<point x="401" y="102" type="line"/>
			<point x="442" y="160" type="line"/>
			<point x="403" y="152"/>
			<point x="370" y="147"/>
			<point x="344" y="147" type="curve" smooth="yes"/>
			<point x="275" y="147"/>
			<point x="247" y="181"/>
			<point x="247" y="290" type="curve" smooth="yes"/>
			<point x="247" y="452"/>
			<point x="308" y="564"/>
			<point x="427" y="564" type="curve" smooth="yes"/>
			<point x="457" y="564"/>
			<point x="490" y="557"/>
			<point x="526" y="543" type="curve"/>
			<point x="482" y="606" type="line"/>
		</contour>
	</outline>
</glyph>
<glyph name="ohorn" format="2">
	<advance width="582"/>
	<unicode hex="01A1"/>
	<anchor x="242" y="0" name="bottom"/>
	<anchor x="277" y="540" name="top"/>
	<outline>
		<contour>
			<point x="408" y="451" type="line"/>
			<point x="543" y="450"/>
			<point x="628" y="507"/>
			<point x="628" y="614" type="curve" smooth="yes"/>
			<point x="628" y="640"/>
			<point x="623" y="669"/>
			<point x="612" y="700" type="curve"/>
			<point x="472" y="670" type="line"/>
			<point x="476" y="648"/>
			<point x="479" y="628"/>
			<point x="479" y="611" type="curve" smooth="yes"/>
			<point x="479" y="570"/>
			<point x="460" y="545"/>
			<point x="406" y="544" type="curve"/>
		</contour>
		<contour>
			<point x="328" y="555" type="curve" smooth="yes"/>
			<point x="111" y="555"/>
			<point x="14" y="384"/>
			<point x="14" y="213" type="curve" smooth="yes"/>
			<point x="14" y="49"/>
			<point x="104" y="-15"/>
			<point x="237" y="-15" type="curve" smooth="yes"/>
			<point x="455" y="-15"/>
			<point x="552" y="156"/>
			<point x="552" y="326" type="curve" smooth="yes"/>
			<point x="552" y="493"/>
			<point x="459" y="555"/>
		</contour>
		<contour>
			<point x="308" y="415" type="curve" smooth="yes"/>
			<point x="344" y="415"/>
			<point x="356" y="391"/>
			<point x="356" y="335" type="curve" smooth="yes"/>
			<point x="356" y="273"/>
			<point x="341" y="125"/>
			<point x="257" y="125" type="curve" smooth="yes"/>
			<point x="220" y="125"/>
			<point x="210" y="153"/>
			<point x="210" y="210" type="curve" smooth="yes"/>
			<point x="210" y="276"/>
			<point x="223" y="415"/>
		</contour>
	</outline>
</glyph>
<glyph name="Uhorn" format="2">
	<advance width="741"/>
	<unicode hex="01AF"/>
	<anchor x="317" y="0" name="bottom"/>
	<anchor x="430" y="710" name="top"/>
	<outline>
		<contour>
			<point x="314" y="-15" type="curve" smooth="yes"/>
			<point x="597" y="-15"/>
			<point x="632" y="195"/>
			<point x="645" y="279" type="curve" smooth="yes"/>
			<point x="699" y="625" type="line"/>
			<point x="622" y="607" type="line"/>
			<point x="753" y="615"/>
			<point x="828" y="669"/>
			<point x="828" y="773" type="curve" smooth="yes"/>
			<point x="828" y="801"/>
			<point x="822" y="832"/>
			<point x="811" y="867" type="curve"/>
			<point x="670" y="837" type="line"/>
			<point x="675" y="817"/>
			<point x="678" y="798"/>
			<point x="678" y="781" type="curve" smooth="yes"/>
			<point x="678" y="711"/>
			<point x="625" y="708"/>
			<point x="604" y="708" type="curve" smooth="yes"/>
			<point x="459" y="705" type="line"/>
			<point x="443" y="605" type="line"/>
			<point x="517" y="571" type="line"/>
			<point x="498" y="600" type="line"/>
			<point x="449" y="291" type="line" smooth="yes"/>
			<point x="439" y="228"/>
			<point x="424" y="140"/>
			<point x="325" y="140" type="curve" smooth="yes"/>
			<point x="278" y="140"/>
			<point x="261" y="160"/>
			<point x="261" y="204" type="curve" smooth="yes"/>
			<point x="261" y="225"/>
			<point x="265" y="251"/>
			<point x="267" y="264" type="curve" smooth="yes"/>
			<point x="320" y="600" type="line"/>
			<point x="298" y="572" type="line"/>
			<point x="375" y="610" type="line"/>
			<point x="391" y="710" type="line"/>
			<point x="84" y="705" type="line"/>
			<point x="68" y="605" type="line"/>
			<point x="139" y="573" type="line"/>
			<point x="123" y="600" type="line"/>
			<point x="71" y="276" type="line" smooth="yes"/>
			<point x="69" y="263"/>
			<point x="64" y="235"/>
			<point x="64" y="200" type="curve" smooth="yes"/>
			<point x="64" y="53"/>
			<point x="153" y="-15"/>
		</contour>
	</outline>
</glyph>
<glyph name="ringhalfright" format="2">
	<advance width="218"/>
	<unicode hex="02BE"/>
	<guideline x="124" y="868" angle="261"/>
	<guideline x="284" y="868" angle="261"/>
	<guideline x="204" y="868" angle="261"/>
	<anchor x="152" y="540" name="_top"/>
	<outline>
		<contour>
			<point x="85" y="591" type="line"/>
			<point x="204" y="591"/>
			<point x="264" y="673"/>
			<point x="264" y="757" type="curve" smooth="yes"/>
			<point x="264" y="828"/>
			<point x="223" y="886"/>
			<point x="128" y="886" type="curve"/>
			<point x="117" y="798" type="line"/>
			<point x="144" y="798"/>
			<point x="154" y="782"/>
			<point x="154" y="754" type="curve" smooth="yes"/>
			<point x="154" y="718"/>
			<point x="137" y="679"/>
			<point x="96" y="679" type="curve"/>
		</contour>
	</outline>
</glyph>
<glyph name="circumflex" format="2">
	<advance width="472"/>
	<unicode hex="02C6"/>
	<guideline x="501" y="864" angle="0"/>
	<guideline x="202" y="611" angle="0"/>
	<guideline x="266" y="468" angle="261"/>
	<outline>
		<contour>
			<point x="152" y="611" type="line"/>
			<point x="377" y="754" type="line"/>
			<point x="242" y="756" type="line"/>
			<point x="433" y="611" type="line"/>
			<point x="504" y="682" type="line"/>
			<point x="373" y="850" type="line"/>
			<point x="264" y="839" type="line"/>
			<point x="100" y="682" type="line"/>
		</contour>
	</outline>
</glyph>
<glyph name="ogonek" format="2">
	<advance width="282"/>
	<unicode hex="02DB"/>
	<guideline x="-116" y="220" angle="90"/>
	<guideline x="182" y="-228" angle="0"/>
	<outline>
		<contour>
			<point x="76" y="-228" type="curve" smooth="yes"/>
			<point x="107" y="-228"/>
			<point x="144" y="-222"/>
			<point x="187" y="-208" type="curve"/>
			<point x="194" y="-99" type="line"/>
			<point x="181" y="-101"/>
			<point x="167" y="-103"/>
			<point x="154" y="-103" type="curve" smooth="yes"/>
			<point x="126" y="-103"/>
			<point x="104" y="-95"/>
			<point x="104" y="-72" type="curve" smooth="yes"/>
			<point x="104" y="-38"/>
			<point x="153" y="-11"/>
			<point x="229" y="0" type="curve"/>
			<point x="208" y="66" type="line"/>
			<point x="39" y="35"/>
			<point x="-42" y="-62"/>
			<point x="-42" y="-136" type="curve" smooth="yes"/>
			<point x="-42" y="-187"/>
			<point x="-2" y="-228"/>
		</contour>
	</outline>
</glyph>
<glyph name="hungarumlaut" format="2">
	<advance width="452"/>
	<unicode hex="02DD"/>
	<guideline x="552" y="872" angle="0"/>
	<guideline x="253" y="592" angle="0"/>
	<outline>
		<contour>
			<point x="372" y="591" type="line"/>
			<point x="503" y="810" type="line"/>
			<point x="376" y="871" type="line"/>
			<point x="277" y="635" type="line"/>
		</contour>
		<contour>
			<point x="183" y="591" type="line"/>
			<point x="305" y="815" type="line"/>
			<point x="177" y="871" type="line"/>
			<point x="86" y="633" type="line"/>
		</contour>
	</outline>
</glyph>
<glyph name="acutecomb" format="2">
	<advance width="385"/>
	<unicode hex="0301"/>
	<guideline x="474" y="827" angle="0"/>
	<guideline x="259" y="633" angle="0"/>
	<guideline x="515" y="868" angle="0"/>
	<guideline x="218" y="592" angle="0"/>
	<guideline x="182" y="533" angle="261"/>
	<anchor x="183" y="540" name="_top"/>
	<anchor x="221" y="780" name="top"/>
	<outline>
		<contour>
			<point x="134" y="592" type="line"/>
			<point x="396" y="734" type="line"/>
			<point x="306" y="868" type="line"/>
			<point x="66" y="688" type="line"/>
		</contour>
	</outline>
</glyph>
<glyph name="dotaccentcomb" format="2">
	<advance width="276"/>
	<unicode hex="0307"/>
	<guideline x="195" y="627" angle="261"/>
	<guideline x="478" y="827" angle="0"/>
	<guideline x="263" y="633" angle="0"/>
	<guideline x="537" y="864" angle="0"/>
	<guideline x="238" y="592" angle="0"/>
	<guideline x="391" y="627" angle="261"/>
	<guideline x="581" y="627" angle="261"/>
	<guideline x="295" y="627" angle="261"/>
	<guideline x="95" y="627" angle="261"/>
	<anchor x="207" y="702" name="_center"/>
	<anchor x="181" y="540" name="_top"/>
	<anchor x="219" y="780" name="top"/>
	<outline>
		<contour>
			<point x="194" y="592" type="curve" smooth="yes"/>
			<point x="263" y="592"/>
			<point x="312" y="642"/>
			<point x="312" y="712" type="curve" smooth="yes"/>
			<point x="312" y="773"/>
			<point x="275" y="809"/>
			<point x="216" y="809" type="curve" smooth="yes"/>
			<point x="148" y="809"/>
			<point x="98" y="760"/>
			<point x="98" y="689" type="curve" smooth="yes"/>
			<point x="98" y="630"/>
			<point x="133" y="592"/>
		</contour>
	</outline>
</glyph>
<glyph name="horncomb" format="2">
	<advance width="249"/>
	<unicode hex="031B"/>
	<anchor x="150" y="540" name="_topright"/>
	<anchor x="150" y="540" name="topright"/>
	<outline>
		<contour>
			<point x="62" y="451" type="line"/>
			<point x="195" y="450"/>
			<point x="274" y="502"/>
			<point x="274" y="606" type="curve" smooth="yes"/>
			<point x="274" y="633"/>
			<point x="268" y="664"/>
			<point x="257" y="698" type="curve"/>
			<point x="121" y="672" type="line"/>
			<point x="125" y="653"/>
			<point x="128" y="635"/>
			<point x="128" y="618" type="curve" smooth="yes"/>
			<point x="128" y="573"/>
			<point x="110" y="541"/>
			<point x="59" y="540" type="curve"/>
		</contour>
	</outline>
</glyph>
<glyph name="commaaccentcomb" format="2">
	<advance width="255"/>
	<unicode hex="0326"/>
	<guideline x="-701" y="-257" angle="0"/>
	<guideline x="-467" y="-45" angle="0"/>
	<guideline x="-582" y="-366" angle="0"/>
	<guideline x="88" y="-45" angle="261"/>
	<anchor x="94" y="0" name="_bottom"/>
	<anchor x="41" y="-340" name="bottom"/>
	<outline>
		<contour>
			<point x="-3" y="-366" type="line"/>
			<point x="125" y="-256"/>
			<point x="160" y="-188"/>
			<point x="160" y="-133" type="curve" smooth="yes"/>
			<point x="160" y="-72"/>
			<point x="118" y="-45"/>
			<point x="75" y="-45" type="curve" smooth="yes"/>
			<point x="28" y="-45"/>
			<point x="-20" y="-77"/>
			<point x="-20" y="-140" type="curve" smooth="yes"/>
			<point x="-20" y="-178"/>
			<point x="-2" y="-199"/>
			<point x="-2" y="-221" type="curve" smooth="yes"/>
			<point x="-2" y="-244"/>
			<point x="-22" y="-262"/>
			<point x="-63" y="-314" type="curve"/>
		</contour>
	</outline>
</glyph>
<glyph name="strokeshortcomb" format="2">
	<advance width="476"/>
	<unicode hex="0335"/>
	<guideline x="58" y="491" angle="261"/>
	<guideline x="480" y="491" angle="261"/>
	<guideline x="269" y="491" angle="261"/>
	<anchor x="238" y="298" name="_center"/>
	<outline>
		<contour>
			<point x="22" y="243" type="line"/>
			<point x="437" y="243" type="line"/>
			<point x="454" y="353" type="line"/>
			<point x="39" y="353" type="line"/>
		</contour>
	</outline>
</glyph>
<glyph name="Pi" format="2">
	<advance width="765"/>
	<unicode hex="03A0"/>
	<outline>
		<contour>
			<point x="590" y="-15" type="curve" smooth="yes"/>
			<point x="625" y="-15"/>
			<point x="666" y="-8"/>
			<point x="711" y="7" type="curve"/>
			<point x="707" y="135" type="line"/>
			<point x="696" y="133"/>
			<point x="687" y="132"/>
			<point x="679" y="132" type="curve" smooth="yes"/>
			<point x="641" y="132"/>
			<point x="641" y="158"/>
			<point x="650" y="215" type="curve" smooth="yes"/>
			<point x="710" y="599" type="line"/>
			<point x="690" y="573" type="line"/>
			<point x="772" y="610" type="line"/>
			<point x="788" y="710" type="line"/>
			<point x="349" y="710" type="line"/>
			<point x="97" y="705" type="line"/>
			<point x="82" y="605" type="line"/>
			<point x="158" y="570" type="line"/>
			<point x="136" y="597" type="line"/>
			<point x="58" y="105" type="line"/>
			<point x="83" y="132" type="line"/>
			<point x="2" y="100" type="line"/>
			<point x="-14" y="0" type="line"/>
			<point x="298" y="0" type="line"/>
			<point x="313" y="100" type="line"/>
			<point x="244" y="132" type="line"/>
			<point x="255" y="105" type="line"/>
			<point x="332" y="595" type="line"/>
			<point x="297" y="565" type="line"/>
			<point x="537" y="565" type="line"/>
			<point x="513" y="598" type="line"/>
			<point x="447" y="181" type="line" smooth="yes"/>
			<point x="427" y="53"/>
			<point x="481" y="-15"/>
		</contour>
	</outline>
</glyph>
<glyph name="Dje-cy" format="2">
	<advance width="781"/>
	<unicode hex="0402"/>
	<outline>
		<contour>
			<point x="495" y="-13" type="curve" smooth="yes"/>
			<point x="662" y="-13"/>
			<point x="757" y="99"/>
			<point x="757" y="243" type="curve" smooth="yes"/>
			<point x="757" y="380"/>
			<point x="672" y="426"/>
			<point x="562" y="426" type="curve" smooth="yes"/>
			<point x="511" y="426"/>
			<point x="456" y="416"/>
			<point x="402" y="397" type="curve"/>
			<point x="433" y="375" type="line"/>
			<point x="466" y="595" type="line"/>
			<point x="423" y="565" type="line"/>
			<point x="565" y="565" type="line"/>
			<point x="523" y="595" type="line"/>
			<point x="534" y="477" type="line"/>
			<point x="649" y="477" type="line"/>
			<point x="686" y="710" type="line"/>
			<point x="89" y="710" type="line"/>
			<point x="52" y="477" type="line"/>
			<point x="168" y="477" type="line"/>
			<point x="217" y="603" type="line"/>
			<point x="171" y="565" type="line"/>
			<point x="303" y="565" type="line"/>
			<point x="269" y="595" type="line"/>
			<point x="191" y="85" type="line"/>
			<point x="232" y="135" type="line"/>
			<point x="124" y="100" type="line"/>
			<point x="109" y="0" type="line"/>
			<point x="373" y="0" type="line"/>
			<point x="418" y="293" type="line"/>
			<point x="386" y="255" type="line"/>
			<point x="415" y="269"/>
			<point x="455" y="280"/>
			<point x="490" y="280" type="curve" smooth="yes"/>
			<point x="530" y="280"/>
			<point x="558" y="265"/>
			<point x="558" y="216" type="curve" smooth="yes"/>
			<point x="558" y="165"/>
			<point x="527" y="128"/>
			<point x="469" y="128" type="curve" smooth="yes"/>
			<point x="459" y="128"/>
			<point x="452" y="129"/>
			<point x="443" y="130" type="curve"/>
			<point x="411" y="-5" type="line"/>
			<point x="440" y="-10"/>
			<point x="468" y="-13"/>
		</contour>
	</outline>
</glyph>
<glyph name="Ef-cy" format="2">
	<advance width="782"/>
	<unicode hex="0424"/>
	<guideline x="745" y="762" angle="0"/>
	<outline>
		<contour>
			<point x="594" y="671" type="line"/>
			<point x="609" y="766" type="line"/>
			<point x="331" y="761" type="line"/>
			<point x="316" y="666" type="line"/>
			<point x="391" y="637" type="line"/>
			<point x="372" y="656" type="line"/>
			<point x="282" y="85" type="line"/>
			<point x="302" y="103" type="line"/>
			<point x="223" y="75" type="line"/>
			<point x="207" y="-20" type="line"/>
			<point x="485" y="-20" type="line"/>
			<point x="500" y="75" type="line"/>
			<point x="430" y="104" type="line"/>
			<point x="444" y="85" type="line"/>
			<point x="534" y="656" type="line"/>
			<point x="512" y="638" type="line"/>
		</contour>
		<contour>
			<point x="348" y="110" type="curve" smooth="yes"/>
			<point x="606" y="110"/>
			<point x="784" y="203"/>
			<point x="784" y="406" type="curve" smooth="yes"/>
			<point x="784" y="553"/>
			<point x="691" y="631"/>
			<point x="453" y="631" type="curve" smooth="yes"/>
			<point x="201" y="631"/>
			<point x="32" y="543"/>
			<point x="32" y="334" type="curve" smooth="yes"/>
			<point x="32" y="183"/>
			<point x="120" y="110"/>
		</contour>
		<contour>
			<point x="361" y="220" type="curve" smooth="yes"/>
			<point x="260" y="220"/>
			<point x="231" y="249"/>
			<point x="231" y="332" type="curve" smooth="yes"/>
			<point x="231" y="457"/>
			<point x="296" y="521"/>
			<point x="456" y="521" type="curve" smooth="yes"/>
			<point x="554" y="521"/>
			<point x="585" y="497"/>
			<point x="585" y="413" type="curve" smooth="yes"/>
			<point x="585" y="290"/>
			<point x="518" y="220"/>
		</contour>
	</outline>
</glyph>
<glyph name="Che-cy" format="2">
	<advance width="708"/>
	<unicode hex="0427"/>
	<guideline x="7" y="231" angle="261"/>
	<guideline x="62" y="231" angle="261"/>
	<anchor x="636" y="0" name="bottomright"/>
	<anchor x="416" y="710" name="top"/>
	<outline>
		<contour>
			<point x="445" y="289" type="curve"/>
			<point x="427" y="301" type="line"/>
			<point x="395" y="95" type="line"/>
			<point x="426" y="134" type="line"/>
			<point x="321" y="100" type="line"/>
			<point x="306" y="0" type="line"/>
			<point x="636" y="0" type="line"/>
			<point x="652" y="100" type="line"/>
			<point x="580" y="133" type="line"/>
			<point x="592" y="95" type="line"/>
			<point x="673" y="608" type="line"/>
			<point x="647" y="570" type="line"/>
			<point x="733" y="610" type="line"/>
			<point x="749" y="710" type="line"/>
			<point x="436" y="705" type="line"/>
			<point x="420" y="605" type="line"/>
			<point x="498" y="569" type="line"/>
			<point x="476" y="610" type="line"/>
			<point x="444" y="399" type="line"/>
			<point x="465" y="422" type="line"/>
			<point x="425" y="405"/>
			<point x="386" y="396"/>
			<point x="359" y="396" type="curve" smooth="yes"/>
			<point x="311" y="396"/>
			<point x="291" y="425"/>
			<point x="300" y="486" type="curve" smooth="yes"/>
			<point x="319" y="611" type="line"/>
			<point x="287" y="569" type="line"/>
			<point x="372" y="610" type="line"/>
			<point x="387" y="710" type="line"/>
			<point x="81" y="705" type="line"/>
			<point x="66" y="605" type="line"/>
			<point x="149" y="569" type="line"/>
			<point x="122" y="610" type="line"/>
			<point x="97" y="450" type="line" smooth="yes"/>
			<point x="77" y="321"/>
			<point x="154" y="248"/>
			<point x="275" y="248" type="curve" smooth="yes"/>
			<point x="328" y="248"/>
			<point x="387" y="262"/>
		</contour>
	</outline>
</glyph>
<glyph name="Hardsign-cy" format="2">
	<advance width="752"/>
	<unicode hex="042A"/>
	<outline>
		<contour>
			<point x="110" y="0" type="line"/>
			<point x="404" y="0" type="line" smooth="yes"/>
			<point x="604" y="0"/>
			<point x="732" y="85"/>
			<point x="732" y="272" type="curve" smooth="yes"/>
			<point x="732" y="382"/>
			<point x="661" y="447"/>
			<point x="512" y="447" type="curve" smooth="yes"/>
			<point x="410" y="447" type="line"/>
			<point x="438" y="412" type="line"/>
			<point x="470" y="611" type="line"/>
			<point x="438" y="569" type="line"/>
			<point x="532" y="610" type="line"/>
			<point x="548" y="710" type="line"/>
			<point x="89" y="710" type="line"/>
			<point x="52" y="477" type="line"/>
			<point x="167" y="477" type="line"/>
			<point x="216" y="603" type="line"/>
			<point x="170" y="565" type="line"/>
			<point x="301" y="565" type="line"/>
			<point x="270" y="595" type="line"/>
			<point x="192" y="105" type="line"/>
			<point x="216" y="131" type="line"/>
			<point x="126" y="100" type="line"/>
		</contour>
		<contour>
			<point x="389" y="105" type="line"/>
			<point x="427" y="342" type="line"/>
			<point x="390" y="312" type="line"/>
			<point x="467" y="312" type="line" smooth="yes"/>
			<point x="508" y="312"/>
			<point x="527" y="294"/>
			<point x="527" y="252" type="curve" smooth="yes"/>
			<point x="527" y="189"/>
			<point x="495" y="145"/>
			<point x="428" y="145" type="curve" smooth="yes"/>
			<point x="356" y="145" type="line"/>
		</contour>
	</outline>
</glyph>
<glyph name="Softsign-cy" format="2">
	<advance width="617"/>
	<unicode hex="042C"/>
	<outline>
		<contour>
			<point x="-15" y="0" type="line"/>
			<point x="269" y="0" type="line" smooth="yes"/>
			<point x="469" y="0"/>
			<point x="597" y="85"/>
			<point x="597" y="272" type="curve" smooth="yes"/>
			<point x="597" y="382"/>
			<point x="526" y="447"/>
			<point x="377" y="447" type="curve" smooth="yes"/>
			<point x="275" y="447" type="line"/>
			<point x="303" y="412" type="line"/>
			<point x="332" y="595" type="line"/>
			<point x="297" y="569" type="line"/>
			<point x="391" y="610" type="line"/>
			<point x="406" y="710" type="line"/>
			<point x="97" y="705" type="line"/>
			<point x="81" y="605" type="line"/>
			<point x="155" y="570" type="line"/>
			<point x="136" y="600" type="line"/>
			<point x="57" y="105" type="line"/>
			<point x="81" y="131" type="line"/>
			<point x="1" y="100" type="line"/>
		</contour>
		<contour>
			<point x="254" y="105" type="line"/>
			<point x="292" y="342" type="line"/>
			<point x="255" y="312" type="line"/>
			<point x="332" y="312" type="line" smooth="yes"/>
			<point x="373" y="312"/>
			<point x="392" y="294"/>
			<point x="392" y="252" type="curve" smooth="yes"/>
			<point x="392" y="189"/>
			<point x="360" y="145"/>
			<point x="293" y="145" type="curve" smooth="yes"/>
			<point x="221" y="145" type="line"/>
		</contour>
	</outline>
</glyph>
<glyph name="be-cy" format="2">
	<advance width="597"/>
	<unicode hex="0431"/>
	<outline>
		<contour>
			<point x="261" y="-14" type="curve" smooth="yes"/>
			<point x="485" y="-14"/>
			<point x="586" y="176"/>
			<point x="586" y="335" type="curve" smooth="yes"/>
			<point x="586" y="467"/>
			<point x="513" y="532"/>
			<point x="415" y="532" type="curve" smooth="yes"/>
			<point x="355" y="532"/>
			<point x="287" y="508"/>
			<point x="220" y="462" type="curve"/>
			<point x="211" y="338" type="line"/>
			<point x="248" y="369"/>
			<point x="289" y="385"/>
			<point x="322" y="385" type="curve" smooth="yes"/>
			<point x="356" y="385"/>
			<point x="381" y="368"/>
			<point x="381" y="309" type="curve" smooth="yes"/>
			<point x="381" y="252"/>
			<point x="358" y="144"/>
			<point x="283" y="144" type="curve" smooth="yes"/>
			<point x="241" y="144"/>
			<point x="230" y="178"/>
			<point x="230" y="235" type="curve" smooth="yes"/>
			<point x="230" y="328"/>
			<point x="232" y="514"/>
			<point x="347" y="571" type="curve" smooth="yes"/>
			<point x="417" y="605"/>
			<point x="519" y="586"/>
			<point x="704" y="665" type="curve"/>
			<point x="649" y="555" type="line"/>
			<point x="574" y="918" type="line"/>
			<point x="690" y="847" type="line"/>
			<point x="576" y="803"/>
			<point x="424" y="778"/>
			<point x="354" y="757" type="curve" smooth="yes"/>
			<point x="147" y="694"/>
			<point x="28" y="461"/>
			<point x="28" y="248" type="curve" smooth="yes"/>
			<point x="28" y="46"/>
			<point x="135" y="-14"/>
		</contour>
	</outline>
</glyph>
<glyph name="che-cy" format="2">
	<advance width="613"/>
	<unicode hex="0447"/>
	<guideline x="579" y="480" angle="261"/>
	<guideline x="386" y="480" angle="261"/>
	<guideline x="281" y="480" angle="261"/>
	<guideline x="89" y="480" angle="261"/>
	<anchor x="570" y="0" name="bottomright"/>
	<anchor x="294" y="240" name="center"/>
	<anchor x="341" y="540" name="top"/>
	<outline>
		<contour>
			<point x="309" y="-6" type="line"/>
			<point x="570" y="0" type="line"/>
			<point x="586" y="99" type="line"/>
			<point x="498" y="133" type="line"/>
			<point x="519" y="100" type="line"/>
			<point x="589" y="540" type="line"/>
			<point x="395" y="540" type="line"/>
			<point x="372" y="389" type="line" smooth="yes"/>
			<point x="364" y="336"/>
			<point x="321" y="311"/>
			<point x="289" y="311" type="curve" smooth="yes"/>
			<point x="257" y="311"/>
			<point x="258" y="337"/>
			<point x="261" y="357" type="curve" smooth="yes"/>
			<point x="291" y="544" type="line"/>
			<point x="45" y="536" type="line"/>
			<point x="30" y="436" type="line"/>
			<point x="123" y="393" type="line"/>
			<point x="82" y="441" type="line"/>
			<point x="60" y="293" type="line" smooth="yes"/>
			<point x="49" y="217"/>
			<point x="92" y="159"/>
			<point x="191" y="159" type="curve" smooth="yes"/>
			<point x="293" y="159"/>
			<point x="418" y="225"/>
			<point x="449" y="369" type="curve"/>
			<point x="364" y="268" type="line"/>
		</contour>
	</outline>
</glyph>
<glyph name="ereversed-cy" format="2">
	<advance width="498"/>
	<unicode hex="044D"/>
	<anchor x="277" y="540" name="top"/>
	<outline>
		<contour>
			<point x="-16" y="57" type="line"/>
			<point x="45" y="7"/>
			<point x="113" y="-15"/>
			<point x="180" y="-15" type="curve" smooth="yes"/>
			<point x="350" y="-15"/>
			<point x="486" y="126"/>
			<point x="486" y="317" type="curve" smooth="yes"/>
			<point x="486" y="468"/>
			<point x="402" y="555"/>
			<point x="246" y="555" type="curve" smooth="yes"/>
			<point x="193" y="555"/>
			<point x="128" y="545"/>
			<point x="57" y="522" type="curve"/>
			<point x="42" y="368" type="line"/>
			<point x="167" y="368" type="line"/>
			<point x="187" y="422" type="line"/>
			<point x="168" y="408" type="line"/>
			<point x="184" y="412"/>
			<point x="199" y="415"/>
			<point x="214" y="415" type="curve" smooth="yes"/>
			<point x="264" y="415"/>
			<point x="287" y="383"/>
			<point x="287" y="304" type="curve" smooth="yes"/>
			<point x="287" y="209"/>
			<point x="254" y="124"/>
			<point x="176" y="124" type="curve" smooth="yes"/>
			<point x="144" y="124"/>
			<point x="105" y="138"/>
			<point x="56" y="169" type="curve"/>
		</contour>
		<contour>
			<point x="123" y="215" type="line"/>
			<point x="373" y="215" type="line"/>
			<point x="391" y="330" type="line"/>
			<point x="144" y="330" type="line"/>
		</contour>
	</outline>
</glyph>
<glyph name="iu-cy" format="2">
	<advance width="868"/>
	<unicode hex="044E"/>
	<outline>
		<contour>
			<point x="227" y="349" type="line"/>
			<point x="202" y="208" type="line"/>
			<point x="416" y="208" type="line"/>
			<point x="439" y="349" type="line"/>
		</contour>
		<contour>
			<point x="636" y="555" type="curve" smooth="yes"/>
			<point x="413" y="555"/>
			<point x="315" y="377"/>
			<point x="315" y="207" type="curve" smooth="yes"/>
			<point x="315" y="46"/>
			<point x="403" y="-15"/>
			<point x="534" y="-15" type="curve" smooth="yes"/>
			<point x="755" y="-15"/>
			<point x="855" y="160"/>
			<point x="855" y="332" type="curve" smooth="yes"/>
			<point x="855" y="496"/>
			<point x="764" y="555"/>
		</contour>
		<contour>
			<point x="612" y="415" type="curve" smooth="yes"/>
			<point x="647" y="415"/>
			<point x="659" y="390"/>
			<point x="659" y="336" type="curve" smooth="yes"/>
			<point x="659" y="279"/>
			<point x="643" y="125"/>
			<point x="556" y="125" type="curve" smooth="yes"/>
			<point x="521" y="125"/>
			<point x="511" y="150"/>
			<point x="511" y="203" type="curve" smooth="yes"/>
			<point x="511" y="263"/>
			<point x="524" y="415"/>
		</contour>
		<contour>
			<point x="23" y="-6" type="line"/>
			<point x="216" y="-2" type="line"/>
			<point x="302" y="544" type="line"/>
			<point x="45" y="536" type="line"/>
			<point x="29" y="436" type="line"/>
			<point x="173" y="381" type="line"/>
			<point x="104" y="504" type="line"/>
		</contour>
	</outline>
</glyph>
<glyph name="ia-cy" format="2">
	<advance width="567"/>
	<unicode hex="044F"/>
	<outline>
		<contour>
			<point x="252" y="170" type="curve" smooth="yes"/>
			<point x="273" y="170"/>
			<point x="293" y="172"/>
			<point x="314" y="176" type="curve"/>
			<point x="332" y="311" type="line"/>
			<point x="317" y="304"/>
			<point x="301" y="301"/>
			<point x="287" y="301" type="curve" smooth="yes"/>
			<point x="257" y="301"/>
			<point x="234" y="315"/>
			<point x="234" y="348" type="curve" smooth="yes"/>
			<point x="234" y="386"/>
			<point x="266" y="414"/>
			<point x="309" y="414" type="curve" smooth="yes"/>
			<point x="327" y="414"/>
			<point x="346" y="409"/>
			<point x="365" y="398" type="curve"/>
			<point x="539" y="516" type="line"/>
			<point x="463" y="541"/>
			<point x="387" y="555"/>
			<point x="320" y="555" type="curve" smooth="yes"/>
			<point x="165" y="555"/>
			<point x="49" y="478"/>
			<point x="49" y="343" type="curve" smooth="yes"/>
			<point x="49" y="222"/>
			<point x="142" y="170"/>
		</contour>
		<contour>
			<point x="-30" y="0" type="line"/>
			<point x="172" y="0" type="line"/>
			<point x="219" y="97"/>
			<point x="249" y="170"/>
			<point x="255" y="212" type="curve"/>
			<point x="125" y="244" type="line"/>
			<point x="95" y="189"/>
			<point x="57" y="138"/>
			<point x="15" y="96" type="curve"/>
			<point x="57" y="123" type="line"/>
			<point x="-14" y="100" type="line"/>
		</contour>
		<contour>
			<point x="265" y="-6" type="line"/>
			<point x="523" y="0" type="line"/>
			<point x="539" y="100" type="line"/>
			<point x="395" y="157" type="line"/>
			<point x="463" y="30" type="line"/>
			<point x="539" y="516" type="line"/>
			<point x="346" y="495" type="line"/>
		</contour>
	</outline>
</glyph>
<glyph name="e-cy" format="2">
	<advance width="493"/>
	<unicode hex="0454"/>
	<outline>
		<contour>
			<point x="371" y="330" type="line"/>
			<point x="121" y="330" type="line"/>
			<point x="103" y="215" type="line"/>
			<point x="350" y="215" type="line"/>
		</contour>
		<contour>
			<point x="239" y="-15" type="curve" smooth="yes"/>
			<point x="305" y="-15"/>
			<point x="377" y="6"/>
			<point x="447" y="49" type="curve"/>
			<point x="395" y="165" type="line"/>
			<point x="352" y="143"/>
			<point x="314" y="129"/>
			<point x="284" y="129" type="curve" smooth="yes"/>
			<point x="237" y="129"/>
			<point x="209" y="158"/>
			<point x="209" y="236" type="curve" smooth="yes"/>
			<point x="209" y="325"/>
			<point x="245" y="416"/>
			<point x="317" y="416" type="curve" smooth="yes"/>
			<point x="332" y="416"/>
			<point x="349" y="412"/>
			<point x="368" y="402" type="curve"/>
			<point x="350" y="419" type="line"/>
			<point x="357" y="368" type="line"/>
			<point x="482" y="368" type="line"/>
			<point x="507" y="514" type="line"/>
			<point x="450" y="542"/>
			<point x="392" y="555"/>
			<point x="337" y="555" type="curve" smooth="yes"/>
			<point x="158" y="555"/>
			<point x="13" y="423"/>
			<point x="13" y="225" type="curve" smooth="yes"/>
			<point x="13" y="63"/>
			<point x="111" y="-15"/>
		</contour>
	</outline>
</glyph>
<glyph name="lje-cy" format="2">
	<advance width="808"/>
	<unicode hex="0459"/>
	<outline>
		<contour>
			<point x="517" y="208" type="curve" smooth="yes"/>
			<point x="565" y="540" type="line"/>
			<point x="120" y="540" type="line"/>
			<point x="104" y="440" type="line"/>
			<point x="203" y="397" type="line"/>
			<point x="163" y="462" type="line"/>
			<point x="129" y="293"/>
			<point x="115" y="156"/>
			<point x="18" y="156" type="curve" smooth="yes"/>
			<point x="-1" y="156"/>
			<point x="-23" y="161"/>
			<point x="-48" y="171" type="curve"/>
			<point x="2" y="192" type="line"/>
			<point x="-54" y="-41" type="line"/>
			<point x="-79" y="16" type="line"/>
			<point x="-27" y="-5"/>
			<point x="17" y="-15"/>
			<point x="56" y="-15" type="curve" smooth="yes"/>
			<point x="206" y="-15"/>
			<point x="251" y="155"/>
			<point x="306" y="442" type="curve"/>
			<point x="243" y="395" type="line"/>
			<point x="384" y="395" type="line"/>
			<point x="367" y="451" type="line"/>
			<point x="333" y="223" type="line" smooth="yes"/>
			<point x="305" y="33"/>
			<point x="447" y="-15"/>
			<point x="545" y="-15" type="curve" smooth="yes"/>
			<point x="681" y="-15"/>
			<point x="789" y="77"/>
			<point x="789" y="211" type="curve" smooth="yes"/>
			<point x="789" y="322"/>
			<point x="714" y="376"/>
			<point x="620" y="376" type="curve" smooth="yes"/>
			<point x="576" y="376"/>
			<point x="540" y="364"/>
			<point x="495" y="342" type="curve"/>
			<point x="493" y="222" type="line"/>
			<point x="510" y="240"/>
			<point x="542" y="250"/>
			<point x="564" y="250" type="curve" smooth="yes"/>
			<point x="587" y="250"/>
			<point x="611" y="239"/>
			<point x="611" y="200" type="curve" smooth="yes"/>
			<point x="611" y="163"/>
			<point x="590" y="120"/>
			<point x="554" y="120" type="curve" smooth="yes"/>
			<point x="536" y="120"/>
			<point x="506" y="131"/>
		</contour>
	</outline>
</glyph>
<glyph name="nje-cy" format="2">
	<advance width="841"/>
	<unicode hex="045A"/>
	<outline>
		<contour>
			<point x="577" y="-15" type="curve" smooth="yes"/>
			<point x="714" y="-15"/>
			<point x="822" y="77"/>
			<point x="822" y="211" type="curve" smooth="yes"/>
			<point x="822" y="322"/>
			<point x="747" y="376"/>
			<point x="653" y="376" type="curve" smooth="yes"/>
			<point x="609" y="376"/>
			<point x="573" y="364"/>
			<point x="528" y="342" type="curve"/>
			<point x="526" y="222" type="line"/>
			<point x="543" y="240"/>
			<point x="575" y="250"/>
			<point x="597" y="250" type="curve" smooth="yes"/>
			<point x="620" y="250"/>
			<point x="644" y="239"/>
			<point x="644" y="200" type="curve" smooth="yes"/>
			<point x="644" y="163"/>
			<point x="623" y="120"/>
			<point x="587" y="120" type="curve" smooth="yes"/>
			<point x="569" y="120"/>
			<point x="539" y="132"/>
			<point x="550" y="208" type="curve" smooth="yes"/>
			<point x="599" y="540" type="line"/>
			<point x="407" y="540" type="line"/>
			<point x="367" y="287" type="line"/>
			<point x="429" y="349" type="line"/>
			<point x="222" y="349" type="line"/>
			<point x="262" y="296" type="line"/>
			<point x="301" y="544" type="line"/>
			<point x="46" y="536" type="line"/>
			<point x="30" y="436" type="line"/>
			<point x="105" y="408" type="line"/>
			<point x="95" y="456" type="line"/>
			<point x="24" y="0" type="line"/>
			<point x="216" y="0" type="line"/>
			<point x="257" y="268" type="line"/>
			<point x="197" y="208" type="line"/>
			<point x="403" y="208" type="line"/>
			<point x="365" y="280" type="line"/>
			<point x="356" y="222" type="line" smooth="yes"/>
			<point x="326" y="31"/>
			<point x="479" y="-15"/>
		</contour>
	</outline>
</glyph>
<glyph name="dzhe-cy" format="2">
	<advance width="624"/>
	<unicode hex="045F"/>
	<outline>
		<contour>
			<point x="118" y="-230" type="line"/>
			<point x="291" y="-230" type="line"/>
			<point x="333" y="-45" type="line"/>
			<point x="209" y="-45" type="line"/>
		</contour>
		<contour>
			<point x="181" y="-15" type="curve" smooth="yes"/>
			<point x="283" y="-15"/>
			<point x="401" y="69"/>
			<point x="432" y="252" type="curve"/>
			<point x="372" y="144" type="line"/>
			<point x="344" y="-6" type="line"/>
			<point x="581" y="-2" type="line"/>
			<point x="597" y="99" type="line"/>
			<point x="509" y="133" type="line"/>
			<point x="531" y="100" type="line"/>
			<point x="600" y="540" type="line"/>
			<point x="407" y="540" type="line"/>
			<point x="369" y="294" type="line" smooth="yes"/>
			<point x="353" y="188"/>
			<point x="314" y="137"/>
			<point x="273" y="137" type="curve" smooth="yes"/>
			<point x="236" y="137"/>
			<point x="242" y="181"/>
			<point x="249" y="225" type="curve" smooth="yes"/>
			<point x="301" y="544" type="line"/>
			<point x="45" y="536" type="line"/>
			<point x="29" y="436" type="line"/>
			<point x="105" y="407" type="line"/>
			<point x="91" y="441" type="line"/>
			<point x="50" y="176" type="line" smooth="yes"/>
			<point x="33" y="68"/>
			<point x="82" y="-15"/>
		</contour>
	</outline>
</glyph>
<glyph name="Ertick-cy" format="2">
	<advance width="612"/>
	<unicode hex="048E"/>
	<outline>
		<contour>
			<point x="463" y="190" type="line"/>
			<point x="536" y="245" type="line"/>
			<point x="393" y="472" type="line"/>
			<point x="321" y="415" type="line"/>
		</contour>
		<contour>
			<point x="307" y="231" type="line" smooth="yes"/>
			<point x="508" y="231"/>
			<point x="631" y="348"/>
			<point x="631" y="518" type="curve" smooth="yes"/>
			<point x="631" y="637"/>
			<point x="570" y="710"/>
			<point x="416" y="710" type="curve" smooth="yes"/>
			<point x="357" y="710" type="line"/>
			<point x="100" y="705" type="line"/>
			<point x="84" y="605" type="line"/>
			<point x="158" y="571" type="line"/>
			<point x="139" y="600" type="line"/>
			<point x="60" y="105" type="line"/>
			<point x="84" y="131" type="line"/>
			<point x="4" y="100" type="line"/>
			<point x="-12" y="0" type="line"/>
			<point x="315" y="0" type="line"/>
			<point x="331" y="100" type="line"/>
			<point x="247" y="132" type="line"/>
			<point x="257" y="105" type="line"/>
			<point x="283" y="266" type="line"/>
			<point x="238" y="231" type="line"/>
		</contour>
		<contour>
			<point x="358" y="566" type="line" smooth="yes"/>
			<point x="438" y="566"/>
			<point x="453" y="539"/>
			<point x="453" y="489" type="curve" smooth="yes"/>
			<point x="453" y="414"/>
			<point x="418" y="356"/>
			<point x="312" y="356" type="curve" smooth="yes"/>
			<point x="271" y="356" type="line"/>
			<point x="295" y="343" type="line"/>
			<point x="336" y="599" type="line"/>
			<point x="310" y="566" type="line"/>
		</contour>
	</outline>
</glyph>
<glyph name="Ghemiddlehook-cy" format="2">
	<advance width="651"/>
	<unicode hex="0494"/>
	<guideline x="-485" y="-139" angle="0"/>
	<outline>
		<contour>
			<point x="334" y="-103" type="curve" smooth="yes"/>
			<point x="516" y="-103"/>
			<point x="618" y="79"/>
			<point x="618" y="249" type="curve" smooth="yes"/>
			<point x="618" y="400"/>
			<point x="537" y="451"/>
			<point x="431" y="451" type="curve" smooth="yes"/>
			<point x="380" y="451"/>
			<point x="327" y="439"/>
			<point x="273" y="415" type="curve"/>
			<point x="304" y="392" type="line"/>
			<point x="335" y="595" type="line"/>
			<point x="300" y="565" type="line"/>
			<point x="505" y="565" type="line"/>
			<point x="478" y="584" type="line"/>
			<point x="483" y="477" type="line"/>
			<point x="597" y="477" type="line"/>
			<point x="632" y="710" type="line"/>
			<point x="349" y="709" type="line"/>
			<point x="101" y="705" type="line"/>
			<point x="85" y="605" type="line"/>
			<point x="160" y="571" type="line"/>
			<point x="139" y="597" type="line"/>
			<point x="61" y="105" type="line"/>
			<point x="83" y="129" type="line"/>
			<point x="4" y="100" type="line"/>
			<point x="-11" y="0" type="line"/>
			<point x="242" y="0" type="line"/>
			<point x="290" y="308" type="line"/>
			<point x="257" y="275" type="line"/>
			<point x="290" y="290"/>
			<point x="322" y="299"/>
			<point x="349" y="299" type="curve" smooth="yes"/>
			<point x="393" y="299"/>
			<point x="421" y="275"/>
			<point x="421" y="206" type="curve" smooth="yes"/>
			<point x="421" y="143"/>
			<point x="398" y="39"/>
			<point x="305" y="39" type="curve" smooth="yes"/>
			<point x="296" y="39"/>
			<point x="288" y="40"/>
			<point x="287" y="40" type="curve"/>
			<point x="255" y="-95" type="line"/>
			<point x="282" y="-100"/>
			<point x="310" y="-103"/>
		</contour>
	</outline>
</glyph>
<glyph name="zhedescender-cy" format="2">
	<advance width="992"/>
	<unicode hex="0497"/>
	<outline>
		<contour>
			<point x="776" y="-15" type="curve" smooth="yes"/>
			<point x="844" y="-15"/>
			<point x="926" y="23"/>
			<point x="1005" y="105" type="curve"/>
			<point x="1020" y="-10" type="line"/>
			<point x="844" y="239" type="line"/>
			<point x="970" y="228" type="line"/>
			<point x="913" y="167"/>
			<point x="862" y="127"/>
			<point x="828" y="127" type="curve" smooth="yes"/>
			<point x="791" y="127"/>
			<point x="775" y="170"/>
			<point x="775" y="222" type="curve" smooth="yes"/>
			<point x="775" y="310"/>
			<point x="809" y="415"/>
			<point x="864" y="415" type="curve" smooth="yes"/>
			<point x="872" y="415"/>
			<point x="884" y="413"/>
			<point x="895" y="409" type="curve"/>
			<point x="881" y="429" type="line"/>
			<point x="883" y="359" type="line"/>
			<point x="984" y="359" type="line"/>
			<point x="1016" y="524" type="line"/>
			<point x="970" y="545"/>
			<point x="926" y="555"/>
			<point x="886" y="555" type="curve" smooth="yes"/>
			<point x="720" y="555"/>
			<point x="609" y="389"/>
			<point x="609" y="195" type="curve" smooth="yes"/>
			<point x="609" y="54"/>
			<point x="678" y="-15"/>
		</contour>
		<contour>
			<point x="98" y="-15" type="curve" smooth="yes"/>
			<point x="264" y="-15"/>
			<point x="375" y="151"/>
			<point x="375" y="345" type="curve" smooth="yes"/>
			<point x="375" y="486"/>
			<point x="306" y="555"/>
			<point x="208" y="555" type="curve" smooth="yes"/>
			<point x="140" y="555"/>
			<point x="58" y="517"/>
			<point x="-21" y="435" type="curve"/>
			<point x="-16" y="570" type="line"/>
			<point x="130" y="301" type="line"/>
			<point x="14" y="312" type="line"/>
			<point x="71" y="373"/>
			<point x="122" y="413"/>
			<point x="156" y="413" type="curve" smooth="yes"/>
			<point x="193" y="413"/>
			<point x="209" y="370"/>
			<point x="209" y="318" type="curve" smooth="yes"/>
			<point x="209" y="230"/>
			<point x="175" y="125"/>
			<point x="120" y="125" type="curve" smooth="yes"/>
			<point x="112" y="125"/>
			<point x="100" y="127"/>
			<point x="89" y="131" type="curve"/>
			<point x="103" y="111" type="line"/>
			<point x="101" y="181" type="line"/>
			<point x="0" y="181" type="line"/>
			<point x="-32" y="16" type="line"/>
			<point x="14" y="-5"/>
			<point x="58" y="-15"/>
		</contour>
		<contour>
			<point x="365" y="0" type="line"/>
			<point x="535" y="0" type="line"/>
			<point x="621" y="540" type="line"/>
			<point x="451" y="540" type="line"/>
		</contour>
		<contour>
			<point x="296" y="204" type="line"/>
			<point x="653" y="204" type="line"/>
			<point x="664" y="344" type="line"/>
			<point x="308" y="344" type="line"/>
		</contour>
		<contour>
			<point x="966" y="66" type="line"/>
			<point x="791" y="18" type="line"/>
			<point x="798" y="-185" type="line"/>
			<point x="917" y="-185" type="line"/>
		</contour>
	</outline>
</glyph>
<glyph name="zedescender-cy" format="2">
	<advance width="481"/>
	<unicode hex="0499"/>
	<anchor x="280" y="540" name="top"/>
	<outline>
		<contour>
			<point x="283" y="23" type="line"/>
			<point x="131" y="23" type="line"/>
			<point x="117" y="-185" type="line"/>
			<point x="233" y="-185" type="line"/>
		</contour>
		<contour>
			<point x="-20" y="27" type="line"/>
			<point x="35" y="0"/>
			<point x="103" y="-15"/>
			<point x="170" y="-15" type="curve" smooth="yes"/>
			<point x="311" y="-15"/>
			<point x="446" y="46"/>
			<point x="446" y="167" type="curve" smooth="yes"/>
			<point x="446" y="241"/>
			<point x="396" y="280"/>
			<point x="282" y="288" type="curve"/>
			<point x="297" y="274" type="line"/>
			<point x="406" y="284"/>
			<point x="475" y="333"/>
			<point x="475" y="419" type="curve" smooth="yes"/>
			<point x="475" y="517"/>
			<point x="388" y="555"/>
			<point x="271" y="555" type="curve" smooth="yes"/>
			<point x="208" y="555"/>
			<point x="135" y="544"/>
			<point x="64" y="525" type="curve"/>
			<point x="51" y="375" type="line"/>
			<point x="167" y="375" type="line"/>
			<point x="192" y="449" type="line"/>
			<point x="157" y="415" type="line"/>
			<point x="187" y="422"/>
			<point x="215" y="428"/>
			<point x="236" y="428" type="curve" smooth="yes"/>
			<point x="264" y="428"/>
			<point x="281" y="418"/>
			<point x="281" y="389" type="curve" smooth="yes"/>
			<point x="281" y="356"/>
			<point x="259" y="331"/>
			<point x="206" y="331" type="curve" smooth="yes"/>
			<point x="145" y="331" type="line"/>
			<point x="127" y="217" type="line"/>
			<point x="198" y="217" type="line" smooth="yes"/>
			<point x="214" y="217"/>
			<point x="250" y="217"/>
			<point x="250" y="179" type="curve" smooth="yes"/>
			<point x="250" y="136"/>
			<point x="206" y="119"/>
			<point x="151" y="119" type="curve" smooth="yes"/>
			<point x="111" y="119"/>
			<point x="65" y="128"/>
			<point x="27" y="143" type="curve"/>
		</contour>
	</outline>
</glyph>
<glyph name="Kaverticalstroke-cy" format="2">
	<advance width="786"/>
	<unicode hex="049C"/>
	<outline>
		<contour>
			<point x="-15" y="0" type="line"/>
			<point x="292" y="0" type="line"/>
			<point x="307" y="100" type="line"/>
			<point x="239" y="137" type="line"/>
			<point x="256" y="95" type="line"/>
			<point x="289" y="329" type="line"/>
			<point x="256" y="299" type="line"/>
			<point x="441" y="299" type="line"/>
			<point x="405" y="329" type="line"/>
			<point x="533" y="0" type="line"/>
			<point x="728" y="0" type="line"/>
			<point x="743" y="100" type="line"/>
			<point x="675" y="133" type="line"/>
			<point x="719" y="91" type="line"/>
			<point x="571" y="395" type="line"/>
			<point x="566" y="346" type="line"/>
			<point x="762" y="607" type="line"/>
			<point x="716" y="574" type="line"/>
			<point x="802" y="610" type="line"/>
			<point x="817" y="710" type="line"/>
			<point x="531" y="705" type="line"/>
			<point x="516" y="605" type="line"/>
			<point x="580" y="580" type="line"/>
			<point x="568" y="609" type="line"/>
			<point x="426" y="404" type="line"/>
			<point x="480" y="434" type="line"/>
			<point x="280" y="434" type="line"/>
			<point x="305" y="404" type="line"/>
			<point x="335" y="616" type="line"/>
			<point x="307" y="574" type="line"/>
			<point x="389" y="612" type="line"/>
			<point x="404" y="710" type="line"/>
			<point x="96" y="705" type="line"/>
			<point x="81" y="605" type="line"/>
			<point x="150" y="575" type="line"/>
			<point x="137" y="611" type="line"/>
			<point x="59" y="95" type="line"/>
			<point x="83" y="132" type="line"/>
			<point x="0" y="100" type="line"/>
		</contour>
		<contour>
			<point x="299" y="188" type="line"/>
			<point x="386" y="188" type="line"/>
			<point x="442" y="545" type="line"/>
			<point x="356" y="545" type="line"/>
		</contour>
	</outline>
</glyph>
<glyph name="kastroke-cy" format="2">
	<advance width="600"/>
	<unicode hex="049F"/>
	<guideline x="8" y="373" angle="260"/>
	<outline>
		<contour>
			<point x="35" y="547" type="line"/>
			<point x="395" y="547" type="line"/>
			<point x="411" y="647" type="line"/>
			<point x="51" y="647" type="line"/>
		</contour>
		<contour>
			<point x="13" y="0" type="line"/>
			<point x="205" y="0" type="line"/>
			<point x="243" y="238" type="line"/>
			<point x="211" y="227" type="line"/>
			<point x="309" y="227" type="line"/>
			<point x="286" y="238" type="line"/>
			<point x="350" y="0" type="line"/>
			<point x="545" y="0" type="line"/>
			<point x="561" y="100" type="line"/>
			<point x="494" y="123" type="line"/>
			<point x="515" y="99" type="line"/>
			<point x="442" y="332" type="line"/>
			<point x="430" y="284" type="line"/>
			<point x="574" y="443" type="line"/>
			<point x="520" y="414" type="line"/>
			<point x="597" y="435" type="line"/>
			<point x="613" y="535" type="line"/>
			<point x="355" y="525" type="line"/>
			<point x="339" y="425" type="line"/>
			<point x="392" y="410" type="line"/>
			<point x="382" y="429" type="line"/>
			<point x="296" y="336" type="line"/>
			<point x="345" y="357" type="line"/>
			<point x="232" y="357" type="line"/>
			<point x="257" y="328" type="line"/>
			<point x="330" y="785" type="line"/>
			<point x="72" y="777" type="line"/>
			<point x="56" y="677" type="line"/>
			<point x="200" y="632" type="line"/>
			<point x="131" y="745" type="line"/>
		</contour>
	</outline>
</glyph>
<glyph name="kabashkir-cy" format="2">
	<advance width="715"/>
	<unicode hex="04A1"/>
	<outline>
		<contour>
			<point x="125" y="0" type="line"/>
			<point x="317" y="0" type="line"/>
			<point x="356" y="243" type="line"/>
			<point x="321" y="222" type="line"/>
			<point x="419" y="222" type="line"/>
			<point x="397" y="243" type="line"/>
			<point x="462" y="0" type="line"/>
			<point x="661" y="0" type="line"/>
			<point x="676" y="100" type="line"/>
			<point x="610" y="123" type="line"/>
			<point x="624" y="99" type="line"/>
			<point x="557" y="325" type="line"/>
			<point x="542" y="284" type="line"/>
			<point x="687" y="453" type="line"/>
			<point x="621" y="424" type="line"/>
			<point x="710" y="445" type="line"/>
			<point x="726" y="545" type="line"/>
			<point x="468" y="535" type="line"/>
			<point x="452" y="435" type="line"/>
			<point x="498" y="420" type="line"/>
			<point x="496" y="439" type="line"/>
			<point x="408" y="336" type="line"/>
			<point x="462" y="352" type="line"/>
			<point x="345" y="352" type="line"/>
			<point x="370" y="335" type="line"/>
			<point x="403" y="540" type="line"/>
			<point x="48" y="540" type="line"/>
			<point x="14" y="325" type="line"/>
			<point x="130" y="325" type="line"/>
			<point x="172" y="432" type="line"/>
			<point x="129" y="395" type="line"/>
			<point x="224" y="395" type="line"/>
			<point x="193" y="429" type="line"/>
		</contour>
	</outline>
</glyph>
<glyph name="Enghe-cy" format="2">
	<advance width="934"/>
	<unicode hex="04A4"/>
	<outline>
		<contour>
			<point x="-11" y="0" type="line"/>
			<point x="301" y="0" type="line"/>
			<point x="316" y="100" type="line"/>
			<point x="242" y="134" type="line"/>
			<point x="260" y="95" type="line"/>
			<point x="292" y="323" type="line"/>
			<point x="259" y="290" type="line"/>
			<point x="509" y="290" type="line"/>
			<point x="485" y="323" type="line"/>
			<point x="453" y="95" type="line"/>
			<point x="481" y="134" type="line"/>
			<point x="394" y="100" type="line"/>
			<point x="378" y="0" type="line"/>
			<point x="705" y="0" type="line"/>
			<point x="720" y="100" type="line"/>
			<point x="630" y="134" type="line"/>
			<point x="649" y="95" type="line"/>
			<point x="725" y="595" type="line"/>
			<point x="692" y="565" type="line"/>
			<point x="857" y="565" type="line"/>
			<point x="820" y="584" type="line"/>
			<point x="832" y="474" type="line"/>
			<point x="946" y="474" type="line"/>
			<point x="982" y="710" type="line"/>
			<point x="740" y="710" type="line"/>
			<point x="490" y="705" type="line"/>
			<point x="475" y="605" type="line"/>
			<point x="554" y="569" type="line"/>
			<point x="531" y="610" type="line"/>
			<point x="502" y="408" type="line"/>
			<point x="536" y="435" type="line"/>
			<point x="285" y="435" type="line"/>
			<point x="309" y="408" type="line"/>
			<point x="338" y="611" type="line"/>
			<point x="304" y="569" type="line"/>
			<point x="398" y="610" type="line"/>
			<point x="413" y="710" type="line"/>
			<point x="100" y="705" type="line"/>
			<point x="85" y="605" type="line"/>
			<point x="166" y="569" type="line"/>
			<point x="141" y="610" type="line"/>
			<point x="63" y="95" type="line"/>
			<point x="92" y="134" type="line"/>
			<point x="4" y="100" type="line"/>
		</contour>
	</outline>
</glyph>
<glyph name="enghe-cy" format="2">
	<advance width="840"/>
	<unicode hex="04A5"/>
	<outline>
		<contour>
			<point x="541" y="30" type="line"/>
			<point x="598" y="413" type="line"/>
			<point x="587" y="395" type="line"/>
			<point x="727" y="395" type="line"/>
			<point x="708" y="418" type="line"/>
			<point x="707" y="291" type="line"/>
			<point x="822" y="291" type="line"/>
			<point x="868" y="540" type="line"/>
			<point x="620" y="540" type="line"/>
			<point x="380" y="536" type="line"/>
			<point x="364" y="436" type="line"/>
			<point x="435" y="406" type="line"/>
			<point x="413" y="456" type="line"/>
			<point x="391" y="296" type="line"/>
			<point x="448" y="349" type="line"/>
			<point x="226" y="349" type="line"/>
			<point x="265" y="296" type="line"/>
			<point x="301" y="543" type="line"/>
			<point x="44" y="536" type="line"/>
			<point x="29" y="436" type="line"/>
			<point x="135" y="393" type="line"/>
			<point x="95" y="456" type="line"/>
			<point x="27" y="0" type="line"/>
			<point x="218" y="0" type="line"/>
			<point x="257" y="261" type="line"/>
			<point x="200" y="208" type="line"/>
			<point x="422" y="208" type="line"/>
			<point x="382" y="261" type="line"/>
			<point x="343" y="-6" type="line"/>
			<point x="601" y="0" type="line"/>
			<point x="617" y="100" type="line"/>
			<point x="473" y="157" type="line"/>
		</contour>
	</outline>
</glyph>
<glyph name="Pemiddlehook-cy" format="2">
	<advance width="1006"/>
	<unicode hex="04A6"/>
	<outline>
		<contour>
			<point x="673" y="-143" type="curve" smooth="yes"/>
			<point x="868" y="-143"/>
			<point x="973" y="55"/>
			<point x="973" y="238" type="curve" smooth="yes"/>
			<point x="973" y="387"/>
			<point x="901" y="453"/>
			<point x="793" y="453" type="curve" smooth="yes"/>
			<point x="744" y="453"/>
			<point x="689" y="440"/>
			<point x="629" y="415" type="curve"/>
			<point x="660" y="392" type="line"/>
			<point x="692" y="611" type="line"/>
			<point x="661" y="570" type="line"/>
			<point x="752" y="610" type="line"/>
			<point x="767" y="710" type="line"/>
			<point x="351" y="710" type="line"/>
			<point x="96" y="705" type="line"/>
			<point x="81" y="605" type="line"/>
			<point x="162" y="569" type="line"/>
			<point x="137" y="610" type="line"/>
			<point x="59" y="95" type="line"/>
			<point x="88" y="134" type="line"/>
			<point x="0" y="100" type="line"/>
			<point x="-15" y="0" type="line"/>
			<point x="297" y="0" type="line"/>
			<point x="312" y="100" type="line"/>
			<point x="238" y="134" type="line"/>
			<point x="256" y="95" type="line"/>
			<point x="334" y="611" type="line"/>
			<point x="299" y="565" type="line"/>
			<point x="517" y="565" type="line"/>
			<point x="495" y="610" type="line"/>
			<point x="417" y="95" type="line"/>
			<point x="446" y="134" type="line"/>
			<point x="358" y="100" type="line"/>
			<point x="343" y="0" type="line"/>
			<point x="597" y="0" type="line"/>
			<point x="645" y="313" type="line"/>
			<point x="613" y="275" type="line"/>
			<point x="647" y="291"/>
			<point x="678" y="300"/>
			<point x="704" y="300" type="curve" smooth="yes"/>
			<point x="750" y="300"/>
			<point x="776" y="272"/>
			<point x="776" y="198" type="curve" smooth="yes"/>
			<point x="776" y="113"/>
			<point x="741" y="0"/>
			<point x="646" y="0" type="curve" smooth="yes"/>
			<point x="629" y="0" type="line"/>
			<point x="597" y="-135" type="line"/>
			<point x="624" y="-140"/>
			<point x="650" y="-143"/>
		</contour>
	</outline>
</glyph>
<glyph name="pemiddlehook-cy" format="2">
	<advance width="862"/>
	<unicode hex="04A7"/>
	<guideline x="95" y="176" angle="0"/>
	<guideline x="441" y="490" angle="0"/>
	<guideline x="264" y="330" angle="0"/>
	<outline>
		<contour>
			<point x="528" y="-245" type="curve" smooth="yes"/>
			<point x="709" y="-245"/>
			<point x="829" y="-90"/>
			<point x="825" y="113" type="curve" smooth="yes"/>
			<point x="822" y="259"/>
			<point x="756" y="319"/>
			<point x="670" y="319" type="curve" smooth="yes"/>
			<point x="619" y="319"/>
			<point x="563" y="299"/>
			<point x="513" y="260" type="curve"/>
			<point x="529" y="161" type="line"/>
			<point x="540" y="168"/>
			<point x="556" y="174"/>
			<point x="573" y="174" type="curve" smooth="yes"/>
			<point x="605" y="174"/>
			<point x="631" y="153"/>
			<point x="631" y="64" type="curve" smooth="yes"/>
			<point x="631" y="-36"/>
			<point x="598" y="-106"/>
			<point x="512" y="-106" type="curve" smooth="yes"/>
			<point x="502" y="-106"/>
			<point x="489" y="-105"/>
			<point x="475" y="-102" type="curve"/>
			<point x="444" y="-235" type="line"/>
			<point x="473" y="-242"/>
			<point x="502" y="-245"/>
		</contour>
		<contour>
			<point x="323" y="0" type="line"/>
			<point x="516" y="0" type="line"/>
			<point x="574" y="362" type="line" smooth="yes"/>
			<point x="592" y="472"/>
			<point x="542" y="555"/>
			<point x="442" y="555" type="curve" smooth="yes"/>
			<point x="331" y="555"/>
			<point x="213" y="471"/>
			<point x="182" y="288" type="curve"/>
			<point x="254" y="399" type="line"/>
			<point x="291" y="544" type="line"/>
			<point x="45" y="536" type="line"/>
			<point x="29" y="436" type="line"/>
			<point x="173" y="381" type="line"/>
			<point x="104" y="504" type="line"/>
			<point x="24" y="0" type="line"/>
			<point x="217" y="0" type="line"/>
			<point x="255" y="246" type="line" smooth="yes"/>
			<point x="271" y="350"/>
			<point x="310" y="403"/>
			<point x="351" y="403" type="curve" smooth="yes"/>
			<point x="388" y="403"/>
			<point x="382" y="359"/>
			<point x="375" y="315" type="curve" smooth="yes"/>
		</contour>
	</outline>
</glyph>
<glyph name="Esdescender-cy" format="2">
	<advance width="606"/>
	<unicode hex="04AA"/>
	<anchor x="423" y="710" name="top"/>
	<outline>
		<contour>
			<point x="199" y="-205" type="line"/>
			<point x="314" y="-205" type="line"/>
			<point x="378" y="20" type="line"/>
			<point x="207" y="20" type="line"/>
		</contour>
		<contour>
			<point x="36" y="288" type="curve" smooth="yes"/>
			<point x="36" y="80"/>
			<point x="147" y="-15"/>
			<point x="291" y="-15" type="curve" smooth="yes"/>
			<point x="374" y="-15"/>
			<point x="467" y="17"/>
			<point x="558" y="82" type="curve"/>
			<point x="496" y="205" type="line"/>
			<point x="436" y="168"/>
			<point x="382" y="147"/>
			<point x="339" y="147" type="curve" smooth="yes"/>
			<point x="279" y="147"/>
			<point x="244" y="188"/>
			<point x="244" y="295" type="curve" smooth="yes"/>
			<point x="244" y="423"/>
			<point x="294" y="570"/>
			<point x="412" y="570" type="curve" smooth="yes"/>
			<point x="434" y="570"/>
			<point x="462" y="565"/>
			<point x="497" y="551" type="curve"/>
			<point x="464" y="579" type="line"/>
			<point x="478" y="472" type="line"/>
			<point x="593" y="472" type="line"/>
			<point x="633" y="669" type="line"/>
			<point x="554" y="705"/>
			<point x="485" y="725"/>
			<point x="412" y="725" type="curve" smooth="yes"/>
			<point x="180" y="725"/>
			<point x="36" y="524"/>
		</contour>
	</outline>
</glyph>
<glyph name="ustrait-cy" format="2">
	<advance width="578"/>
	<unicode hex="04AF"/>
	<outline>
		<contour>
			<point x="329" y="-20" type="line"/>
			<point x="571" y="442" type="line"/>
			<point x="543" y="415" type="line"/>
			<point x="607" y="445" type="line"/>
			<point x="622" y="545" type="line"/>
			<point x="367" y="535" type="line"/>
			<point x="352" y="435" type="line"/>
			<point x="395" y="417" type="line"/>
			<point x="388" y="431" type="line"/>
			<point x="242" y="104" type="line"/>
			<point x="299" y="104" type="line"/>
			<point x="252" y="543" type="line"/>
			<point x="42" y="535" type="line"/>
			<point x="26" y="435" type="line"/>
			<point x="84" y="415" type="line"/>
			<point x="64" y="435" type="line"/>
			<point x="151" y="-20" type="line"/>
			<point x="150" y="24" type="line"/>
			<point x="124" y="-155" type="line"/>
			<point x="163" y="-99" type="line"/>
			<point x="69" y="-130" type="line"/>
			<point x="53" y="-230" type="line"/>
			<point x="360" y="-230" type="line"/>
			<point x="376" y="-130" type="line"/>
			<point x="290" y="-93" type="line"/>
			<point x="316" y="-155" type="line"/>
			<point x="342" y="24" type="line"/>
		</contour>
	</outline>
</glyph>
<glyph name="Ustraitstroke-cy" format="2">
	<advance width="632"/>
	<unicode hex="04B0"/>
	<outline>
		<contour>
			<point x="71" y="176" type="line"/>
			<point x="536" y="176" type="line"/>
			<point x="555" y="291" type="line"/>
			<point x="89" y="291" type="line"/>
		</contour>
		<contour>
			<point x="118" y="0" type="line"/>
			<point x="439" y="0" type="line"/>
			<point x="455" y="100" type="line"/>
			<point x="381" y="132" type="line"/>
			<point x="391" y="105" type="line"/>
			<point x="419" y="281" type="line"/>
			<point x="395" y="216" type="line"/>
			<point x="653" y="609" type="line"/>
			<point x="616" y="584" type="line"/>
			<point x="679" y="610" type="line"/>
			<point x="694" y="710" type="line"/>
			<point x="440" y="705" type="line"/>
			<point x="425" y="605" type="line"/>
			<point x="490" y="571" type="line"/>
			<point x="479" y="605" type="line"/>
			<point x="326" y="348" type="line"/>
			<point x="365" y="348" type="line"/>
			<point x="291" y="614" type="line"/>
			<point x="277" y="580" type="line"/>
			<point x="350" y="610" type="line"/>
			<point x="366" y="710" type="line"/>
			<point x="76" y="705" type="line"/>
			<point x="62" y="605" type="line"/>
			<point x="120" y="577" type="line"/>
			<point x="95" y="603" type="line"/>
			<point x="233" y="216" type="line"/>
			<point x="222" y="281" type="line"/>
			<point x="194" y="105" type="line"/>
			<point x="218" y="131" type="line"/>
			<point x="133" y="100" type="line"/>
		</contour>
	</outline>
</glyph>
<glyph name="ustraitstroke-cy" format="2">
	<advance width="581"/>
	<unicode hex="04B1"/>
	<outline>
		<contour>
			<point x="18" y="0" type="line"/>
			<point x="472" y="0" type="line"/>
			<point x="488" y="100" type="line"/>
			<point x="34" y="100" type="line"/>
		</contour>
		<contour>
			<point x="329" y="-20" type="line"/>
			<point x="573" y="442" type="line"/>
			<point x="545" y="415" type="line"/>
			<point x="609" y="445" type="line"/>
			<point x="624" y="545" type="line"/>
			<point x="369" y="535" type="line"/>
			<point x="354" y="435" type="line"/>
			<point x="397" y="417" type="line"/>
			<point x="390" y="431" type="line"/>
			<point x="244" y="104" type="line"/>
			<point x="301" y="104" type="line"/>
			<point x="254" y="543" type="line"/>
			<point x="44" y="535" type="line"/>
			<point x="28" y="435" type="line"/>
			<point x="86" y="415" type="line"/>
			<point x="66" y="435" type="line"/>
			<point x="153" y="-20" type="line"/>
			<point x="152" y="24" type="line"/>
			<point x="126" y="-155" type="line"/>
			<point x="165" y="-99" type="line"/>
			<point x="71" y="-130" type="line"/>
			<point x="55" y="-230" type="line"/>
			<point x="362" y="-230" type="line"/>
			<point x="378" y="-130" type="line"/>
			<point x="292" y="-93" type="line"/>
			<point x="318" y="-155" type="line"/>
			<point x="344" y="24" type="line"/>
		</contour>
	</outline>
</glyph>
<glyph name="tetse-cy" format="2">
	<advance width="812"/>
	<unicode hex="04B5"/>
	<guideline x="286" y="325" angle="0"/>
	<outline>
		<contour>
			<point x="622" y="-185" type="line"/>
			<point x="741" y="-185" type="line"/>
			<point x="784" y="102" type="line"/>
			<point x="652" y="137" type="line"/>
			<point x="681" y="100" type="line"/>
			<point x="750" y="540" type="line"/>
			<point x="557" y="540" type="line"/>
			<point x="519" y="294" type="line" smooth="yes"/>
			<point x="503" y="188"/>
			<point x="449" y="137"/>
			<point x="385" y="137" type="curve" smooth="yes"/>
			<point x="330" y="137"/>
			<point x="321" y="174"/>
			<point x="329" y="225" type="curve" smooth="yes"/>
			<point x="379" y="533" type="line"/>
			<point x="181" y="441" type="line"/>
			<point x="140" y="176" type="line" smooth="yes"/>
			<point x="123" y="68"/>
			<point x="172" y="-15"/>
			<point x="299" y="-15" type="curve" smooth="yes"/>
			<point x="422" y="-15"/>
			<point x="546" y="64"/>
			<point x="582" y="252" type="curve"/>
			<point x="522" y="144" type="line"/>
			<point x="494" y="-6" type="line"/>
			<point x="640" y="-3" type="line"/>
			<point x="615" y="18" type="line"/>
		</contour>
		<contour>
			<point x="15" y="325" type="line"/>
			<point x="131" y="325" type="line"/>
			<point x="167" y="432" type="line"/>
			<point x="129" y="395" type="line"/>
			<point x="409" y="395" type="line"/>
			<point x="376" y="424" type="line"/>
			<point x="375" y="325" type="line"/>
			<point x="479" y="325" type="line"/>
			<point x="515" y="540" type="line"/>
			<point x="48" y="540" type="line"/>
		</contour>
	</outline>
</glyph>
<glyph name="Cheverticalstroke-cy" format="2">
	<advance width="718"/>
	<unicode hex="04B8"/>
	<outline>
		<contour>
			<point x="288" y="166" type="line"/>
			<point x="379" y="166" type="line"/>
			<point x="436" y="523" type="line"/>
			<point x="345" y="523" type="line"/>
		</contour>
		<contour>
			<point x="446" y="289" type="curve"/>
			<point x="440" y="301" type="line"/>
			<point x="408" y="95" type="line"/>
			<point x="439" y="134" type="line"/>
			<point x="334" y="100" type="line"/>
			<point x="319" y="0" type="line"/>
			<point x="649" y="0" type="line"/>
			<point x="665" y="100" type="line"/>
			<point x="593" y="133" type="line"/>
			<point x="605" y="95" type="line"/>
			<point x="686" y="608" type="line"/>
			<point x="660" y="570" type="line"/>
			<point x="746" y="610" type="line"/>
			<point x="762" y="710" type="line"/>
			<point x="449" y="705" type="line"/>
			<point x="433" y="605" type="line"/>
			<point x="511" y="569" type="line"/>
			<point x="489" y="610" type="line"/>
			<point x="457" y="399" type="line"/>
			<point x="467" y="422" type="line"/>
			<point x="424" y="405"/>
			<point x="388" y="396"/>
			<point x="360" y="396" type="curve" smooth="yes"/>
			<point x="312" y="396"/>
			<point x="291" y="425"/>
			<point x="300" y="486" type="curve" smooth="yes"/>
			<point x="319" y="611" type="line"/>
			<point x="287" y="569" type="line"/>
			<point x="372" y="610" type="line"/>
			<point x="387" y="710" type="line"/>
			<point x="78" y="705" type="line"/>
			<point x="63" y="605" type="line"/>
			<point x="149" y="569" type="line"/>
			<point x="122" y="610" type="line"/>
			<point x="97" y="450" type="line" smooth="yes"/>
			<point x="77" y="321"/>
			<point x="156" y="248"/>
			<point x="274" y="248" type="curve" smooth="yes"/>
			<point x="327" y="248"/>
			<point x="386" y="262"/>
		</contour>
	</outline>
</glyph>
<glyph name="cheverticalstroke-cy" format="2">
	<advance width="630"/>
	<unicode hex="04B9"/>
	<outline>
		<contour>
			<point x="329" y="-6" type="line"/>
			<point x="587" y="0" type="line"/>
			<point x="603" y="99" type="line"/>
			<point x="515" y="133" type="line"/>
			<point x="536" y="100" type="line"/>
			<point x="606" y="540" type="line"/>
			<point x="412" y="540" type="line"/>
			<point x="389" y="389" type="line" smooth="yes"/>
			<point x="382" y="343"/>
			<point x="347" y="311"/>
			<point x="301" y="311" type="curve" smooth="yes"/>
			<point x="256" y="311"/>
			<point x="259" y="342"/>
			<point x="261" y="353" type="curve" smooth="yes"/>
			<point x="291" y="544" type="line"/>
			<point x="45" y="536" type="line"/>
			<point x="30" y="436" type="line"/>
			<point x="123" y="393" type="line"/>
			<point x="82" y="441" type="line"/>
			<point x="60" y="293" type="line" smooth="yes"/>
			<point x="49" y="217"/>
			<point x="92" y="159"/>
			<point x="191" y="159" type="curve" smooth="yes"/>
			<point x="293" y="159"/>
			<point x="435" y="225"/>
			<point x="466" y="369" type="curve"/>
			<point x="381" y="268" type="line"/>
		</contour>
		<contour>
			<point x="244" y="112" type="line"/>
			<point x="316" y="112" type="line"/>
			<point x="360" y="387" type="line"/>
			<point x="288" y="387" type="line"/>
		</contour>
	</outline>
</glyph>
<glyph name="cheabkhasian-cy" format="2">
	<advance width="711"/>
	<unicode hex="04BD"/>
	<outline>
		<contour>
			<point x="421" y="-15" type="curve" smooth="yes"/>
			<point x="494" y="-15"/>
			<point x="579" y="8"/>
			<point x="663" y="54" type="curve"/>
			<point x="611" y="171" type="line"/>
			<point x="554" y="143"/>
			<point x="504" y="126"/>
			<point x="466" y="126" type="curve" smooth="yes"/>
			<point x="418" y="126"/>
			<point x="389" y="154"/>
			<point x="389" y="225" type="curve" smooth="yes"/>
			<point x="389" y="304"/>
			<point x="424" y="419"/>
			<point x="484" y="419" type="curve" smooth="yes"/>
			<point x="508" y="419"/>
			<point x="521" y="401"/>
			<point x="521" y="380" type="curve" smooth="yes"/>
			<point x="521" y="337"/>
			<point x="468" y="315"/>
			<point x="412" y="315" type="curve" smooth="yes"/>
			<point x="401" y="315"/>
			<point x="390" y="315"/>
			<point x="380" y="317" type="curve"/>
			<point x="370" y="204" type="line"/>
			<point x="375" y="204"/>
			<point x="386" y="203"/>
			<point x="405" y="203" type="curve" smooth="yes"/>
			<point x="565" y="203"/>
			<point x="713" y="270"/>
			<point x="713" y="400" type="curve" smooth="yes"/>
			<point x="713" y="494"/>
			<point x="637" y="555"/>
			<point x="512" y="555" type="curve" smooth="yes"/>
			<point x="309" y="555"/>
			<point x="195" y="392"/>
			<point x="195" y="218" type="curve" smooth="yes"/>
			<point x="195" y="59"/>
			<point x="291" y="-15"/>
		</contour>
		<contour>
			<point x="202" y="205" type="curve"/>
			<point x="227" y="319" type="line"/>
			<point x="192" y="319"/>
			<point x="177" y="334"/>
			<point x="177" y="359" type="curve" smooth="yes"/>
			<point x="177" y="380"/>
			<point x="188" y="409"/>
			<point x="205" y="442" type="curve"/>
			<point x="79" y="488" type="line"/>
			<point x="37" y="438"/>
			<point x="18" y="388"/>
			<point x="18" y="344" type="curve" smooth="yes"/>
			<point x="18" y="264"/>
			<point x="85" y="205"/>
		</contour>
	</outline>
</glyph>
<glyph name="enhook-cy" format="2">
	<advance width="621"/>
	<unicode hex="04C8"/>
	<outline>
		<contour>
			<point x="333" y="-17" type="line" smooth="yes"/>
			<point x="325" y="-69"/>
			<point x="298" y="-105"/>
			<point x="239" y="-105" type="curve" smooth="yes"/>
			<point x="224" y="-105"/>
			<point x="212" y="-103"/>
			<point x="198" y="-101" type="curve"/>
			<point x="167" y="-235" type="line"/>
			<point x="196" y="-241"/>
			<point x="219" y="-245"/>
			<point x="252" y="-245" type="curve" smooth="yes"/>
			<point x="379" y="-245"/>
			<point x="499" y="-183"/>
			<point x="533" y="30" type="curve" smooth="yes"/>
			<point x="614" y="540" type="line"/>
			<point x="422" y="540" type="line"/>
			<point x="382" y="289" type="line"/>
			<point x="445" y="349" type="line"/>
			<point x="223" y="349" type="line"/>
			<point x="262" y="296" type="line"/>
			<point x="301" y="544" type="line"/>
			<point x="46" y="536" type="line"/>
			<point x="30" y="436" type="line"/>
			<point x="133" y="397" type="line"/>
			<point x="95" y="456" type="line"/>
			<point x="24" y="0" type="line"/>
			<point x="216" y="0" type="line"/>
			<point x="258" y="269" type="line"/>
			<point x="198" y="208" type="line"/>
			<point x="419" y="208" type="line"/>
			<point x="378" y="261" type="line"/>
		</contour>
	</outline>
</glyph>
<glyph name="chekhakassian-cy" format="2">
	<advance width="613"/>
	<unicode hex="04CC"/>
	<outline>
		<contour>
			<point x="177" y="-185" type="line"/>
			<point x="296" y="-185" type="line"/>
			<point x="377" y="85" type="line"/>
			<point x="258" y="0" type="line"/>
			<point x="570" y="-1" type="line"/>
			<point x="586" y="99" type="line"/>
			<point x="498" y="133" type="line"/>
			<point x="519" y="100" type="line"/>
			<point x="589" y="540" type="line"/>
			<point x="395" y="540" type="line"/>
			<point x="372" y="389" type="line" smooth="yes"/>
			<point x="364" y="336"/>
			<point x="321" y="311"/>
			<point x="289" y="311" type="curve" smooth="yes"/>
			<point x="257" y="311"/>
			<point x="258" y="337"/>
			<point x="261" y="353" type="curve" smooth="yes"/>
			<point x="291" y="544" type="line"/>
			<point x="45" y="536" type="line"/>
			<point x="30" y="436" type="line"/>
			<point x="123" y="393" type="line"/>
			<point x="82" y="441" type="line"/>
			<point x="60" y="293" type="line" smooth="yes"/>
			<point x="49" y="217"/>
			<point x="92" y="159"/>
			<point x="191" y="159" type="curve" smooth="yes"/>
			<point x="293" y="159"/>
			<point x="418" y="225"/>
			<point x="449" y="369" type="curve"/>
			<point x="364" y="268" type="line"/>
			<point x="328" y="86" type="line"/>
			<point x="353" y="135" type="line"/>
			<point x="212" y="102" type="line"/>
		</contour>
	</outline>
</glyph>
<glyph name="Gestrokehook-cy" format="2">
	<advance width="562"/>
	<unicode hex="04FA"/>
	<guideline x="-990" y="-245" angle="0"/>
	<outline>
		<contour>
			<point x="54" y="-245" type="curve" smooth="yes"/>
			<point x="212" y="-245"/>
			<point x="306" y="-146"/>
			<point x="332" y="31" type="curve" smooth="yes"/>
			<point x="342" y="100" type="line"/>
			<point x="249" y="134" type="line"/>
			<point x="268" y="107" type="line"/>
			<point x="346" y="595" type="line"/>
			<point x="312" y="565" type="line"/>
			<point x="487" y="565" type="line"/>
			<point x="452" y="584" type="line"/>
			<point x="462" y="474" type="line"/>
			<point x="574" y="474" type="line"/>
			<point x="612" y="710" type="line"/>
			<point x="361" y="710" type="line"/>
			<point x="111" y="705" type="line"/>
			<point x="95" y="605" type="line"/>
			<point x="170" y="571" type="line"/>
			<point x="150" y="599" type="line"/>
			<point x="71" y="105" type="line"/>
			<point x="93" y="130" type="line"/>
			<point x="15" y="100" type="line"/>
			<point x="-1" y="0" type="line"/>
			<point x="225" y="0" type="line"/>
			<point x="141" y="60" type="line"/>
			<point x="130" y="-13" type="line" smooth="yes"/>
			<point x="125" y="-44"/>
			<point x="118" y="-100"/>
			<point x="41" y="-100" type="curve" smooth="yes"/>
			<point x="31" y="-100"/>
			<point x="17" y="-99"/>
			<point x="1" y="-96" type="curve"/>
			<point x="-36" y="-235" type="line"/>
			<point x="-4" y="-242"/>
			<point x="26" y="-245"/>
		</contour>
		<contour>
			<point x="44" y="279" type="line"/>
			<point x="430" y="279" type="line"/>
			<point x="452" y="414" type="line"/>
			<point x="66" y="414" type="line"/>
		</contour>
	</outline>
</glyph>
<glyph name="gestrokehook-cy" format="2">
	<advance width="542"/>
	<unicode hex="04FB"/>
	<guideline x="-29" y="-47" angle="261"/>
	<guideline x="55" y="472" angle="261"/>
	<outline>
		<contour>
			<point x="45" y="0" type="line"/>
			<point x="237" y="0" type="line"/>
			<point x="301" y="413" type="line"/>
			<point x="290" y="395" type="line"/>
			<point x="432" y="395" type="line"/>
			<point x="416" y="418" type="line"/>
			<point x="415" y="314" type="line"/>
			<point x="530" y="314" type="line"/>
			<point x="573" y="540" type="line"/>
			<point x="281" y="540" type="line"/>
			<point x="65" y="536" type="line"/>
			<point x="49" y="436" type="line"/>
			<point x="128" y="406" type="line"/>
			<point x="113" y="437" type="line"/>
		</contour>
		<contour>
			<point x="66" y="-245" type="curve" smooth="yes"/>
			<point x="193" y="-245"/>
			<point x="307" y="-181"/>
			<point x="347" y="30" type="curve" smooth="yes"/>
			<point x="358" y="88" type="line"/>
			<point x="128" y="166" type="line"/>
			<point x="85" y="0" type="line"/>
			<point x="199" y="0" type="line"/>
			<point x="150" y="2" type="line"/>
			<point x="147" y="-17" type="line" smooth="yes"/>
			<point x="139" y="-67"/>
			<point x="112" y="-105"/>
			<point x="53" y="-105" type="curve" smooth="yes"/>
			<point x="38" y="-105"/>
			<point x="26" y="-103"/>
			<point x="12" y="-101" type="curve"/>
			<point x="-19" y="-235" type="line"/>
			<point x="10" y="-241"/>
			<point x="33" y="-245"/>
		</contour>
		<contour>
			<point x="8" y="176" type="line"/>
			<point x="377" y="176" type="line"/>
			<point x="396" y="296" type="line"/>
			<point x="27" y="296" type="line"/>
		</contour>
	</outline>
</glyph>
<glyph name="hahook-cy" format="2">
	<advance width="547"/>
	<unicode hex="04FD"/>
	<outline>
		<contour>
			<point x="-28" y="0" type="line"/>
			<point x="136" y="0" type="line"/>
			<point x="320" y="261" type="line"/>
			<point x="376" y="261" type="line"/>
			<point x="535" y="450" type="line"/>
			<point x="481" y="424" type="line"/>
			<point x="565" y="445" type="line"/>
			<point x="581" y="545" type="line"/>
			<point x="413" y="535" type="line"/>
			<point x="236" y="297" type="line"/>
			<point x="177" y="297" type="line"/>
			<point x="23" y="96" type="line"/>
			<point x="68" y="120" type="line"/>
			<point x="-12" y="100" type="line"/>
		</contour>
		<contour>
			<point x="281" y="-245" type="line"/>
			<point x="428" y="-173"/>
			<point x="486" y="-89"/>
			<point x="486" y="6" type="curve" smooth="yes"/>
			<point x="486" y="69"/>
			<point x="460" y="139"/>
			<point x="418" y="212" type="curve" smooth="yes"/>
			<point x="346" y="338" type="line"/>
			<point x="231" y="550" type="line"/>
			<point x="65" y="535" type="line"/>
			<point x="49" y="435" type="line"/>
			<point x="105" y="414" type="line"/>
			<point x="76" y="447" type="line"/>
			<point x="197" y="235" type="line"/>
			<point x="260" y="121" type="line" smooth="yes"/>
			<point x="285" y="76"/>
			<point x="304" y="37"/>
			<point x="304" y="-1" type="curve" smooth="yes"/>
			<point x="304" y="-45"/>
			<point x="279" y="-86"/>
			<point x="208" y="-130" type="curve"/>
		</contour>
	</outline>
</glyph>
<glyph name="Elhook-cy" format="2">
	<advance width="726"/>
	<unicode hex="0512"/>
	<outline>
		<contour>
			<point x="330" y="-245" type="curve" smooth="yes"/>
			<point x="493" y="-245"/>
			<point x="583" y="-149"/>
			<point x="615" y="47" type="curve" smooth="yes"/>
			<point x="706" y="611" type="line"/>
			<point x="674" y="569" type="line"/>
			<point x="768" y="610" type="line"/>
			<point x="784" y="710" type="line"/>
			<point x="415" y="710" type="line"/>
			<point x="213" y="705" type="line"/>
			<point x="198" y="605" type="line"/>
			<point x="277" y="569" type="line"/>
			<point x="253" y="606" type="line"/>
			<point x="226" y="443"/>
			<point x="187" y="178"/>
			<point x="52" y="178" type="curve" smooth="yes"/>
			<point x="41" y="178"/>
			<point x="28" y="180"/>
			<point x="16" y="183" type="curve"/>
			<point x="-32" y="4" type="line"/>
			<point x="7" y="-9"/>
			<point x="42" y="-15"/>
			<point x="74" y="-15" type="curve" smooth="yes"/>
			<point x="293" y="-15"/>
			<point x="343" y="274"/>
			<point x="406" y="595" type="curve"/>
			<point x="364" y="565" type="line"/>
			<point x="537" y="565" type="line"/>
			<point x="506" y="595" type="line"/>
			<point x="410" y="2" type="line" smooth="yes"/>
			<point x="403" y="-41"/>
			<point x="392" y="-100"/>
			<point x="310" y="-100" type="curve" smooth="yes"/>
			<point x="299" y="-100"/>
			<point x="284" y="-99"/>
			<point x="268" y="-96" type="curve"/>
			<point x="236" y="-236" type="line"/>
			<point x="270" y="-242"/>
			<point x="301" y="-245"/>
		</contour>
	</outline>
</glyph>
<glyph name="figuredash" format="2">
	<advance width="609"/>
	<unicode hex="2012"/>
	<outline>
		<contour>
			<point x="594" y="435" type="line"/>
			<point x="66" y="435" type="line"/>
			<point x="43" y="285" type="line"/>
			<point x="571" y="285" type="line"/>
		</contour>
	</outline>
</glyph>
<glyph name="bullet" format="2">
	<advance width="468"/>
	<unicode hex="2022"/>
	<outline>
		<contour>
			<point x="39" y="296" type="curve" smooth="yes"/>
			<point x="39" y="178"/>
			<point x="117" y="98"/>
			<point x="234" y="98" type="curve" smooth="yes"/>
			<point x="351" y="98"/>
			<point x="438" y="177"/>
			<point x="438" y="301" type="curve" smooth="yes"/>
			<point x="438" y="420"/>
			<point x="359" y="503"/>
			<point x="242" y="503" type="curve" smooth="yes"/>
			<point x="127" y="503"/>
			<point x="39" y="422"/>
		</contour>
	</outline>
</glyph>
<glyph name="overline" format="2">
	<advance width="507"/>
	<unicode hex="203E"/>
	<outline>
		<contour>
			<point x="505" y="674" type="line"/>
			<point x="130" y="674" type="line"/>
			<point x="113" y="564" type="line"/>
			<point x="487" y="564" type="line"/>
		</contour>
	</outline>
</glyph>
<glyph name="fraction" format="2">
	<advance width="291"/>
	<unicode hex="2044"/>
	<guideline x="81" y="-12" angle="0"/>
	<guideline x="893" y="723" angle="0"/>
	<outline>
		<contour>
			<point x="-169" y="-12" type="line"/>
			<point x="-17" y="-12" type="line"/>
			<point x="484" y="723" type="line"/>
			<point x="332" y="723" type="line"/>
		</contour>
	</outline>
</glyph>
<glyph name="colonsign" format="2">
	<advance width="646"/>
	<unicode hex="20A1"/>
	<outline>
		<contour>
			<point x="109" y="-125" type="line"/>
			<point x="196" y="-125" type="line"/>
			<point x="298" y="181" type="line"/>
			<point x="266" y="207"/>
			<point x="256" y="252"/>
			<point x="256" y="305" type="curve" smooth="yes"/>
			<point x="256" y="417"/>
			<point x="300" y="536"/>
			<point x="402" y="552" type="curve"/>
			<point x="495" y="833" type="line"/>
			<point x="407" y="833" type="line"/>
			<point x="354" y="673" type="line"/>
			<point x="374" y="707" type="line"/>
			<point x="167" y="676"/>
			<point x="44" y="504"/>
			<point x="44" y="296" type="curve" smooth="yes"/>
			<point x="44" y="160"/>
			<point x="97" y="74"/>
			<point x="179" y="29" type="curve"/>
			<point x="177" y="79" type="line"/>
		</contour>
		<contour>
			<point x="236" y="-125" type="line"/>
			<point x="324" y="-125" type="line"/>
			<point x="382" y="52" type="line"/>
			<point x="338" y="1" type="line"/>
			<point x="414" y="8"/>
			<point x="500" y="35"/>
			<point x="590" y="97" type="curve"/>
			<point x="526" y="220" type="line"/>
			<point x="477" y="190"/>
			<point x="411" y="162"/>
			<point x="361" y="162" type="curve" smooth="yes"/>
			<point x="350" y="162"/>
			<point x="339" y="163"/>
			<point x="330" y="166" type="curve"/>
		</contour>
		<contour>
			<point x="502" y="457" type="line"/>
			<point x="619" y="457" type="line"/>
			<point x="658" y="654" type="line"/>
			<point x="617" y="672"/>
			<point x="579" y="686"/>
			<point x="543" y="695" type="curve"/>
			<point x="562" y="653" type="line"/>
			<point x="623" y="833" type="line"/>
			<point x="535" y="833" type="line"/>
			<point x="443" y="555" type="line"/>
			<point x="470" y="552"/>
			<point x="492" y="548"/>
			<point x="523" y="536" type="curve"/>
			<point x="487" y="564" type="line"/>
		</contour>
	</outline>
</glyph>
<glyph name="franc" format="2">
	<advance width="597"/>
	<unicode hex="20A3"/>
	<guideline x="-334" y="156" angle="90"/>
	<guideline x="-13" y="156" angle="90"/>
	<outline>
		<contour>
			<point x="17" y="0" type="line"/>
			<point x="343" y="0" type="line"/>
			<point x="358" y="100" type="line"/>
			<point x="271" y="132" type="line"/>
			<point x="286" y="105" type="line"/>
			<point x="301" y="200" type="line"/>
			<point x="268" y="176" type="line"/>
			<point x="404" y="176" type="line"/>
			<point x="419" y="266" type="line"/>
			<point x="286" y="266" type="line"/>
			<point x="307" y="239" type="line"/>
			<point x="324" y="345" type="line"/>
			<point x="290" y="315" type="line"/>
			<point x="493" y="315" type="line"/>
			<point x="512" y="435" type="line"/>
			<point x="312" y="435" type="line"/>
			<point x="334" y="399" type="line"/>
			<point x="363" y="595" type="line"/>
			<point x="330" y="565" type="line"/>
			<point x="506" y="565" type="line"/>
			<point x="477" y="584" type="line"/>
			<point x="486" y="505" type="line"/>
			<point x="600" y="505" type="line"/>
			<point x="632" y="710" type="line"/>
			<point x="378" y="710" type="line"/>
			<point x="128" y="705" type="line"/>
			<point x="113" y="605" type="line"/>
			<point x="189" y="571" type="line"/>
			<point x="169" y="610" type="line"/>
			<point x="111" y="242" type="line"/>
			<point x="141" y="266" type="line"/>
			<point x="59" y="266" type="line"/>
			<point x="44" y="176" type="line"/>
			<point x="123" y="176" type="line"/>
			<point x="104" y="200" type="line"/>
			<point x="89" y="105" type="line"/>
			<point x="114" y="132" type="line"/>
			<point x="33" y="100" type="line"/>
		</contour>
	</outline>
</glyph>
<glyph name="lira" format="2">
	<advance width="632"/>
	<unicode hex="20A4"/>
	<guideline x="129" y="586" angle="90"/>
	<outline>
		<contour>
			<point x="11" y="0" type="line"/>
			<point x="536" y="0" type="line"/>
			<point x="571" y="220" type="line"/>
			<point x="454" y="220" type="line"/>
			<point x="415" y="114" type="line"/>
			<point x="446" y="145" type="line"/>
			<point x="231" y="145" type="line"/>
			<point x="251" y="120" type="line"/>
			<point x="296" y="158"/>
			<point x="326" y="218"/>
			<point x="326" y="264" type="curve"/>
			<point x="281" y="253" type="line"/>
			<point x="438" y="253" type="line"/>
			<point x="452" y="343" type="line"/>
			<point x="65" y="343" type="line"/>
			<point x="51" y="253" type="line"/>
			<point x="169" y="253" type="line"/>
			<point x="133" y="301" type="line"/>
			<point x="133" y="233"/>
			<point x="123" y="140"/>
			<point x="73" y="99" type="curve"/>
			<point x="136" y="140" type="line"/>
			<point x="26" y="100" type="line"/>
		</contour>
		<contour>
			<point x="71" y="383" type="line"/>
			<point x="458" y="383" type="line"/>
			<point x="473" y="473" type="line"/>
			<point x="296" y="473" type="line"/>
			<point x="337" y="422" type="line"/>
			<point x="337" y="513"/>
			<point x="349" y="579"/>
			<point x="428" y="579" type="curve" smooth="yes"/>
			<point x="445" y="579"/>
			<point x="464" y="576"/>
			<point x="486" y="570" type="curve"/>
			<point x="471" y="594" type="line"/>
			<point x="481" y="510" type="line"/>
			<point x="596" y="510" type="line"/>
			<point x="632" y="687" type="line"/>
			<point x="550" y="711"/>
			<point x="475" y="725"/>
			<point x="409" y="725" type="curve" smooth="yes"/>
			<point x="224" y="725"/>
			<point x="142" y="623"/>
			<point x="142" y="435" type="curve"/>
			<point x="190" y="473" type="line"/>
			<point x="86" y="473" type="line"/>
		</contour>
	</outline>
</glyph>
<glyph name="peseta" format="2">
	<advance width="708"/>
	<unicode hex="20A7"/>
	<guideline x="53" y="218" angle="261"/>
	<outline>
		<contour>
			<point x="84" y="412" type="line"/>
			<point x="703" y="412" type="line"/>
			<point x="722" y="532" type="line"/>
			<point x="103" y="532" type="line"/>
		</contour>
		<contour>
			<point x="337" y="231" type="line" smooth="yes"/>
			<point x="538" y="231"/>
			<point x="661" y="348"/>
			<point x="661" y="518" type="curve" smooth="yes"/>
			<point x="661" y="637"/>
			<point x="600" y="710"/>
			<point x="446" y="710" type="curve" smooth="yes"/>
			<point x="387" y="710" type="line"/>
			<point x="130" y="705" type="line"/>
			<point x="114" y="605" type="line"/>
			<point x="188" y="571" type="line"/>
			<point x="169" y="600" type="line"/>
			<point x="90" y="105" type="line"/>
			<point x="114" y="131" type="line"/>
			<point x="34" y="100" type="line"/>
			<point x="18" y="0" type="line"/>
			<point x="345" y="0" type="line"/>
			<point x="361" y="100" type="line"/>
			<point x="277" y="132" type="line"/>
			<point x="287" y="105" type="line"/>
			<point x="313" y="266" type="line"/>
			<point x="268" y="231" type="line"/>
		</contour>
		<contour>
			<point x="388" y="566" type="line" smooth="yes"/>
			<point x="445" y="566"/>
			<point x="456" y="539"/>
			<point x="456" y="499" type="curve" smooth="yes"/>
			<point x="456" y="434"/>
			<point x="428" y="376"/>
			<point x="342" y="376" type="curve" smooth="yes"/>
			<point x="301" y="376" type="line"/>
			<point x="325" y="343" type="line"/>
			<point x="366" y="599" type="line"/>
			<point x="340" y="566" type="line"/>
		</contour>
	</outline>
</glyph>
<glyph name="won" format="2">
	<advance width="1064"/>
	<unicode hex="20A9"/>
	<outline>
		<contour>
			<point x="201" y="0" type="line"/>
			<point x="383" y="0" type="line"/>
			<point x="509" y="303" type="line"/>
			<point x="363" y="302" type="line"/>
			<point x="316" y="182" type="line"/>
			<point x="356" y="182" type="line"/>
			<point x="352" y="302" type="line"/>
			<point x="173" y="288" type="line"/>
		</contour>
		<contour>
			<point x="161" y="410" type="line"/>
			<point x="349" y="411" type="line"/>
			<point x="342" y="611" type="line"/>
			<point x="313" y="575" type="line"/>
			<point x="385" y="610" type="line"/>
			<point x="400" y="710" type="line"/>
			<point x="114" y="705" type="line"/>
			<point x="99" y="605" type="line"/>
			<point x="151" y="580" type="line"/>
			<point x="141" y="611" type="line"/>
		</contour>
		<contour>
			<point x="58" y="229" type="line"/>
			<point x="992" y="229" type="line"/>
			<point x="1006" y="319" type="line"/>
			<point x="72" y="319" type="line"/>
		</contour>
		<contour>
			<point x="941" y="397" type="line"/>
			<point x="1039" y="629" type="line"/>
			<point x="987" y="577" type="line"/>
			<point x="1075" y="610" type="line"/>
			<point x="1090" y="710" type="line"/>
			<point x="821" y="705" type="line"/>
			<point x="805" y="605" type="line"/>
			<point x="873" y="575" type="line"/>
			<point x="859" y="611" type="line"/>
			<point x="783" y="405" type="line"/>
		</contour>
		<contour>
			<point x="78" y="359" type="line"/>
			<point x="1012" y="359" type="line"/>
			<point x="1027" y="449" type="line"/>
			<point x="93" y="449" type="line"/>
		</contour>
		<contour>
			<point x="725" y="408" type="line"/>
			<point x="701" y="710" type="line"/>
			<point x="520" y="705" type="line"/>
			<point x="406" y="412" type="line"/>
			<point x="534" y="362" type="line"/>
			<point x="577" y="465" type="line"/>
			<point x="537" y="466" type="line"/>
			<point x="548" y="364" type="line"/>
		</contour>
		<contour>
			<point x="589" y="0" type="line"/>
			<point x="774" y="0" type="line"/>
			<point x="903" y="306" type="line"/>
			<point x="748" y="310" type="line"/>
			<point x="702" y="183" type="line"/>
			<point x="743" y="184" type="line"/>
			<point x="733" y="310" type="line"/>
			<point x="556" y="300" type="line"/>
		</contour>
	</outline>
</glyph>
<glyph name="tugrik" format="2">
	<advance width="662"/>
	<unicode hex="20AE"/>
	<guideline x="135" y="505" angle="90"/>
	<guideline x="384" y="505" angle="90"/>
	<outline>
		<contour>
			<point x="145" y="265" type="line"/>
			<point x="538" y="378" type="line"/>
			<point x="552" y="469" type="line"/>
			<point x="416" y="430" type="line"/>
			<point x="454" y="417" type="line"/>
			<point x="482" y="595" type="line"/>
			<point x="437" y="565" type="line"/>
			<point x="570" y="565" type="line"/>
			<point x="533" y="595" type="line"/>
			<point x="543" y="489" type="line"/>
			<point x="662" y="489" type="line"/>
			<point x="696" y="710" type="line"/>
			<point x="106" y="710" type="line"/>
			<point x="71" y="489" type="line"/>
			<point x="189" y="489" type="line"/>
			<point x="233" y="603" type="line"/>
			<point x="186" y="565" type="line"/>
			<point x="317" y="565" type="line"/>
			<point x="285" y="595" type="line"/>
			<point x="245" y="344" type="line"/>
			<point x="292" y="394" type="line"/>
			<point x="158" y="356" type="line"/>
		</contour>
		<contour>
			<point x="125" y="0" type="line"/>
			<point x="457" y="0" type="line"/>
			<point x="473" y="100" type="line"/>
			<point x="379" y="135" type="line"/>
			<point x="404" y="105" type="line"/>
			<point x="426" y="246" type="line"/>
			<point x="386" y="207" type="line"/>
			<point x="517" y="244" type="line"/>
			<point x="530" y="335" type="line"/>
			<point x="137" y="222" type="line"/>
			<point x="123" y="131" type="line"/>
			<point x="255" y="169" type="line"/>
			<point x="221" y="194" type="line"/>
			<point x="204" y="85" type="line"/>
			<point x="248" y="135" type="line"/>
			<point x="141" y="100" type="line"/>
		</contour>
	</outline>
</glyph>
<glyph name="guarani" format="2">
	<advance width="702"/>
	<unicode hex="20B2"/>
	<guideline x="409" y="218" angle="261"/>
	<guideline x="279" y="218" angle="261"/>
	<outline>
		<contour>
			<point x="318" y="-15" type="curve" smooth="yes"/>
			<point x="394" y="-15"/>
			<point x="486" y="5"/>
			<point x="588" y="52" type="curve"/>
			<point x="618" y="277" type="line"/>
			<point x="596" y="244" type="line"/>
			<point x="677" y="272" type="line"/>
			<point x="693" y="377" type="line"/>
			<point x="394" y="372" type="line"/>
			<point x="378" y="268" type="line"/>
			<point x="460" y="244" type="line"/>
			<point x="435" y="277" type="line"/>
			<point x="413" y="117" type="line"/>
			<point x="438" y="161" type="line"/>
			<point x="403" y="150"/>
			<point x="373" y="143"/>
			<point x="345" y="143" type="curve" smooth="yes"/>
			<point x="282" y="143"/>
			<point x="252" y="179"/>
			<point x="252" y="283" type="curve" smooth="yes"/>
			<point x="252" y="435"/>
			<point x="314" y="570"/>
			<point x="442" y="570" type="curve" smooth="yes"/>
			<point x="466" y="570"/>
			<point x="495" y="565"/>
			<point x="527" y="552" type="curve"/>
			<point x="497" y="577" type="line"/>
			<point x="511" y="468" type="line"/>
			<point x="625" y="468" type="line"/>
			<point x="664" y="667" type="line"/>
			<point x="584" y="704"/>
			<point x="505" y="725"/>
			<point x="427" y="725" type="curve" smooth="yes"/>
			<point x="184" y="725"/>
			<point x="44" y="518"/>
			<point x="44" y="285" type="curve" smooth="yes"/>
			<point x="44" y="80"/>
			<point x="152" y="-15"/>
		</contour>
		<contour>
			<point x="226" y="-125" type="line"/>
			<point x="356" y="-125" type="line"/>
			<point x="380" y="31" type="line"/>
			<point x="250" y="31" type="line"/>
		</contour>
		<contour>
			<point x="352" y="674" type="line"/>
			<point x="482" y="675" type="line"/>
			<point x="507" y="833" type="line"/>
			<point x="377" y="833" type="line"/>
		</contour>
	</outline>
</glyph>
<glyph name="hryvnia" format="2">
	<advance width="647"/>
	<unicode hex="20B4"/>
	<outline>
		<contour>
			<point x="295" y="-15" type="curve" smooth="yes"/>
			<point x="361" y="-15"/>
			<point x="446" y="0"/>
			<point x="529" y="24" type="curve"/>
			<point x="552" y="198" type="line"/>
			<point x="434" y="198" type="line"/>
			<point x="397" y="104" type="line"/>
			<point x="461" y="165" type="line"/>
			<point x="425" y="142"/>
			<point x="377" y="130"/>
			<point x="333" y="130" type="curve" smooth="yes"/>
			<point x="276" y="130"/>
			<point x="247" y="144"/>
			<point x="254" y="185" type="curve" smooth="yes"/>
			<point x="260" y="223"/>
			<point x="286" y="250"/>
			<point x="323" y="267" type="curve"/>
			<point x="230" y="249" type="line"/>
			<point x="590" y="249" type="line"/>
			<point x="604" y="339" type="line"/>
			<point x="65" y="339" type="line"/>
			<point x="51" y="249" type="line"/>
			<point x="141" y="249" type="line"/>
			<point x="167" y="311" type="line"/>
			<point x="103" y="261"/>
			<point x="73" y="210"/>
			<point x="67" y="169" type="curve" smooth="yes"/>
			<point x="47" y="42"/>
			<point x="152" y="-15"/>
		</contour>
		<contour>
			<point x="71" y="379" type="line"/>
			<point x="611" y="379" type="line"/>
			<point x="625" y="469" type="line"/>
			<point x="527" y="469" type="line"/>
			<point x="496" y="403" type="line"/>
			<point x="560" y="454"/>
			<point x="589" y="506"/>
			<point x="595" y="548" type="curve" smooth="yes"/>
			<point x="615" y="672"/>
			<point x="519" y="725"/>
			<point x="388" y="725" type="curve" smooth="yes"/>
			<point x="315" y="725"/>
			<point x="228" y="710"/>
			<point x="144" y="681" type="curve"/>
			<point x="131" y="511" type="line"/>
			<point x="247" y="511" type="line"/>
			<point x="290" y="608" type="line"/>
			<point x="214" y="549" type="line"/>
			<point x="257" y="569"/>
			<point x="311" y="579"/>
			<point x="351" y="579" type="curve" smooth="yes"/>
			<point x="387" y="579"/>
			<point x="418" y="564"/>
			<point x="413" y="531" type="curve" smooth="yes"/>
			<point x="406" y="485"/>
			<point x="360" y="454"/>
			<point x="308" y="432" type="curve"/>
			<point x="452" y="469" type="line"/>
			<point x="85" y="469" type="line"/>
		</contour>
	</outline>
</glyph>
<glyph name="cedi" format="2">
	<advance width="646"/>
	<unicode hex="20B5"/>
	<guideline x="320" y="472" angle="261"/>
	<guideline x="449" y="472" angle="261"/>
	<outline>
		<contour>
			<point x="590" y="97" type="curve"/>
			<point x="526" y="220" type="line"/>
			<point x="463" y="183"/>
			<point x="408" y="162"/>
			<point x="361" y="162" type="curve" smooth="yes"/>
			<point x="292" y="162"/>
			<point x="256" y="208"/>
			<point x="256" y="308" type="curve" smooth="yes"/>
			<point x="256" y="430"/>
			<point x="309" y="555"/>
			<point x="434" y="555" type="curve" smooth="yes"/>
			<point x="464" y="555"/>
			<point x="516" y="548"/>
			<point x="572" y="507" type="curve"/>
			<point x="485" y="585" type="line"/>
			<point x="502" y="457" type="line"/>
			<point x="619" y="457" type="line"/>
			<point x="658" y="654" type="line"/>
			<point x="575" y="690"/>
			<point x="504" y="710"/>
			<point x="429" y="712" type="curve"/>
			<point x="480" y="668" type="line"/>
			<point x="506" y="833" type="line"/>
			<point x="376" y="833" type="line"/>
			<point x="350" y="662" type="line"/>
			<point x="412" y="710" type="line"/>
			<point x="190" y="700"/>
			<point x="44" y="519"/>
			<point x="44" y="296" type="curve" smooth="yes"/>
			<point x="44" y="108"/>
			<point x="148" y="2"/>
			<point x="305" y="0" type="curve"/>
			<point x="250" y="35" type="line"/>
			<point x="225" y="-125" type="line"/>
			<point x="354" y="-125" type="line"/>
			<point x="380" y="37" type="line"/>
			<point x="327" y="0" type="line"/>
			<point x="406" y="6"/>
			<point x="496" y="31"/>
		</contour>
	</outline>
</glyph>
<glyph name="tenge" format="2">
	<advance width="628"/>
	<unicode hex="20B8"/>
	<guideline x="628" y="385" angle="260.9759"/>
	<guideline x="39" y="394" angle="260.9759"/>
	<outline>
		<contour>
			<point x="109" y="0" type="line"/>
			<point x="441" y="0" type="line"/>
			<point x="457" y="100" type="line"/>
			<point x="377" y="133" type="line"/>
			<point x="388" y="105" type="line"/>
			<point x="447" y="475" type="line"/>
			<point x="400" y="445" type="line"/>
			<point x="537" y="445" type="line"/>
			<point x="498" y="475" type="line"/>
			<point x="509" y="354" type="line"/>
			<point x="623" y="354" type="line"/>
			<point x="659" y="580" type="line"/>
			<point x="69" y="580" type="line"/>
			<point x="33" y="354" type="line"/>
			<point x="147" y="354" type="line"/>
			<point x="198" y="483" type="line"/>
			<point x="147" y="445" type="line"/>
			<point x="280" y="445" type="line"/>
			<point x="250" y="475" type="line"/>
			<point x="191" y="105" type="line"/>
			<point x="215" y="131" type="line"/>
			<point x="125" y="100" type="line"/>
		</contour>
		<contour>
			<point x="75" y="620" type="line"/>
			<point x="665" y="620" type="line"/>
			<point x="680" y="710" type="line"/>
			<point x="89" y="710" type="line"/>
		</contour>
	</outline>
</glyph>
<glyph name="liraTurkish" format="2">
	<advance width="663"/>
	<unicode hex="20BA"/>
	<guideline x="401" y="544" angle="90"/>
	<outline>
		<contour>
			<point x="15" y="0" type="line"/>
			<point x="264" y="0" type="line" smooth="yes"/>
			<point x="495" y="0"/>
			<point x="612" y="132"/>
			<point x="644" y="334" type="curve"/>
			<point x="454" y="346" type="line"/>
			<point x="429" y="185"/>
			<point x="366" y="155"/>
			<point x="289" y="155" type="curve" smooth="yes"/>
			<point x="266" y="155" type="line"/>
			<point x="287" y="125" type="line"/>
			<point x="331" y="406" type="line"/>
			<point x="286" y="356" type="line"/>
			<point x="495" y="434" type="line"/>
			<point x="508" y="524" type="line"/>
			<point x="71" y="360" type="line"/>
			<point x="58" y="269" type="line"/>
			<point x="147" y="303" type="line"/>
			<point x="123" y="332" type="line"/>
			<point x="85" y="95" type="line"/>
			<point x="119" y="134" type="line"/>
			<point x="31" y="100" type="line"/>
		</contour>
		<contour>
			<point x="79" y="403" type="line"/>
			<point x="516" y="567" type="line"/>
			<point x="529" y="658" type="line"/>
			<point x="321" y="580" type="line"/>
			<point x="358" y="569" type="line"/>
			<point x="381" y="710" type="line"/>
			<point x="184" y="710" type="line"/>
			<point x="147" y="480" type="line"/>
			<point x="187" y="529" type="line"/>
			<point x="92" y="494" type="line"/>
		</contour>
	</outline>
</glyph>
<glyph name="manat" format="2">
	<advance width="898"/>
	<unicode hex="20BC"/>
	<guideline x="370" y="201" angle="261"/>
	<guideline x="504" y="201" angle="261"/>
	<outline>
		<contour>
			<point x="-17" y="0" type="line"/>
			<point x="218" y="0" type="line"/>
			<point x="288" y="373"/>
			<point x="347" y="543"/>
			<point x="467" y="543" type="curve"/>
			<point x="428" y="568" type="line"/>
			<point x="356" y="111" type="line"/>
			<point x="490" y="111" type="line"/>
			<point x="563" y="568" type="line"/>
			<point x="520" y="543" type="line"/>
			<point x="602" y="543"/>
			<point x="628" y="463"/>
			<point x="628" y="346" type="curve" smooth="yes"/>
			<point x="628" y="248"/>
			<point x="610" y="124"/>
			<point x="593" y="0" type="curve"/>
			<point x="828" y="0" type="line"/>
			<point x="843" y="100" type="line"/>
			<point x="790" y="122" type="line"/>
			<point x="802" y="69" type="line"/>
			<point x="812" y="148"/>
			<point x="818" y="226"/>
			<point x="818" y="297" type="curve" smooth="yes"/>
			<point x="818" y="527"/>
			<point x="754" y="699"/>
			<point x="540" y="699" type="curve"/>
			<point x="577" y="661" type="line"/>
			<point x="605" y="833" type="line"/>
			<point x="470" y="833" type="line"/>
			<point x="443" y="661" type="line"/>
			<point x="524" y="699" type="line"/>
			<point x="238" y="698"/>
			<point x="120" y="477"/>
			<point x="34" y="80" type="curve"/>
			<point x="62" y="123" type="line"/>
			<point x="-1" y="100" type="line"/>
		</contour>
	</outline>
</glyph>
<glyph name="ruble" format="2">
	<advance width="649"/>
	<unicode hex="20BD"/>
	<outline>
		<contour>
			<point x="69" y="285" type="line"/>
			<point x="400" y="285" type="line" smooth="yes"/>
			<point x="568" y="285"/>
			<point x="670" y="387"/>
			<point x="670" y="526" type="curve" smooth="yes"/>
			<point x="670" y="640"/>
			<point x="602" y="710"/>
			<point x="454" y="710" type="curve" smooth="yes"/>
			<point x="395" y="710" type="line"/>
			<point x="139" y="705" type="line"/>
			<point x="123" y="605" type="line"/>
			<point x="197" y="571" type="line"/>
			<point x="178" y="600" type="line"/>
			<point x="140" y="360" type="line"/>
			<point x="174" y="380" type="line"/>
			<point x="84" y="380" type="line"/>
		</contour>
		<contour>
			<point x="27" y="0" type="line"/>
			<point x="354" y="0" type="line"/>
			<point x="370" y="100" type="line"/>
			<point x="286" y="132" type="line"/>
			<point x="296" y="105" type="line"/>
			<point x="308" y="179" type="line"/>
			<point x="271" y="155" type="line"/>
			<point x="430" y="155" type="line"/>
			<point x="444" y="245" type="line"/>
			<point x="63" y="245" type="line"/>
			<point x="49" y="155" type="line"/>
			<point x="136" y="155" type="line"/>
			<point x="111" y="179" type="line"/>
			<point x="99" y="105" type="line"/>
			<point x="123" y="131" type="line"/>
			<point x="43" y="100" type="line"/>
		</contour>
		<contour>
			<point x="334" y="343" type="line"/>
			<point x="375" y="599" type="line"/>
			<point x="349" y="566" type="line"/>
			<point x="397" y="566" type="line" smooth="yes"/>
			<point x="425" y="566"/>
			<point x="465" y="566"/>
			<point x="465" y="495" type="curve" smooth="yes"/>
			<point x="465" y="435"/>
			<point x="437" y="376"/>
			<point x="351" y="376" type="curve" smooth="yes"/>
			<point x="310" y="376" type="line"/>
		</contour>
	</outline>
</glyph>
<glyph name="numero" format="2">
	<advance width="1194"/>
	<unicode hex="2116"/>
	<outline>
		<contour>
			<point x="941" y="301" type="curve" smooth="yes"/>
			<point x="1124" y="301"/>
			<point x="1195" y="428"/>
			<point x="1195" y="551" type="curve" smooth="yes"/>
			<point x="1195" y="667"/>
			<point x="1131" y="720"/>
			<point x="1012" y="720" type="curve" smooth="yes"/>
			<point x="834" y="720"/>
			<point x="762" y="601"/>
			<point x="762" y="473" type="curve" smooth="yes"/>
			<point x="762" y="345"/>
			<point x="834" y="301"/>
		</contour>
		<contour>
			<point x="728" y="122" type="line"/>
			<point x="1106" y="122" type="line"/>
			<point x="1128" y="262" type="line"/>
			<point x="750" y="262" type="line"/>
		</contour>
		<contour>
			<point x="960" y="416" type="curve" smooth="yes"/>
			<point x="942" y="416"/>
			<point x="930" y="426"/>
			<point x="930" y="471" type="curve" smooth="yes"/>
			<point x="930" y="503"/>
			<point x="936" y="605"/>
			<point x="996" y="605" type="curve" smooth="yes"/>
			<point x="1015" y="605"/>
			<point x="1028" y="595"/>
			<point x="1028" y="555" type="curve" smooth="yes"/>
			<point x="1028" y="519"/>
			<point x="1018" y="416"/>
		</contour>
		<contour>
			<point x="508" y="705" type="line"/>
			<point x="492" y="605" type="line"/>
			<point x="566" y="571" type="line"/>
			<point x="547" y="600" type="line"/>
			<point x="488" y="228" type="line"/>
			<point x="512" y="228" type="line"/>
			<point x="383" y="710" type="line"/>
			<point x="100" y="705" type="line"/>
			<point x="84" y="605" type="line"/>
			<point x="158" y="571" type="line"/>
			<point x="139" y="600" type="line"/>
			<point x="60" y="105" type="line"/>
			<point x="84" y="131" type="line"/>
			<point x="4" y="100" type="line"/>
			<point x="-12" y="0" type="line"/>
			<point x="260" y="0" type="line"/>
			<point x="276" y="100" type="line"/>
			<point x="210" y="132" type="line"/>
			<point x="220" y="105" type="line"/>
			<point x="282" y="495" type="line"/>
			<point x="260" y="495" type="line"/>
			<point x="397" y="0" type="line"/>
			<point x="611" y="0" type="line"/>
			<point x="707" y="600" type="line"/>
			<point x="685" y="572" type="line"/>
			<point x="763" y="610" type="line"/>
			<point x="779" y="710" type="line"/>
		</contour>
	</outline>
</glyph>
<glyph name="estimated" format="2">
	<advance width="636"/>
	<unicode hex="212E"/>
	<outline>
		<contour>
			<point x="326" y="-5" type="curve" smooth="yes"/>
			<point x="427" y="-5"/>
			<point x="511" y="40"/>
			<point x="565" y="107" type="curve"/>
			<point x="538" y="128" type="line"/>
			<point x="489" y="69"/>
			<point x="418" y="31"/>
			<point x="328" y="31" type="curve" smooth="yes"/>
			<point x="264" y="31"/>
			<point x="204" y="56"/>
			<point x="157" y="96" type="curve"/>
			<point x="162" y="73" type="line"/>
			<point x="162" y="497" type="line"/>
			<point x="158" y="474" type="line"/>
			<point x="204" y="512"/>
			<point x="262" y="536"/>
			<point x="326" y="536" type="curve" smooth="yes"/>
			<point x="390" y="536"/>
			<point x="449" y="511"/>
			<point x="496" y="472" type="curve"/>
			<point x="492" y="495" type="line"/>
			<point x="492" y="301" type="line"/>
			<point x="501" y="320" type="line"/>
			<point x="132" y="320" type="line"/>
			<point x="132" y="285" type="line"/>
			<point x="619" y="285" type="line"/>
			<point x="618" y="443"/>
			<point x="487" y="572"/>
			<point x="328" y="572" type="curve" smooth="yes"/>
			<point x="170" y="572"/>
			<point x="34" y="439"/>
			<point x="34" y="283" type="curve" smooth="yes"/>
			<point x="34" y="124"/>
			<point x="167" y="-5"/>
		</contour>
	</outline>
</glyph>
<glyph name="rightArrow" format="2">
	<advance width="740"/>
	<unicode hex="2192"/>
	<outline>
		<contour>
			<point x="559" y="409" type="line"/>
			<point x="49" y="409" type="line"/>
			<point x="25" y="254" type="line"/>
			<point x="535" y="254" type="line"/>
			<point x="540" y="302" type="line"/>
			<point x="305" y="78" type="line"/>
			<point x="395" y="-16" type="line"/>
			<point x="725" y="293" type="line"/>
			<point x="734" y="370" type="line"/>
			<point x="498" y="679" type="line"/>
			<point x="387" y="588" type="line"/>
			<point x="551" y="352" type="line"/>
		</contour>
	</outline>
</glyph>
<glyph name="upDownbaseArrow" format="2">
	<advance width="716"/>
	<unicode hex="21A8"/>
	<outline>
		<contour>
			<point x="276" y="-46" type="line"/>
			<point x="350" y="-46" type="line"/>
			<point x="692" y="249" type="line"/>
			<point x="612" y="343" type="line"/>
			<point x="365" y="142" type="line"/>
			<point x="425" y="141" type="line"/>
			<point x="514" y="702" type="line"/>
			<point x="454" y="702" type="line"/>
			<point x="641" y="497" type="line"/>
			<point x="739" y="590" type="line"/>
			<point x="495" y="890" type="line"/>
			<point x="422" y="890" type="line"/>
			<point x="70" y="595" type="line"/>
			<point x="156" y="501" type="line"/>
			<point x="404" y="702" type="line"/>
			<point x="346" y="703" type="line"/>
			<point x="258" y="142" type="line"/>
			<point x="311" y="142" type="line"/>
			<point x="128" y="347" type="line"/>
			<point x="25" y="249" type="line"/>
		</contour>
		<contour>
			<point x="-32" y="-230" type="line"/>
			<point x="597" y="-230" type="line"/>
			<point x="619" y="-90" type="line"/>
			<point x="-10" y="-90" type="line"/>
		</contour>
	</outline>
</glyph>
<glyph name="partialdiff" format="2">
	<advance width="592"/>
	<unicode hex="2202"/>
	<outline>
		<contour>
			<point x="240" y="-15" type="curve" smooth="yes"/>
			<point x="452" y="-15"/>
			<point x="569" y="172"/>
			<point x="569" y="387" type="curve" smooth="yes"/>
			<point x="569" y="564"/>
			<point x="489" y="694"/>
			<point x="255" y="794" type="curve"/>
			<point x="176" y="651" type="line"/>
			<point x="322" y="584"/>
			<point x="380" y="519"/>
			<point x="380" y="446" type="curve" smooth="yes"/>
			<point x="380" y="437"/>
			<point x="379" y="428"/>
			<point x="378" y="419" type="curve"/>
			<point x="416" y="423" type="line"/>
			<point x="372" y="457"/>
			<point x="322" y="473"/>
			<point x="273" y="473" type="curve" smooth="yes"/>
			<point x="143" y="473"/>
			<point x="18" y="362"/>
			<point x="18" y="197" type="curve" smooth="yes"/>
			<point x="18" y="57"/>
			<point x="109" y="-15"/>
		</contour>
		<contour>
			<point x="262" y="130" type="curve" smooth="yes"/>
			<point x="230" y="130"/>
			<point x="216" y="154"/>
			<point x="216" y="194" type="curve" smooth="yes"/>
			<point x="216" y="261"/>
			<point x="253" y="343"/>
			<point x="324" y="343" type="curve" smooth="yes"/>
			<point x="343" y="343"/>
			<point x="365" y="337"/>
			<point x="385" y="318" type="curve"/>
			<point x="370" y="354" type="line"/>
			<point x="366" y="208"/>
			<point x="321" y="130"/>
		</contour>
	</outline>
</glyph>
<glyph name="product" format="2">
	<advance width="738"/>
	<unicode hex="220F"/>
	<outline>
		<contour>
			<point x="-46" y="-230" type="line"/>
			<point x="261" y="-230" type="line"/>
			<point x="276" y="-130" type="line"/>
			<point x="207" y="-96" type="line"/>
			<point x="225" y="-135" type="line"/>
			<point x="340" y="611" type="line"/>
			<point x="305" y="565" type="line"/>
			<point x="525" y="565" type="line"/>
			<point x="504" y="610" type="line"/>
			<point x="389" y="-135" type="line"/>
			<point x="418" y="-96" type="line"/>
			<point x="335" y="-130" type="line"/>
			<point x="320" y="-230" type="line"/>
			<point x="627" y="-230" type="line"/>
			<point x="642" y="-130" type="line"/>
			<point x="567" y="-96" type="line"/>
			<point x="586" y="-135" type="line"/>
			<point x="701" y="611" type="line"/>
			<point x="670" y="570" type="line"/>
			<point x="760" y="610" type="line"/>
			<point x="776" y="710" type="line"/>
			<point x="357" y="710" type="line"/>
			<point x="102" y="705" type="line"/>
			<point x="87" y="605" type="line"/>
			<point x="168" y="569" type="line"/>
			<point x="143" y="610" type="line"/>
			<point x="28" y="-135" type="line"/>
			<point x="58" y="-96" type="line"/>
			<point x="-31" y="-130" type="line"/>
		</contour>
	</outline>
</glyph>
<glyph name="infinity" format="2">
	<advance width="907"/>
	<unicode hex="221E"/>
	<guideline x="-140" y="85" angle="0"/>
	<outline>
		<contour>
			<point x="232" y="102" type="curve" smooth="yes"/>
			<point x="466" y="102"/>
			<point x="541" y="412"/>
			<point x="655" y="412" type="curve" smooth="yes"/>
			<point x="688" y="412"/>
			<point x="701" y="387"/>
			<point x="701" y="352" type="curve" smooth="yes"/>
			<point x="701" y="304"/>
			<point x="676" y="243"/>
			<point x="622" y="243" type="curve" smooth="yes"/>
			<point x="577" y="243"/>
			<point x="527" y="287"/>
			<point x="513" y="354" type="curve"/>
			<point x="391" y="280" type="line"/>
			<point x="444" y="166"/>
			<point x="536" y="102"/>
			<point x="640" y="102" type="curve" smooth="yes"/>
			<point x="792" y="102"/>
			<point x="876" y="237"/>
			<point x="876" y="365" type="curve" smooth="yes"/>
			<point x="876" y="471"/>
			<point x="819" y="555"/>
			<point x="696" y="555" type="curve" smooth="yes"/>
			<point x="461" y="555"/>
			<point x="390" y="245"/>
			<point x="272" y="245" type="curve" smooth="yes"/>
			<point x="237" y="245"/>
			<point x="224" y="272"/>
			<point x="224" y="308" type="curve" smooth="yes"/>
			<point x="224" y="354"/>
			<point x="245" y="414"/>
			<point x="297" y="414" type="curve" smooth="yes"/>
			<point x="341" y="414"/>
			<point x="399" y="370"/>
			<point x="414" y="303" type="curve"/>
			<point x="535" y="377" type="line"/>
			<point x="483" y="491"/>
			<point x="393" y="555"/>
			<point x="287" y="555" type="curve" smooth="yes"/>
			<point x="134" y="555"/>
			<point x="49" y="420"/>
			<point x="49" y="290" type="curve" smooth="yes"/>
			<point x="49" y="170"/>
			<point x="122" y="102"/>
		</contour>
	</outline>
</glyph>
<glyph name="lessequal" format="2">
	<advance width="554"/>
	<unicode hex="2264"/>
	<guideline x="-112" y="365" angle="90"/>
	<guideline x="85" y="509" angle="261"/>
	<outline>
		<contour>
			<point x="451" y="195" type="line"/>
			<point x="513" y="334" type="line"/>
			<point x="224" y="448" type="line"/>
			<point x="219" y="412" type="line"/>
			<point x="549" y="539" type="line"/>
			<point x="502" y="683" type="line"/>
			<point x="85" y="509" type="line"/>
			<point x="64" y="365" type="line"/>
		</contour>
		<contour>
			<point x="486" y="169" type="line"/>
			<point x="31" y="169" type="line"/>
			<point x="9" y="29" type="line"/>
			<point x="464" y="29" type="line"/>
		</contour>
	</outline>
</glyph>
<glyph name="house" format="2">
	<advance width="581"/>
	<unicode hex="2302"/>
	<outline>
		<contour>
			<point x="541" y="327" type="line"/>
			<point x="376" y="540" type="line"/>
			<point x="289" y="540" type="line"/>
			<point x="56" y="327" type="line"/>
			<point x="6" y="0" type="line"/>
			<point x="491" y="0" type="line"/>
		</contour>
		<contour>
			<point x="258" y="428" type="line"/>
			<point x="389" y="251" type="line"/>
			<point x="372" y="317" type="line"/>
			<point x="343" y="115" type="line"/>
			<point x="386" y="145" type="line"/>
			<point x="160" y="145" type="line"/>
			<point x="194" y="115" type="line"/>
			<point x="224" y="322" type="line"/>
			<point x="187" y="250" type="line"/>
			<point x="377" y="427" type="line"/>
		</contour>
	</outline>
</glyph>
<glyph name="whiteDiamond" format="2">
	<advance width="654"/>
	<unicode hex="25C7"/>
	<outline>
		<contour>
			<point x="18" y="307" type="line"/>
			<point x="282" y="-21" type="line"/>
			<point x="648" y="311" type="line"/>
			<point x="384" y="638" type="line"/>
		</contour>
		<contour>
			<point x="168" y="257" type="line"/>
			<point x="410" y="475" type="line"/>
			<point x="296" y="482" type="line"/>
			<point x="489" y="240" type="line"/>
			<point x="498" y="360" type="line"/>
			<point x="256" y="143" type="line"/>
			<point x="370" y="136" type="line"/>
			<point x="177" y="377" type="line"/>
		</contour>
	</outline>
</glyph>
<glyph name="fl" format="2">
	<advance width="707"/>
	<unicode hex="FB02"/>
	<guideline x="497" y="710" angle="90"/>
	<outline>
		<contour>
			<point x="-47" y="-245" type="curve" smooth="yes"/>
			<point x="53" y="-245"/>
			<point x="191" y="-202"/>
			<point x="228" y="30" type="curve" smooth="yes"/>
			<point x="293" y="440" type="line"/>
			<point x="256" y="405" type="line"/>
			<point x="395" y="405" type="line"/>
			<point x="416" y="535" type="line"/>
			<point x="278" y="535" type="line"/>
			<point x="302" y="499" type="line"/>
			<point x="316" y="585" type="line" smooth="yes"/>
			<point x="325" y="640"/>
			<point x="365" y="657"/>
			<point x="416" y="657" type="curve" smooth="yes"/>
			<point x="457" y="657"/>
			<point x="506" y="646"/>
			<point x="549" y="634" type="curve"/>
			<point x="510" y="676" type="line"/>
			<point x="402" y="-6" type="line"/>
			<point x="661" y="0" type="line"/>
			<point x="678" y="103" type="line"/>
			<point x="528" y="160" type="line"/>
			<point x="601" y="33" type="line"/>
			<point x="719" y="785" type="line"/>
			<point x="462" y="771" type="line"/>
			<point x="569" y="757" type="line"/>
			<point x="500" y="782"/>
			<point x="435" y="795"/>
			<point x="377" y="795" type="curve" smooth="yes"/>
			<point x="242" y="795"/>
			<point x="146" y="725"/>
			<point x="122" y="570" type="curve" smooth="yes"/>
			<point x="111" y="500" type="line"/>
			<point x="137" y="540" type="line"/>
			<point x="39" y="510" type="line"/>
			<point x="22" y="405" type="line"/>
			<point x="130" y="405" type="line"/>
			<point x="101" y="440" type="line"/>
			<point x="28" y="-19" type="line" smooth="yes"/>
			<point x="17" y="-86"/>
			<point x="-24" y="-105"/>
			<point x="-67" y="-105" type="curve" smooth="yes"/>
			<point x="-81" y="-105"/>
			<point x="-94" y="-103"/>
			<point x="-107" y="-101" type="curve"/>
			<point x="-138" y="-235" type="line"/>
			<point x="-117" y="-239"/>
			<point x="-85" y="-245"/>
		</contour>
	</outline>
</glyph>
<glyph name="Ef-cy.loclBGR" format="2">
	<advance width="783"/>
	<outline>
		<contour>
			<point x="594" y="666" type="line"/>
			<point x="609" y="766" type="line"/>
			<point x="331" y="761" type="line"/>
			<point x="316" y="661" type="line"/>
			<point x="390" y="627" type="line"/>
			<point x="373" y="656" type="line"/>
			<point x="276" y="39" type="line"/>
			<point x="296" y="65" type="line"/>
			<point x="216" y="34" type="line"/>
			<point x="200" y="-66" type="line"/>
			<point x="478" y="-66" type="line"/>
			<point x="493" y="34" type="line"/>
			<point x="424" y="66" type="line"/>
			<point x="438" y="39" type="line"/>
			<point x="536" y="656" type="line"/>
			<point x="511" y="628" type="line"/>
		</contour>
		<contour>
			<point x="345" y="80" type="curve" smooth="yes"/>
			<point x="599" y="80"/>
			<point x="780" y="179"/>
			<point x="780" y="384" type="curve" smooth="yes"/>
			<point x="780" y="539"/>
			<point x="677" y="614"/>
			<point x="452" y="614" type="curve" smooth="yes"/>
			<point x="198" y="614"/>
			<point x="28" y="519"/>
			<point x="28" y="311" type="curve" smooth="yes"/>
			<point x="28" y="153"/>
			<point x="127" y="80"/>
		</contour>
		<contour>
			<point x="354" y="193" type="curve" smooth="yes"/>
			<point x="254" y="193"/>
			<point x="227" y="217"/>
			<point x="227" y="306" type="curve" smooth="yes"/>
			<point x="227" y="436"/>
			<point x="284" y="501"/>
			<point x="455" y="501" type="curve" smooth="yes"/>
			<point x="554" y="501"/>
			<point x="582" y="479"/>
			<point x="582" y="390" type="curve" smooth="yes"/>
			<point x="582" y="262"/>
			<point x="523" y="193"/>
		</contour>
	</outline>
</glyph>
<glyph name="Esdescender-cy.loclBSH" format="2">
	<advance width="606"/>
	<outline>
		<contour>
			<point x="291" y="-15" type="curve" smooth="yes"/>
			<point x="374" y="-15"/>
			<point x="467" y="17"/>
			<point x="558" y="82" type="curve"/>
			<point x="496" y="205" type="line"/>
			<point x="436" y="168"/>
			<point x="382" y="147"/>
			<point x="339" y="147" type="curve" smooth="yes"/>
			<point x="279" y="147"/>
			<point x="244" y="188"/>
			<point x="244" y="295" type="curve" smooth="yes"/>
			<point x="244" y="423"/>
			<point x="294" y="570"/>
			<point x="412" y="570" type="curve" smooth="yes"/>
			<point x="434" y="570"/>
			<point x="462" y="565"/>
			<point x="497" y="551" type="curve"/>
			<point x="464" y="579" type="line"/>
			<point x="478" y="472" type="line"/>
			<point x="593" y="472" type="line"/>
			<point x="633" y="669" type="line"/>
			<point x="554" y="705"/>
			<point x="485" y="725"/>
			<point x="412" y="725" type="curve" smooth="yes"/>
			<point x="180" y="725"/>
			<point x="36" y="524"/>
			<point x="36" y="288" type="curve" smooth="yes"/>
			<point x="36" y="80"/>
			<point x="147" y="-15"/>
		</contour>
		<contour>
			<point x="271" y="-244" type="curve" smooth="yes"/>
			<point x="326" y="-244"/>
			<point x="383" y="-210"/>
			<point x="383" y="-138" type="curve" smooth="yes"/>
			<point x="383" y="-94"/>
			<point x="361" y="-48"/>
			<point x="315" y="-8" type="curve"/>
			<point x="218" y="-3" type="line"/>
			<point x="238" y="-18"/>
			<point x="249" y="-55"/>
			<point x="252" y="-80" type="curve"/>
			<point x="254" y="-74" type="line"/>
			<point x="171" y="-153" type="line"/>
			<point x="168" y="-213"/>
			<point x="219" y="-244"/>
		</contour>
	</outline>
</glyph>
<glyph name="Q.alt" format="2">
	<advance width="710"/>
	<anchor x="306" y="0" name="bottom"/>
	<anchor x="419" y="710" name="top"/>
	<outline>
		<contour>
			<point x="572" y="-213" type="curve" smooth="yes"/>
			<point x="603" y="-213"/>
			<point x="636" y="-203"/>
			<point x="671" y="-180" type="curve"/>
			<point x="656" y="-228" type="line"/>
			<point x="613" y="-27" type="line"/>
			<point x="683" y="-17" type="line"/>
			<point x="640" y="-41"/>
			<point x="609" y="-53"/>
			<point x="579" y="-53" type="curve" smooth="yes"/>
			<point x="534" y="-53"/>
			<point x="492" y="-26"/>
			<point x="414" y="28" type="curve"/>
			<point x="421" y="-2" type="line"/>
			<point x="627" y="53"/>
			<point x="700" y="267"/>
			<point x="700" y="433" type="curve" smooth="yes"/>
			<point x="700" y="616"/>
			<point x="612" y="725"/>
			<point x="423" y="725" type="curve" smooth="yes"/>
			<point x="134" y="725"/>
			<point x="36" y="472"/>
			<point x="36" y="278" type="curve" smooth="yes"/>
			<point x="36" y="106"/>
			<point x="113" y="-3"/>
			<point x="286" y="-14" type="curve"/>
			<point x="251" y="5" type="line"/>
			<point x="382" y="-115"/>
			<point x="475" y="-213"/>
		</contour>
		<contour>
			<point x="329" y="138" type="curve" smooth="yes"/>
			<point x="272" y="138"/>
			<point x="241" y="174"/>
			<point x="241" y="271" type="curve" smooth="yes"/>
			<point x="241" y="361"/>
			<point x="268" y="570"/>
			<point x="407" y="570" type="curve" smooth="yes"/>
			<point x="464" y="570"/>
			<point x="495" y="535"/>
			<point x="495" y="440" type="curve" smooth="yes"/>
			<point x="495" y="349"/>
			<point x="467" y="138"/>
		</contour>
	</outline>
</glyph>
<glyph name="Tetse-cy.bolder" format="2">
	<advance width="930"/>
	<outline>
		<contour>
			<point x="727" y="-200" type="line"/>
			<point x="841" y="-200" type="line"/>
			<point x="893" y="135" type="line"/>
			<point x="774" y="145" type="line"/>
			<point x="792" y="95" type="line"/>
			<point x="871" y="598" type="line"/>
			<point x="850" y="572" type="line"/>
			<point x="933" y="610" type="line"/>
			<point x="949" y="710" type="line"/>
			<point x="690" y="705" type="line"/>
			<point x="595" y="95" type="line"/>
			<point x="639" y="145" type="line"/>
			<point x="372" y="145" type="line"/>
			<point x="389" y="105" type="line"/>
			<point x="467" y="595" type="line"/>
			<point x="421" y="565" type="line"/>
			<point x="518" y="565" type="line"/>
			<point x="483" y="595" type="line"/>
			<point x="494" y="474" type="line"/>
			<point x="608" y="474" type="line"/>
			<point x="646" y="710" type="line"/>
			<point x="89" y="710" type="line"/>
			<point x="52" y="474" type="line"/>
			<point x="167" y="474" type="line"/>
			<point x="216" y="603" type="line"/>
			<point x="169" y="565" type="line"/>
			<point x="301" y="565" type="line"/>
			<point x="270" y="596" type="line"/>
			<point x="192" y="104" type="line"/>
			<point x="217" y="132" type="line"/>
			<point x="131" y="100" type="line"/>
			<point x="115" y="0" type="line"/>
			<point x="712" y="0" type="line"/>
			<point x="696" y="18" type="line"/>
		</contour>
	</outline>
</glyph>
<glyph name="a.sc.ogonekAccent" format="2">
	<advance width="659"/>
	<anchor x="271" y="0" name="bottom"/>
	<anchor x="536" y="0" name="ogonek"/>
	<anchor x="389" y="591" name="top"/>
	<outline>
		<contour>
			<point x="600" y="91" type="line"/>
			<point x="495" y="596" type="line"/>
			<point x="279" y="591" type="line"/>
			<point x="11" y="99" type="line"/>
			<point x="55" y="130" type="line"/>
			<point x="-26" y="100" type="line"/>
			<point x="-41" y="0" type="line"/>
			<point x="230" y="0" type="line"/>
			<point x="245" y="100" type="line"/>
			<point x="200" y="130" type="line"/>
			<point x="200" y="106" type="line"/>
			<point x="229" y="174" type="line"/>
			<point x="205" y="151" type="line"/>
			<point x="387" y="151" type="line"/>
			<point x="368" y="179" type="line"/>
			<point x="394" y="0" type="line"/>
			<point x="615" y="0" type="line"/>
			<point x="631" y="100" type="line"/>
			<point x="565" y="132" type="line"/>
		</contour>
		<contour>
			<point x="261" y="246" type="line"/>
			<point x="377" y="489" type="line"/>
			<point x="342" y="490" type="line"/>
			<point x="363" y="244" type="line"/>
			<point x="377" y="277" type="line"/>
			<point x="263" y="277" type="line"/>
		</contour>
	</outline>
</glyph>
<glyph name="acute.case.loclPLK" format="2">
	<advance width="234"/>
	<guideline x="166" y="756" angle="0"/>
	<guideline x="433" y="998" angle="0"/>
	<anchor x="145" y="710" name="_top"/>
	<anchor x="190" y="980" name="top"/>
	<outline>
		<contour>
			<point x="163" y="749" type="line"/>
			<point x="349" y="929" type="line"/>
			<point x="239" y="1018" type="line"/>
			<point x="82" y="812" type="line"/>
		</contour>
	</outline>
</glyph>
<glyph name="acutecomb.case" format="2">
	<advance width="393"/>
	<guideline x="292" y="756" angle="0"/>
	<guideline x="559" y="1002" angle="0"/>
	<guideline x="71" y="540" angle="261"/>
	<guideline x="239" y="540" angle="261"/>
	<anchor x="266" y="710" name="_top"/>
	<anchor x="304" y="950" name="top"/>
	<outline>
		<contour>
			<point x="167" y="756" type="line"/>
			<point x="456" y="858" type="line"/>
			<point x="397" y="1001" type="line"/>
			<point x="122" y="847" type="line"/>
		</contour>
	</outline>
</glyph>
<glyph name="acutedbl" format="2">
	<advance width="238"/>
	<anchor x="111" y="540" name="_top"/>
	<anchor x="37" y="540" name="_topright"/>
	<outline>
		<contour>
			<point x="124" y="602" type="line"/>
			<point x="321" y="750" type="line"/>
			<point x="239" y="851" type="line"/>
			<point x="59" y="679" type="line"/>
		</contour>
	</outline>
</glyph>
<glyph name="ampersand.sc" format="2">
	<advance width="636"/>
	<outline>
		<contour>
			<point x="254" y="-15" type="curve" smooth="yes"/>
			<point x="410" y="-15"/>
			<point x="529" y="60"/>
			<point x="546" y="187" type="curve" smooth="yes"/>
			<point x="558" y="276" type="line"/>
			<point x="536" y="244" type="line"/>
			<point x="616" y="270" type="line"/>
			<point x="632" y="374" type="line"/>
			<point x="329" y="374" type="line" smooth="yes"/>
			<point x="311" y="374"/>
			<point x="276" y="385"/>
			<point x="276" y="418" type="curve" smooth="yes"/>
			<point x="276" y="451"/>
			<point x="308" y="464"/>
			<point x="345" y="464" type="curve" smooth="yes"/>
			<point x="371" y="464"/>
			<point x="399" y="458"/>
			<point x="421" y="448" type="curve"/>
			<point x="398" y="471" type="line"/>
			<point x="403" y="416" type="line"/>
			<point x="520" y="416" type="line"/>
			<point x="554" y="569" type="line"/>
			<point x="489" y="594"/>
			<point x="416" y="607"/>
			<point x="348" y="607" type="curve" smooth="yes"/>
			<point x="197" y="607"/>
			<point x="77" y="544"/>
			<point x="77" y="428" type="curve" smooth="yes"/>
			<point x="77" y="350"/>
			<point x="131" y="305"/>
			<point x="239" y="297" type="curve"/>
			<point x="237" y="321" type="line"/>
			<point x="117" y="315"/>
			<point x="14" y="250"/>
			<point x="14" y="143" type="curve" smooth="yes"/>
			<point x="14" y="38"/>
			<point x="122" y="-15"/>
		</contour>
		<contour>
			<point x="284" y="135" type="curve" smooth="yes"/>
			<point x="250" y="135"/>
			<point x="224" y="151"/>
			<point x="224" y="181" type="curve" smooth="yes"/>
			<point x="224" y="208"/>
			<point x="244" y="233"/>
			<point x="286" y="233" type="curve" smooth="yes"/>
			<point x="393" y="233" type="line"/>
			<point x="363" y="256" type="line"/>
			<point x="354" y="193" type="line" smooth="yes"/>
			<point x="347" y="147"/>
			<point x="313" y="135"/>
		</contour>
	</outline>
</glyph>
<glyph name="b.sc" format="2">
	<advance width="598"/>
	<guideline x="151" y="726" angle="261"/>
	<guideline x="346" y="726" angle="261"/>
	<guideline x="103" y="726" angle="261"/>
	<anchor x="266" y="0" name="bottom"/>
	<anchor x="359" y="590" name="top"/>
	<outline>
		<contour>
			<point x="-12" y="0" type="line"/>
			<point x="283" y="0" type="line" smooth="yes"/>
			<point x="445" y="0"/>
			<point x="563" y="55"/>
			<point x="563" y="188" type="curve" smooth="yes"/>
			<point x="563" y="284"/>
			<point x="501" y="310"/>
			<point x="358" y="312" type="curve"/>
			<point x="343" y="293" type="line"/>
			<point x="484" y="291"/>
			<point x="583" y="339"/>
			<point x="583" y="461" type="curve" smooth="yes"/>
			<point x="583" y="562"/>
			<point x="514" y="591"/>
			<point x="389" y="591" type="curve" smooth="yes"/>
			<point x="317" y="591" type="line"/>
			<point x="81" y="589" type="line"/>
			<point x="65" y="489" type="line"/>
			<point x="138" y="455" type="line"/>
			<point x="114" y="494" type="line"/>
			<point x="51" y="93" type="line"/>
			<point x="80" y="131" type="line"/>
			<point x="4" y="100" type="line"/>
		</contour>
		<contour>
			<point x="248" y="109" type="line"/>
			<point x="275" y="277" type="line"/>
			<point x="242" y="247" type="line"/>
			<point x="314" y="247" type="line" smooth="yes"/>
			<point x="355" y="247"/>
			<point x="363" y="230"/>
			<point x="363" y="205" type="curve" smooth="yes"/>
			<point x="363" y="153"/>
			<point x="329" y="138"/>
			<point x="277" y="138" type="curve" smooth="yes"/>
			<point x="224" y="138" type="line"/>
		</contour>
		<contour>
			<point x="285" y="341" type="line"/>
			<point x="307" y="482" type="line"/>
			<point x="274" y="453" type="line"/>
			<point x="326" y="453" type="line" smooth="yes"/>
			<point x="368" y="453"/>
			<point x="385" y="450"/>
			<point x="385" y="419" type="curve" smooth="yes"/>
			<point x="385" y="374"/>
			<point x="348" y="367"/>
			<point x="300" y="367" type="curve" smooth="yes"/>
			<point x="261" y="367" type="line"/>
		</contour>
	</outline>
</glyph>
<glyph name="c_t" format="2">
	<advance width="893"/>
	<guideline x="561" y="445" angle="261"/>
	<guideline x="754" y="445" angle="261"/>
	<outline>
		<contour>
			<point x="405" y="548" type="line"/>
			<point x="380" y="553"/>
			<point x="356" y="555"/>
			<point x="334" y="555" type="curve" smooth="yes"/>
			<point x="152" y="555"/>
			<point x="12" y="419"/>
			<point x="12" y="224" type="curve" smooth="yes"/>
			<point x="12" y="62"/>
			<point x="110" y="-15"/>
			<point x="233" y="-15" type="curve" smooth="yes"/>
			<point x="299" y="-15"/>
			<point x="372" y="7"/>
			<point x="441" y="49" type="curve"/>
			<point x="389" y="165" type="line"/>
			<point x="347" y="143"/>
			<point x="310" y="129"/>
			<point x="279" y="129" type="curve" smooth="yes"/>
			<point x="235" y="129"/>
			<point x="208" y="158"/>
			<point x="208" y="238" type="curve" smooth="yes"/>
			<point x="208" y="330"/>
			<point x="244" y="416"/>
			<point x="312" y="416" type="curve" smooth="yes"/>
			<point x="327" y="416"/>
			<point x="344" y="412"/>
			<point x="362" y="402" type="curve"/>
			<point x="344" y="419" type="line"/>
			<point x="346" y="349" type="line"/>
			<point x="471" y="349" type="line"/>
			<point x="483" y="543"/>
			<point x="478" y="611"/>
			<point x="543" y="611" type="curve" smooth="yes"/>
			<point x="555" y="611"/>
			<point x="570" y="609"/>
			<point x="598" y="601" type="curve"/>
			<point x="590" y="628" type="line"/>
			<point x="572" y="515" type="line"/>
			<point x="605" y="548" type="line"/>
			<point x="507" y="515" type="line"/>
			<point x="490" y="410" type="line"/>
			<point x="577" y="410" type="line"/>
			<point x="559" y="434" type="line"/>
			<point x="521" y="190" type="line" smooth="yes"/>
			<point x="518" y="170"/>
			<point x="517" y="155"/>
			<point x="517" y="141" type="curve" smooth="yes"/>
			<point x="517" y="32"/>
			<point x="583" y="-15"/>
			<point x="678" y="-15" type="curve" smooth="yes"/>
			<point x="729" y="-15"/>
			<point x="789" y="-1"/>
			<point x="851" y="24" type="curve"/>
			<point x="814" y="147" type="line"/>
			<point x="789" y="137"/>
			<point x="767" y="131"/>
			<point x="751" y="131" type="curve" smooth="yes"/>
			<point x="726" y="131"/>
			<point x="713" y="144"/>
			<point x="713" y="176" type="curve" smooth="yes"/>
			<point x="713" y="185"/>
			<point x="714" y="194"/>
			<point x="715" y="200" type="curve" smooth="yes"/>
			<point x="752" y="434" type="line"/>
			<point x="729" y="410" type="line"/>
			<point x="878" y="410" type="line"/>
			<point x="899" y="540" type="line"/>
			<point x="753" y="540" type="line"/>
			<point x="765" y="515" type="line"/>
			<point x="793" y="693" type="line"/>
			<point x="690" y="710"/>
			<point x="616" y="721"/>
			<point x="556" y="721" type="curve" smooth="yes"/>
			<point x="435" y="721"/>
			<point x="372" y="676"/>
			<point x="372" y="540" type="curve"/>
		</contour>
	</outline>
</glyph>
<glyph name="che-cy.loclBGR" format="2">
	<advance width="614"/>
	<anchor x="571" y="0" name="bottomright"/>
	<anchor x="290" y="200" name="center"/>
	<anchor x="342" y="540" name="top"/>
	<outline>
		<contour>
			<point x="310" y="-6" type="line"/>
			<point x="571" y="0" type="line"/>
			<point x="587" y="99" type="line"/>
			<point x="499" y="133" type="line"/>
			<point x="520" y="100" type="line"/>
			<point x="590" y="540" type="line"/>
			<point x="396" y="540" type="line"/>
			<point x="368" y="349" type="line" smooth="yes"/>
			<point x="360" y="296"/>
			<point x="317" y="271"/>
			<point x="285" y="271" type="curve" smooth="yes"/>
			<point x="253" y="271"/>
			<point x="255" y="297"/>
			<point x="259" y="321" type="curve" smooth="yes"/>
			<point x="292" y="544" type="line"/>
			<point x="46" y="536" type="line"/>
			<point x="31" y="436" type="line"/>
			<point x="124" y="393" type="line"/>
			<point x="83" y="441" type="line"/>
			<point x="56" y="253" type="line" smooth="yes"/>
			<point x="45" y="177"/>
			<point x="88" y="119"/>
			<point x="187" y="119" type="curve" smooth="yes"/>
			<point x="299" y="119"/>
			<point x="414" y="185"/>
			<point x="445" y="329" type="curve"/>
			<point x="360" y="228" type="line"/>
		</contour>
	</outline>
</glyph>
<glyph name="dieresisacutecomb" format="2">
	<advance width="498"/>
	<guideline x="188" y="578" angle="0"/>
	<guideline x="578" y="928" angle="0"/>
	<guideline x="114" y="780" angle="261"/>
	<guideline x="544" y="780" angle="261"/>
	<guideline x="329" y="780" angle="261"/>
	<anchor x="291" y="540" name="_top"/>
	<outline>
		<contour>
			<point x="431" y="578" type="curve" smooth="yes"/>
			<point x="484" y="578"/>
			<point x="527" y="618"/>
			<point x="527" y="687" type="curve" smooth="yes"/>
			<point x="527" y="740"/>
			<point x="496" y="772"/>
			<point x="444" y="772" type="curve" smooth="yes"/>
			<point x="391" y="772"/>
			<point x="349" y="731"/>
			<point x="349" y="663" type="curve" smooth="yes"/>
			<point x="349" y="610"/>
			<point x="378" y="578"/>
		</contour>
		<contour>
			<point x="180" y="578" type="curve" smooth="yes"/>
			<point x="232" y="578"/>
			<point x="277" y="618"/>
			<point x="277" y="687" type="curve" smooth="yes"/>
			<point x="277" y="740"/>
			<point x="246" y="772"/>
			<point x="193" y="772" type="curve" smooth="yes"/>
			<point x="140" y="772"/>
			<point x="99" y="731"/>
			<point x="99" y="663" type="curve" smooth="yes"/>
			<point x="99" y="610"/>
			<point x="128" y="578"/>
		</contour>
		<contour>
			<point x="312" y="715" type="line"/>
			<point x="509" y="863" type="line"/>
			<point x="427" y="964" type="line"/>
			<point x="247" y="792" type="line"/>
		</contour>
	</outline>
</glyph>
<glyph name="eight.dnom" format="2">
	<advance width="378"/>
	<outline>
		<contour>
			<point x="141" y="-13" type="curve" smooth="yes"/>
			<point x="241" y="-13"/>
			<point x="350" y="37"/>
			<point x="350" y="139" type="curve" smooth="yes"/>
			<point x="350" y="273"/>
			<point x="165" y="259"/>
			<point x="165" y="319" type="curve" smooth="yes"/>
			<point x="165" y="336"/>
			<point x="181" y="349"/>
			<point x="200" y="349" type="curve" smooth="yes"/>
			<point x="216" y="349"/>
			<point x="233" y="338"/>
			<point x="233" y="318" type="curve" smooth="yes"/>
			<point x="233" y="284"/>
			<point x="191" y="246"/>
			<point x="126" y="246" type="curve"/>
			<point x="231" y="214" type="line"/>
			<point x="325" y="237"/>
			<point x="369" y="281"/>
			<point x="369" y="338" type="curve" smooth="yes"/>
			<point x="369" y="411"/>
			<point x="294" y="447"/>
			<point x="215" y="447" type="curve" smooth="yes"/>
			<point x="107" y="447"/>
			<point x="25" y="385"/>
			<point x="25" y="299" type="curve" smooth="yes"/>
			<point x="25" y="168"/>
			<point x="209" y="176"/>
			<point x="209" y="120" type="curve" smooth="yes"/>
			<point x="209" y="99"/>
			<point x="182" y="87"/>
			<point x="158" y="87" type="curve" smooth="yes"/>
			<point x="135" y="87"/>
			<point x="115" y="97"/>
			<point x="115" y="117" type="curve" smooth="yes"/>
			<point x="115" y="151"/>
			<point x="160" y="180"/>
			<point x="193" y="179" type="curve"/>
			<point x="117" y="217" type="line"/>
			<point x="16" y="205"/>
			<point x="-21" y="144"/>
			<point x="-21" y="93" type="curve" smooth="yes"/>
			<point x="-21" y="23"/>
			<point x="57" y="-13"/>
		</contour>
	</outline>
</glyph>
<glyph name="esdescender-cy.loclBSH" format="2">
	<advance width="492"/>
	<outline>
		<contour>
			<point x="212" y="-233" type="curve" smooth="yes"/>
			<point x="263" y="-233"/>
			<point x="317" y="-202"/>
			<point x="317" y="-132" type="curve" smooth="yes"/>
			<point x="317" y="-90"/>
			<point x="297" y="-46"/>
			<point x="252" y="-8" type="curve"/>
			<point x="160" y="-4" type="line"/>
			<point x="179" y="-20"/>
			<point x="191" y="-54"/>
			<point x="192" y="-79" type="curve"/>
			<point x="200" y="-65" type="line"/>
			<point x="115" y="-146" type="line"/>
			<point x="113" y="-200"/>
			<point x="160" y="-233"/>
		</contour>
		<contour>
			<point x="235" y="-15" type="curve" smooth="yes"/>
			<point x="300" y="-15"/>
			<point x="372" y="6"/>
			<point x="442" y="49" type="curve"/>
			<point x="390" y="165" type="line"/>
			<point x="347" y="143"/>
			<point x="309" y="129"/>
			<point x="279" y="129" type="curve" smooth="yes"/>
			<point x="235" y="129"/>
			<point x="209" y="158"/>
			<point x="209" y="236" type="curve" smooth="yes"/>
			<point x="209" y="325"/>
			<point x="243" y="416"/>
			<point x="312" y="416" type="curve" smooth="yes"/>
			<point x="327" y="416"/>
			<point x="344" y="412"/>
			<point x="363" y="402" type="curve"/>
			<point x="345" y="419" type="line"/>
			<point x="352" y="349" type="line"/>
			<point x="477" y="349" type="line"/>
			<point x="502" y="514" type="line"/>
			<point x="445" y="542"/>
			<point x="387" y="555"/>
			<point x="332" y="555" type="curve" smooth="yes"/>
			<point x="156" y="555"/>
			<point x="13" y="423"/>
			<point x="13" y="225" type="curve" smooth="yes"/>
			<point x="13" y="63"/>
			<point x="110" y="-15"/>
		</contour>
	</outline>
</glyph>
<glyph name="f.sc" format="2">
	<advance width="510"/>
	<guideline x="151" y="726" angle="261"/>
	<guideline x="346" y="726" angle="261"/>
	<guideline x="103" y="726" angle="261"/>
	<guideline x="573" y="726" angle="261"/>
	<guideline x="497" y="726" angle="261"/>
	<anchor x="208" y="0" name="bottom"/>
	<anchor x="302" y="591" name="top"/>
	<outline>
		<contour>
			<point x="-12" y="0" type="line"/>
			<point x="298" y="0" type="line"/>
			<point x="314" y="100" type="line"/>
			<point x="230" y="129" type="line"/>
			<point x="247" y="103" type="line"/>
			<point x="272" y="261" type="line"/>
			<point x="236" y="232" type="line"/>
			<point x="419" y="232" type="line"/>
			<point x="439" y="358" type="line"/>
			<point x="259" y="358" type="line"/>
			<point x="284" y="332" type="line"/>
			<point x="307" y="482" type="line"/>
			<point x="271" y="453" type="line"/>
			<point x="434" y="453" type="line"/>
			<point x="402" y="474" type="line"/>
			<point x="408" y="407" type="line"/>
			<point x="522" y="407" type="line"/>
			<point x="551" y="591" type="line"/>
			<point x="333" y="591" type="line"/>
			<point x="81" y="587" type="line"/>
			<point x="65" y="487" type="line"/>
			<point x="134" y="456" type="line"/>
			<point x="114" y="494" type="line"/>
			<point x="52" y="103" type="line"/>
			<point x="76" y="129" type="line"/>
			<point x="4" y="100" type="line"/>
		</contour>
	</outline>
</glyph>
<glyph name="f_f" format="2">
	<advance width="760"/>
	<outline>
		<contour>
			<point x="-47" y="-245" type="curve" smooth="yes"/>
			<point x="53" y="-245"/>
			<point x="191" y="-202"/>
			<point x="228" y="30" type="curve" smooth="yes"/>
			<point x="293" y="440" type="line"/>
			<point x="256" y="405" type="line"/>
			<point x="585" y="405" type="line"/>
			<point x="604" y="535" type="line"/>
			<point x="278" y="535" type="line"/>
			<point x="302" y="499" type="line"/>
			<point x="313" y="565" type="line" smooth="yes"/>
			<point x="323" y="626"/>
			<point x="364" y="652"/>
			<point x="422" y="652" type="curve" smooth="yes"/>
			<point x="462" y="652"/>
			<point x="511" y="639"/>
			<point x="562" y="616" type="curve"/>
			<point x="678" y="723" type="line"/>
			<point x="585" y="763"/>
			<point x="492" y="784"/>
			<point x="409" y="784" type="curve" smooth="yes"/>
			<point x="258" y="784"/>
			<point x="142" y="714"/>
			<point x="119" y="556" type="curve" smooth="yes"/>
			<point x="112" y="507" type="line"/>
			<point x="136" y="540" type="line"/>
			<point x="39" y="510" type="line"/>
			<point x="22" y="405" type="line"/>
			<point x="130" y="405" type="line"/>
			<point x="101" y="440" type="line"/>
			<point x="28" y="-19" type="line" smooth="yes"/>
			<point x="17" y="-86"/>
			<point x="-24" y="-105"/>
			<point x="-67" y="-105" type="curve" smooth="yes"/>
			<point x="-81" y="-105"/>
			<point x="-94" y="-103"/>
			<point x="-107" y="-101" type="curve"/>
			<point x="-138" y="-235" type="line"/>
			<point x="-117" y="-239"/>
			<point x="-85" y="-245"/>
		</contour>
		<contour>
			<point x="316" y="-245" type="curve" smooth="yes"/>
			<point x="417" y="-245"/>
			<point x="554" y="-202"/>
			<point x="591" y="30" type="curve" smooth="yes"/>
			<point x="654" y="428" type="line"/>
			<point x="636" y="405" type="line"/>
			<point x="778" y="405" type="line"/>
			<point x="800" y="535" type="line"/>
			<point x="650" y="535" type="line"/>
			<point x="667" y="510" type="line"/>
			<point x="677" y="574" type="line" smooth="yes"/>
			<point x="686" y="633"/>
			<point x="725" y="654"/>
			<point x="768" y="654" type="curve" smooth="yes"/>
			<point x="797" y="654"/>
			<point x="828" y="645"/>
			<point x="853" y="631" type="curve"/>
			<point x="818" y="578" type="line"/>
			<point x="903" y="818" type="line"/>
			<point x="968" y="729" type="line"/>
			<point x="893" y="773"/>
			<point x="817" y="795"/>
			<point x="746" y="795" type="curve" smooth="yes"/>
			<point x="613" y="795"/>
			<point x="508" y="720"/>
			<point x="483" y="560" type="curve" smooth="yes"/>
			<point x="391" y="-19" type="line" smooth="yes"/>
			<point x="380" y="-86"/>
			<point x="343" y="-105"/>
			<point x="297" y="-105" type="curve" smooth="yes"/>
			<point x="283" y="-105"/>
			<point x="269" y="-103"/>
			<point x="256" y="-101" type="curve"/>
			<point x="225" y="-235" type="line"/>
			<point x="246" y="-239"/>
			<point x="278" y="-245"/>
		</contour>
	</outline>
</glyph>
<glyph name="f_t" format="2">
	<advance width="804"/>
	<outline>
		<contour>
			<point x="-47" y="-245" type="curve" smooth="yes"/>
			<point x="52" y="-245"/>
			<point x="192" y="-202"/>
			<point x="228" y="30" type="curve" smooth="yes"/>
			<point x="293" y="445" type="line"/>
			<point x="256" y="407" type="line"/>
			<point x="488" y="407" type="line"/>
			<point x="470" y="434" type="line"/>
			<point x="432" y="190" type="line" smooth="yes"/>
			<point x="429" y="170"/>
			<point x="428" y="156"/>
			<point x="428" y="142" type="curve" smooth="yes"/>
			<point x="428" y="32"/>
			<point x="494" y="-15"/>
			<point x="591" y="-15" type="curve" smooth="yes"/>
			<point x="640" y="-15"/>
			<point x="700" y="-3"/>
			<point x="762" y="24" type="curve"/>
			<point x="725" y="147" type="line"/>
			<point x="700" y="137"/>
			<point x="678" y="131"/>
			<point x="661" y="131" type="curve" smooth="yes"/>
			<point x="637" y="131"/>
			<point x="624" y="144"/>
			<point x="624" y="175" type="curve" smooth="yes"/>
			<point x="624" y="184"/>
			<point x="625" y="194"/>
			<point x="626" y="200" type="curve" smooth="yes"/>
			<point x="663" y="434" type="line"/>
			<point x="640" y="407" type="line"/>
			<point x="789" y="407" type="line"/>
			<point x="810" y="537" type="line"/>
			<point x="664" y="537" type="line"/>
			<point x="676" y="515" type="line"/>
			<point x="704" y="693" type="line"/>
			<point x="506" y="656" type="line"/>
			<point x="483" y="515" type="line"/>
			<point x="516" y="537" type="line"/>
			<point x="278" y="537" type="line"/>
			<point x="302" y="504" type="line"/>
			<point x="316" y="585" type="line" smooth="yes"/>
			<point x="325" y="638"/>
			<point x="365" y="657"/>
			<point x="412" y="657" type="curve" smooth="yes"/>
			<point x="429" y="657"/>
			<point x="446" y="655"/>
			<point x="464" y="651" type="curve"/>
			<point x="518" y="777" type="line"/>
			<point x="470" y="789"/>
			<point x="424" y="795"/>
			<point x="383" y="795" type="curve" smooth="yes"/>
			<point x="243" y="795"/>
			<point x="145" y="725"/>
			<point x="121" y="570" type="curve" smooth="yes"/>
			<point x="110" y="500" type="line"/>
			<point x="137" y="542" type="line"/>
			<point x="39" y="512" type="line"/>
			<point x="22" y="407" type="line"/>
			<point x="130" y="407" type="line"/>
			<point x="101" y="440" type="line"/>
			<point x="28" y="-19" type="line" smooth="yes"/>
			<point x="17" y="-86"/>
			<point x="-24" y="-105"/>
			<point x="-67" y="-105" type="curve" smooth="yes"/>
			<point x="-81" y="-105"/>
			<point x="-94" y="-103"/>
			<point x="-107" y="-101" type="curve"/>
			<point x="-138" y="-235" type="line"/>
			<point x="-117" y="-239"/>
			<point x="-85" y="-245"/>
		</contour>
	</outline>
</glyph>
<glyph name="four.tf" format="2">
	<advance width="600"/>
	<outline>
		<contour>
			<point x="292" y="174" type="line"/>
			<point x="265" y="0" type="line"/>
			<point x="462" y="0" type="line"/>
			<point x="490" y="174" type="line"/>
			<point x="435" y="134" type="line"/>
			<point x="565" y="134" type="line"/>
			<point x="590" y="289" type="line"/>
			<point x="461" y="289" type="line"/>
			<point x="503" y="254" type="line"/>
			<point x="575" y="710" type="line"/>
			<point x="360" y="725" type="line"/>
			<point x="6" y="275" type="line"/>
			<point x="5" y="134" type="line"/>
			<point x="333" y="134" type="line"/>
		</contour>
		<contour>
			<point x="364" y="289" type="line"/>
			<point x="108" y="289" type="line"/>
			<point x="127" y="216" type="line"/>
			<point x="424" y="601" type="line"/>
			<point x="362" y="613" type="line"/>
			<point x="305" y="254" type="line"/>
		</contour>
	</outline>
</glyph>
<glyph name="m.sc" format="2">
	<advance width="762"/>
	<guideline x="197" y="60" angle="261"/>
	<guideline x="151" y="726" angle="261"/>
	<guideline x="103" y="726" angle="261"/>
	<guideline x="243" y="60" angle="261"/>
	<guideline x="799" y="726" angle="261"/>
	<guideline x="751" y="726" angle="261"/>
	<guideline x="582" y="726" angle="261"/>
	<guideline x="534" y="726" angle="261"/>
	<guideline x="367" y="234" angle="261"/>
	<anchor x="331" y="0" name="bottom"/>
	<anchor x="425" y="591" name="top"/>
	<outline>
		<contour>
			<point x="767" y="493" type="line"/>
			<point x="782" y="593" type="line"/>
			<point x="522" y="589" type="line"/>
			<point x="359" y="295" type="line"/>
			<point x="423" y="295" type="line"/>
			<point x="353" y="593" type="line"/>
			<point x="81" y="589" type="line"/>
			<point x="65" y="489" type="line"/>
			<point x="133" y="457" type="line"/>
			<point x="116" y="504" type="line"/>
			<point x="51" y="94" type="line"/>
			<point x="83" y="131" type="line"/>
			<point x="4" y="100" type="line"/>
			<point x="-12" y="0" type="line"/>
			<point x="233" y="0" type="line"/>
			<point x="249" y="100" type="line"/>
			<point x="182" y="129" type="line"/>
			<point x="202" y="94" type="line"/>
			<point x="253" y="417" type="line"/>
			<point x="227" y="392" type="line"/>
			<point x="300" y="149" type="line"/>
			<point x="404" y="153" type="line"/>
			<point x="554" y="415" type="line"/>
			<point x="533" y="417" type="line"/>
			<point x="482" y="94" type="line"/>
			<point x="522" y="133" type="line"/>
			<point x="435" y="100" type="line"/>
			<point x="419" y="0" type="line"/>
			<point x="689" y="0" type="line"/>
			<point x="705" y="100" type="line"/>
			<point x="636" y="132" type="line"/>
			<point x="656" y="94" type="line"/>
			<point x="721" y="504" type="line"/>
			<point x="685" y="454" type="line"/>
		</contour>
	</outline>
</glyph>
<glyph name="nine.osf" format="2">
	<advance width="606"/>
	<outline>
		<contour>
			<point x="390" y="316" type="line"/>
			<point x="369" y="295"/>
			<point x="333" y="282"/>
			<point x="301" y="282" type="curve" smooth="yes"/>
			<point x="267" y="282"/>
			<point x="237" y="296"/>
			<point x="237" y="348" type="curve" smooth="yes"/>
			<point x="237" y="400"/>
			<point x="263" y="451"/>
			<point x="318" y="451" type="curve" smooth="yes"/>
			<point x="350" y="451"/>
			<point x="377" y="434"/>
			<point x="377" y="337" type="curve" smooth="yes"/>
			<point x="377" y="171"/>
			<point x="299" y="28"/>
			<point x="122" y="28" type="curve" smooth="yes"/>
			<point x="101" y="28"/>
			<point x="76" y="30"/>
			<point x="50" y="35" type="curve"/>
			<point x="23" y="-119" type="line"/>
			<point x="63" y="-129"/>
			<point x="102" y="-133"/>
			<point x="138" y="-133" type="curve" smooth="yes"/>
			<point x="384" y="-133"/>
			<point x="582" y="59"/>
			<point x="582" y="320" type="curve" smooth="yes"/>
			<point x="582" y="533"/>
			<point x="450" y="606"/>
			<point x="324" y="606" type="curve" smooth="yes"/>
			<point x="175" y="606"/>
			<point x="31" y="504"/>
			<point x="31" y="335" type="curve" smooth="yes"/>
			<point x="31" y="202"/>
			<point x="120" y="142"/>
			<point x="227" y="142" type="curve" smooth="yes"/>
			<point x="279" y="142"/>
			<point x="334" y="156"/>
			<point x="387" y="182" type="curve"/>
		</contour>
	</outline>
</glyph>
<glyph name="o.sc" format="2">
	<advance width="661"/>
	<anchor x="288" y="0" name="bottom"/>
	<anchor x="335" y="296" name="center"/>
	<anchor x="388" y="0" name="ogonek"/>
	<anchor x="387" y="591" name="top"/>
	<anchor x="81" y="591" name="topleft"/>
	<anchor x="612" y="567" name="topright"/>
	<outline>
		<contour>
			<point x="284" y="-15" type="curve" smooth="yes"/>
			<point x="521" y="-15"/>
			<point x="650" y="155"/>
			<point x="650" y="357" type="curve" smooth="yes"/>
			<point x="650" y="520"/>
			<point x="559" y="606"/>
			<point x="387" y="606" type="curve" smooth="yes"/>
			<point x="150" y="606"/>
			<point x="21" y="442"/>
			<point x="21" y="237" type="curve" smooth="yes"/>
			<point x="21" y="65"/>
			<point x="121" y="-15"/>
		</contour>
		<contour>
			<point x="300" y="130" type="curve" smooth="yes"/>
			<point x="245" y="130"/>
			<point x="224" y="163"/>
			<point x="224" y="235" type="curve" smooth="yes"/>
			<point x="224" y="329"/>
			<point x="258" y="461"/>
			<point x="371" y="461" type="curve" smooth="yes"/>
			<point x="426" y="461"/>
			<point x="447" y="429"/>
			<point x="447" y="358" type="curve" smooth="yes"/>
			<point x="447" y="265"/>
			<point x="412" y="130"/>
		</contour>
	</outline>
</glyph>
<glyph name="oe.sc" format="2">
	<advance width="843"/>
	<guideline x="475" y="226" angle="261"/>
	<anchor x="439" y="0" name="bottom"/>
	<anchor x="533" y="591" name="top"/>
	<outline>
		<contour>
			<point x="274" y="-7" type="curve" smooth="yes"/>
			<point x="325" y="-7"/>
			<point x="436" y="0"/>
			<point x="481" y="0" type="curve" smooth="yes"/>
			<point x="765" y="0" type="line"/>
			<point x="795" y="188" type="line"/>
			<point x="678" y="188" type="line"/>
			<point x="647" y="102" type="line"/>
			<point x="684" y="138" type="line"/>
			<point x="531" y="138" type="line"/>
			<point x="553" y="103" type="line"/>
			<point x="580" y="266" type="line"/>
			<point x="544" y="237" type="line"/>
			<point x="713" y="237" type="line"/>
			<point x="733" y="363" type="line"/>
			<point x="567" y="363" type="line"/>
			<point x="591" y="339" type="line"/>
			<point x="612" y="474" type="line"/>
			<point x="578" y="453" type="line"/>
			<point x="720" y="453" type="line"/>
			<point x="696" y="491" type="line"/>
			<point x="707" y="408" type="line"/>
			<point x="821" y="408" type="line"/>
			<point x="850" y="593" type="line"/>
			<point x="629" y="593" type="line" smooth="yes"/>
			<point x="595" y="593"/>
			<point x="426" y="598"/>
			<point x="382" y="598" type="curve" smooth="yes"/>
			<point x="137" y="598"/>
			<point x="21" y="442"/>
			<point x="21" y="240" type="curve" smooth="yes"/>
			<point x="21" y="72"/>
			<point x="102" y="-7"/>
		</contour>
		<contour>
			<point x="357" y="97" type="line"/>
			<point x="394" y="150" type="line"/>
			<point x="376" y="146"/>
			<point x="331" y="138"/>
			<point x="300" y="138" type="curve" smooth="yes"/>
			<point x="240" y="138"/>
			<point x="224" y="170"/>
			<point x="224" y="235" type="curve" smooth="yes"/>
			<point x="224" y="315"/>
			<point x="248" y="453"/>
			<point x="357" y="453" type="curve" smooth="yes"/>
			<point x="380" y="453"/>
			<point x="443" y="447"/>
			<point x="464" y="444" type="curve"/>
			<point x="418" y="481" type="line"/>
		</contour>
	</outline>
</glyph>
<glyph name="ohorn.sc" format="2">
	<advance width="669"/>
	<anchor x="277" y="0" name="bottom"/>
	<anchor x="371" y="591" name="top"/>
	<outline>
		<contour>
			<point x="495" y="502" type="line"/>
			<point x="631" y="496"/>
			<point x="711" y="560"/>
			<point x="711" y="664" type="curve" smooth="yes"/>
			<point x="711" y="691"/>
			<point x="706" y="720"/>
			<point x="695" y="751" type="curve"/>
			<point x="556" y="721" type="line"/>
			<point x="560" y="698"/>
			<point x="562" y="678"/>
			<point x="562" y="662" type="curve" smooth="yes"/>
			<point x="562" y="619"/>
			<point x="546" y="594"/>
			<point x="486" y="592" type="curve"/>
		</contour>
		<contour>
			<point x="272" y="-15" type="curve" smooth="yes"/>
			<point x="502" y="-15"/>
			<point x="649" y="147"/>
			<point x="649" y="356" type="curve" smooth="yes"/>
			<point x="649" y="516"/>
			<point x="561" y="606"/>
			<point x="387" y="606" type="curve" smooth="yes"/>
			<point x="154" y="606"/>
			<point x="20" y="446"/>
			<point x="20" y="236" type="curve" smooth="yes"/>
			<point x="20" y="68"/>
			<point x="107" y="-15"/>
		</contour>
		<contour>
			<point x="299" y="130" type="curve" smooth="yes"/>
			<point x="241" y="130"/>
			<point x="223" y="166"/>
			<point x="223" y="236" type="curve" smooth="yes"/>
			<point x="223" y="334"/>
			<point x="259" y="461"/>
			<point x="369" y="461" type="curve" smooth="yes"/>
			<point x="426" y="461"/>
			<point x="446" y="426"/>
			<point x="446" y="356" type="curve" smooth="yes"/>
			<point x="446" y="258"/>
			<point x="407" y="130"/>
		</contour>
	</outline>
</glyph>
<glyph name="one.dnom" format="2">
	<advance width="305"/>
	<outline>
		<contour>
			<point x="222" y="79" type="line"/>
			<point x="277" y="435" type="line"/>
			<point x="156" y="435" type="line"/>
			<point x="7" y="344" type="line"/>
			<point x="37" y="248" type="line"/>
			<point x="149" y="303" type="line"/>
			<point x="107" y="301" type="line"/>
			<point x="74" y="79" type="line"/>
			<point x="99" y="106" type="line"/>
			<point x="-8" y="80" type="line"/>
			<point x="-20" y="0" type="line"/>
			<point x="266" y="0" type="line"/>
			<point x="278" y="80" type="line"/>
			<point x="206" y="111" type="line"/>
		</contour>
	</outline>
</glyph>
<glyph name="one.tf" format="2">
	<advance width="600"/>
	<outline>
		<contour>
			<point x="378" y="85" type="line"/>
			<point x="479" y="714" type="line"/>
			<point x="313" y="714" type="line"/>
			<point x="95" y="580" type="line"/>
			<point x="140" y="457" type="line"/>
			<point x="309" y="542" type="line"/>
			<point x="255" y="542" type="line"/>
			<point x="181" y="85" type="line"/>
			<point x="226" y="133" type="line"/>
			<point x="58" y="100" type="line"/>
			<point x="42" y="0" type="line"/>
			<point x="459" y="0" type="line"/>
			<point x="475" y="100" type="line"/>
			<point x="349" y="136" type="line"/>
		</contour>
	</outline>
</glyph>
<glyph name="parenleft.case" format="2">
	<advance width="320"/>
	<guideline x="-515" y="-118" angle="0"/>
	<outline>
		<contour>
			<point x="402" y="787" type="curve"/>
			<point x="287" y="864" type="line"/>
			<point x="123" y="689"/>
			<point x="20" y="477"/>
			<point x="20" y="248" type="curve" smooth="yes"/>
			<point x="20" y="109"/>
			<point x="58" y="-34"/>
			<point x="132" y="-154" type="curve"/>
			<point x="261" y="-84" type="line"/>
			<point x="218" y="12"/>
			<point x="198" y="124"/>
			<point x="198" y="224" type="curve" smooth="yes"/>
			<point x="198" y="422"/>
			<point x="276" y="617"/>
		</contour>
	</outline>
</glyph>
